<svg><metadata>Created by FontForge 20120731 at Mon May 20 12:30:44 2019 By www-data Copyright (C) 2019 by Webhance Studio. All rights reserved.</metadata><defs><font id="Quentin_Pro-Regular" horiz-adv-x="550"><font-face x-height="485" ascent="800" bbox="-100 -256 1029 1050" cap-height="616" descent="-200" font-family="Quentin_Pro" font-stretch="normal" font-weight="400" panose-1="0 0 5 0 0 0 0 0 0 0" underline-position="-100" underline-thickness="50" unicode-range="U+0020-FB02" units-per-em="1000"/><glyph glyph-name=".notdef" horiz-adv-x="223"/><glyph glyph-name="space" horiz-adv-x="200"/><glyph d="M218 269q-6 -39 -20 -45l-15 -4q-13 -4 -34 -4q-33 0 -50.5 10t-22.5 34q-6 28 -12 128.5t-9 203.5q0 37 25.5 51t70.5 14q42 0 64 -19.5t22 -57.5q0 -168 -19 -311zM79 144q26 26 70 26t70 -26t26 -68t-26 -68t-70 -26t-70 26t-26 68t26 68z" glyph-name="exclam" horiz-adv-x="298" unicode="!"/><glyph d="M165 443q-8 -44 -35 -47q-16 -2 -30 -2q-57 0 -62 44l-10 159q-3 38 16.5 51t60.5 13q76 0 76 -60q0 -33 -7 -92zM366 443q-8 -44 -35 -47q-16 -2 -30 -2q-57 0 -62 44l-10 159q-3 38 16.5 51t60.5 13q76 0 76 -60q0 -33 -7 -92z" glyph-name="quotedbl" horiz-adv-x="410" unicode="&quot;"/><glyph d="M493 43q-9 -44 -33 -45h-24q-42 0 -62 16t-20 52q0 24 6 52l2 11h-90l-19 -86q-9 -44 -33 -45h-24q-42 0 -62 16t-20 52q0 24 6 52l2 11h-33q-43 0 -54 30q-5 18 -5 31q0 33 15 49.5t42 16.5h63l22 101h-56q-44 0 -54 30q-5 18 -5 31q0 33 15 49.5t42 16.5h86l19 87 q9 43 23 43q2 1 13 1h23q43 0 63 -16t20 -51q0 -24 -7 -53l-3 -11h89l19 87q9 43 23 43q2 1 13 1h23q43 0 63 -16t20 -51q0 -24 -7 -53l-3 -11h34q47 0 54 -30q5 -20 5 -32q0 -32 -14.5 -48.5t-41.5 -16.5h-65l-22 -101h57q47 0 54 -30q5 -20 5 -32q0 -32 -14.5 -48.5 t-41.5 -16.5h-89zM301 256h89l22 101h-89z" glyph-name="numbersign" horiz-adv-x="714" unicode="#"/><glyph d="M241 241q-54 18 -86.5 33.5t-55.5 34.5q-55 46 -55 127q0 68 42 114.5t120 63.5v35q0 48 33 52l34 2q45 0 64 -15.5t19 -55.5v-13q137 -20 137 -98q0 -27 -13 -46t-33 -19q-16 0 -33 7q-51 17 -102 17q-45 0 -66 -12q-21 -13 -21 -32q0 -14 12 -23.5t40 -18.5l53 -17 q102 -33 148.5 -81t46.5 -122q0 -69 -43.5 -116t-125.5 -64v-34q0 -48 -33 -52l-34 -2q-45 0 -64 15.5t-19 55.5v10q-76 8 -119 37.5t-43 74.5q0 29 15.5 49.5t36.5 20.5q15 0 37 -12q58 -31 122 -31q50 0 69 15q20 15 20 35q0 18 -13 28.5t-48 22.5z" glyph-name="dollar" horiz-adv-x="565" unicode="$"/><glyph d="M307 341.5q-44 -42.5 -117 -42.5t-117 42.5t-44 116.5q0 72 44 115t117 43t117 -43t44 -115q0 -74 -44 -116.5zM514 582q20 29 46 29q8 0 19 -4q45 -15 48 -45q0 -27 -29 -68l-322 -466q-19 -28 -44 -28q-6 0 -21 5q-33 14 -36 43q0 22 3.5 36t14.5 31zM161 414 q11 -15 29 -15t29 15t11 44q0 27 -11 42t-29 15t-29 -15t-11 -42q0 -29 11 -44zM726 34.5q-44 -42.5 -117 -42.5t-117 42.5t-44 116.5q0 72 44 115t117 43t117 -43t44 -115q0 -74 -44 -116.5zM580 107q11 -15 29 -15t29 15t11 44q0 27 -11 42t-29 15t-29 -15t-11 -42 q0 -29 11 -44z" glyph-name="percent" horiz-adv-x="799" unicode="%"/><glyph d="M501 389q13 4 35 4q43 0 63 -26q14 -23 14 -67q0 -80 -41 -154l49 -47q23 -23 23 -45q0 -12 -4 -19q-11 -23 -30.5 -36t-43.5 -13q-40 0 -78 38l-19 18q-79 -58 -190 -58q-116 0 -180 58q-31 27 -47 63.5t-16 79.5q0 63 34 109.5t91 70.5q-37 43 -37 102q0 31 13 58 t37 47q49 42 137 42q115 0 115 -80q0 -18 -4 -26q-9 -29 -38 -29q-9 0 -11 1q-13 3 -29 3q-60 0 -60 -37q0 -13 11 -27q12 -16 34 -38l128 -124q8 30 9 78q2 47 35 54zM220.5 136.5q24.5 -22.5 68.5 -22.5q47 0 84 24l-128 129q-24 -11 -36.5 -30t-12.5 -41 q0 -37 24.5 -59.5z" glyph-name="ampersand" horiz-adv-x="673" unicode="&amp;"/><glyph d="M175 447q-7 -42 -37 -50q-15 -3 -33 -3q-29 0 -47 12.5t-20 35.5l-10 151q-5 68 82 68q81 0 81 -64q0 -34 -7 -89z" glyph-name="quotesingle" horiz-adv-x="219" unicode="'"/><glyph d="M108 583q45 85 115 85q27 0 47.5 -14.5t20.5 -34.5q0 -14 -11 -34q-39 -70 -57.5 -144.5t-18.5 -174.5t19 -175.5t57 -142.5q11 -20 11 -35q0 -20 -20.5 -34.5t-47.5 -14.5q-70 0 -115 85q-66 122 -66 317q0 196 66 317z" glyph-name="parenleft" horiz-adv-x="305" unicode="("/><glyph d="M197 -51q-45 -85 -115 -85q-27 0 -47.5 14.5t-20.5 34.5q0 14 11 34q38 69 57 144.5t19 174.5q0 104 -20 179t-56 139q-11 20 -11 35q0 20 20.5 34.5t47.5 14.5q70 0 115 -85q66 -121 66 -317q0 -195 -66 -317z" glyph-name="parenright" horiz-adv-x="305" unicode=")"/><glyph d="M284 430q15 -19 15 -39q0 -18 -15.5 -31t-38.5 -13q-19 0 -29.5 9t-29.5 37l-8 14l-18 -26q-20 -32 -31 -33q-2 -1 -12 -1q-33 0 -50 13t-17 36q0 12 5 22.5t17 25.5l15 19l-22 6q-39 10 -44 29q-1 3 -1 19q0 25 14.5 39t40.5 14q15 0 33 -7l15 -5v32q0 42 26 53 q12 6 28 6q24 0 37.5 -12.5t13.5 -35.5l-2 -45l23 10q21 8 33 8q20 0 32 -15t12 -37q0 -20 -9 -29t-38 -22l-18 -8z" glyph-name="asterisk" horiz-adv-x="351" unicode="*"/><glyph d="M351 95q0 -47 -35 -52l-36 -2q-46 0 -64.5 15t-18.5 56v110h-109q-47 0 -54 31q-4 17 -4 34q0 35 15.5 52t43.5 17h108v123q0 47 35 52q18 3 36 3q45 0 64 -16t19 -57v-105h105q45 0 54 -32q5 -22 5 -34q0 -33 -15.5 -50.5t-42.5 -17.5h-106v-127z" glyph-name="plus" horiz-adv-x="545" unicode="+"/><glyph d="M4 -48q17 52 41 166q6 35 30 47.5t66 12.5q35 0 57 -14t22 -41l-1 -9q-9 -75 -37.5 -137.5t-66.5 -97.5q-35 -34 -66 -34q-24 0 -36.5 21t-12.5 62q0 16 4 24z" glyph-name="comma" horiz-adv-x="243" unicode=","/><glyph d="M90 186q-44 0 -55 32q-5 22 -5 35q0 33 16.5 51.5t44.5 18.5h173q44 0 55 -32q5 -22 5 -35q0 -33 -16.5 -51.5t-44.5 -18.5h-173z" glyph-name="hyphen" horiz-adv-x="354" unicode="-"/><glyph d="M48.5 151.5q26.5 27.5 70.5 27.5t70.5 -27.5t26.5 -70.5t-26.5 -70.5t-70.5 -27.5t-70.5 27.5t-26.5 70.5t26.5 70.5z" glyph-name="period" horiz-adv-x="238" unicode="."/><glyph d="M152 -65q-12 -43 -37 -44h-25q-87 0 -87 76q0 21 8 55l14 48l165 594q12 43 37 44h26q87 0 87 -72q0 -25 -8 -55l-15 -52z" glyph-name="slash" horiz-adv-x="343" unicode="/"/><glyph d="M551.5 169.5q-19.5 -60.5 -55.5 -102.5q-36 -40 -86 -61.5t-107 -21.5q-122 0 -193 83q-75 84 -75 237t75 237q35 40 84.5 61t108.5 21q58 0 107.5 -21t85.5 -61q36 -42 55.5 -102.5t19.5 -134.5t-19.5 -134.5zM374.5 440q-25.5 48 -72.5 48t-71.5 -48t-24.5 -136 q0 -90 24.5 -137.5t71.5 -47.5t72.5 48.5t25.5 136.5t-25.5 136z" glyph-name="zero" horiz-adv-x="606" unicode="0"/><glyph d="M155 446l-63 -20q-18 -5 -27 -5q-23 0 -39 20.5t-16 51.5q0 60 73 84l82 28q26 10 49 10h18q43 0 68 -25t25 -68v-475q0 -34 -15.5 -45t-38.5 -10h-22q-51 0 -72.5 18t-21.5 62v374z" glyph-name="one" horiz-adv-x="393" unicode="1"/><glyph d="M417 569q31 -25 47 -59t16 -73q0 -105 -119 -200l-131 -105h198q47 0 54 -31q5 -22 5 -34q0 -67 -58 -67h-312q-23 0 -37 5t-23 19q-22 28 -22 70q0 58 45 95l138 118q54 46 71 71q19 25 19 49q0 27 -24 43.5t-61 16.5q-41 0 -85 -18q-23 -9 -36 -9q-19 0 -30.5 17.5 t-11.5 42.5q0 50 47 76.5t134 26.5q109 0 176 -54z" glyph-name="two" horiz-adv-x="522" unicode="2"/><glyph d="M406 576.5q62 -46.5 62 -128.5q0 -43 -23 -78t-63 -54q101 -41 101 -148q0 -42 -18 -76.5t-52 -58.5q-67 -49 -178 -49q-104 0 -157 29t-53 74q0 27 12.5 46t32.5 19q17 0 36 -10q51 -23 105 -23q48 0 74 17t26 48t-20.5 45t-66.5 14h-53q-47 0 -54 31q-4 15 -4 34l2 30 q7 37 56 37h53q72 0 72 55q0 27 -24 42.5t-68 15.5q-49 0 -84 -13q-24 -8 -36 -8q-19 0 -30.5 17t-11.5 42q0 48 49 72.5t142 24.5q111 0 173 -46.5z" glyph-name="three" horiz-adv-x="518" unicode="3"/><glyph d="M265 574q12 16 24.5 24t29.5 11q28 6 55 6q57 0 88.5 -23t31.5 -70v-266h47q47 0 55 -32q5 -22 5 -35q0 -70 -60 -70h-47v-72q0 -31 -14.5 -43t-41.5 -12q-66 0 -86 12q-12 8 -18 22t-6 37v56h-218q-22 0 -35 4t-25 16q-29 29 -29 73q0 23 5.5 45.5t16.5 36.5zM337 444 h-3l-133 -188h136v188z" glyph-name="four" horiz-adv-x="606" unicode="4"/><glyph d="M99.5 13q-54.5 29 -54.5 81q0 26 15.5 46t33.5 20q19 0 38 -13q49 -28 106 -28q43 0 65 19t22 53q0 67 -78 67q-30 0 -56 -9q-31 -11 -45 -11q-8 0 -18 2q-73 16 -73 97v8l1 18l12 152q3 43 27.5 68t66.5 25h246q47 0 55 -32q5 -22 5 -35q0 -70 -60 -70h-192l-7 -94 q27 7 45 10t43 3q95 0 147.5 -53.5t52.5 -144.5q0 -93 -64 -150.5t-183 -57.5q-96 0 -150.5 29z" glyph-name="five" horiz-adv-x="522" unicode="5"/><glyph d="M472 491q-11 -17 -34 -17q-17 0 -26 4q-42 11 -72 11q-58 0 -91 -30t-45 -92q24 16 57 26.5t64 10.5q94 0 147.5 -54.5t53.5 -150.5q0 -43 -15 -82t-45 -68q-65 -65 -178 -65q-120 0 -186.5 80t-66.5 224q0 106 34.5 181.5t98.5 114.5t150 39q165 0 165 -89 q0 -26 -11 -43zM244.5 266q-20.5 -8 -32.5 -22v-25q0 -49 20 -74.5t57 -25.5q32 0 49 21t17 58q0 36 -17.5 56t-50.5 20q-22 0 -42.5 -8z" glyph-name="six" horiz-adv-x="558" unicode="6"/><glyph d="M394 608q23 0 36.5 -5t22.5 -18q19 -22 19 -56q0 -38 -13 -65l-192 -434q-17 -38 -29 -38h-37q-101 0 -101 76q0 17 8 38t29 66l146 299h-203q-47 0 -55 32q-5 22 -5 35q0 70 60 70h314z" glyph-name="seven" horiz-adv-x="482" unicode="7"/><glyph d="M66.5 516.5q16.5 33.5 47.5 57.5q30 24 72 37t92 13t92 -12t72 -34t47 -54.5t17 -71.5q0 -85 -68 -132q45 -31 65.5 -67.5t20.5 -89.5q0 -54 -29.5 -94t-85.5 -63q-57 -23 -129 -23q-109 0 -177 50q-32 24 -49.5 57.5t-17.5 72.5q0 48 20.5 85t58.5 61q-34 27 -49.5 58.5 t-15.5 76.5q0 39 16.5 72.5zM323 481q-16 16 -45 16t-45 -15.5t-16 -42.5q0 -43 55 -68q67 16 67 67q0 27 -16 43zM227 129.5q20 -18.5 53 -18.5q32 0 52.5 18.5t20.5 48.5q0 55 -65 79q-81 -18 -81 -79q0 -30 20 -48.5z" glyph-name="eight" horiz-adv-x="560" unicode="8"/><glyph d="M314.5 151.5q38.5 33.5 38.5 90.5q-18 -15 -48.5 -24t-67.5 -9q-94 0 -149.5 53.5t-55.5 146.5q0 43 15 81.5t45 68.5q64 64 178 64q120 0 186.5 -80t66.5 -224q0 -163 -79 -251q-36 -42 -88.5 -63t-116.5 -21q-82 0 -126 22.5t-44 66.5q0 26 11 43t34 17q8 0 30 -5 q31 -10 68 -10q64 0 102.5 33.5zM315 345q20 8 32 22v12q-1 109 -76 109q-33 0 -51.5 -20.5t-18.5 -55.5q0 -34 21 -54.5t54 -20.5q19 0 39 8z" glyph-name="nine" horiz-adv-x="558" unicode="9"/><glyph d="M58.5 465.5q26.5 27.5 70.5 27.5t70.5 -27.5t26.5 -70.5t-26.5 -70.5t-70.5 -27.5t-70.5 27.5t-26.5 70.5t26.5 70.5zM58.5 151.5q26.5 27.5 70.5 27.5t70.5 -27.5t26.5 -70.5t-26.5 -70.5t-70.5 -27.5t-70.5 27.5t-26.5 70.5t26.5 70.5z" glyph-name="colon" horiz-adv-x="258" unicode=":"/><glyph d="M64.5 465.5q26.5 27.5 70.5 27.5t70.5 -27.5t26.5 -70.5t-26.5 -70.5t-70.5 -27.5t-70.5 27.5t-26.5 70.5t26.5 70.5zM124.5 -105q-19.5 -10 -46.5 -10q-65 0 -65 43q0 16 4 24q17 52 41 166q6 35 30 47.5t66 12.5q37 0 57.5 -16t20.5 -48q0 -39 -22 -97t-48 -90 q-18 -22 -37.5 -32z" glyph-name="semicolon" horiz-adv-x="266" unicode=";"/><glyph d="M403 140l28 -17q8 -7 9 -15v-15q0 -42 -19.5 -65.5t-57.5 -23.5q-19 0 -37.5 7.5t-54.5 27.5l-187 108q-20 12 -29 21t-15 23q-10 27 -10 62q0 41 11.5 64.5t35.5 36.5l243 142q19 12 39 12q16 0 29 -7q48 -24 48 -71q0 -32 -15.5 -52t-53.5 -39l-176 -89z" glyph-name="less" horiz-adv-x="471" unicode="&lt;"/><glyph d="M90 328q-47 0 -54 31q-4 17 -4 34q0 35 15.5 52t43.5 17h307q45 0 54 -32q5 -22 5 -34q0 -33 -15.5 -50.5t-42.5 -17.5h-309zM90 129q-47 0 -54 31q-4 17 -4 34q0 35 15.5 52t43.5 17h307q45 0 54 -32q5 -22 5 -34q0 -33 -15.5 -50.5t-42.5 -17.5h-309z" glyph-name="equal" horiz-adv-x="489" unicode="="/><glyph d="M68 378q-20 11 -27 18q-9 7 -10 14v15q0 42 19.5 65.5t57.5 23.5q19 0 37.5 -7.5t54.5 -27.5l187 -108q20 -12 29 -21t15 -23q10 -27 10 -62q0 -41 -11.5 -64.5t-35.5 -36.5l-243 -142q-19 -12 -39 -12q-16 0 -29 7q-48 24 -48 71q0 32 15.5 52t53.5 39l176 89z" glyph-name="greater" horiz-adv-x="471" unicode="&gt;"/><glyph d="M77 596.5q53 26.5 147 26.5q113 0 176 -51t63 -139q0 -50 -23 -86t-72 -63q-47 -27 -131 -56l-30 -10l1 -3l2 -10q0 -18 -35 -26l-14 -3l-13 -2q-6 0 -14 5q-12 9 -28 49.5t-17 60.5q-1 9 0 13q1 26 16 40.5t49 23.5l78 19q50 14 50 48q0 22 -21 34.5t-61 12.5 q-51 0 -96 -16q-18 -7 -34 -7q-21 0 -33.5 18t-12.5 46q0 49 53 75.5zM129 145q26 26 70 26t70 -26t26 -68t-26 -68t-70 -26t-70 26t-26 68t26 68z" glyph-name="question" horiz-adv-x="498" unicode="?"/><glyph d="M434 12.5q-37 12.5 -64 37.5q-28 25 -43 62.5t-15 84.5q0 113 75 182q34 31 79.5 47t97.5 16q48 0 91 -12t75 -35q39 -27 39 -67v-9q0 -10 -1 -11l-21 -180q7 -4 25 -4q45 0 71 42t26 111q0 56 -22.5 104t-63.5 82q-43 34 -100 53t-121 19q-76 0 -140.5 -24t-113.5 -70 q-47 -46 -72.5 -107t-25.5 -130q0 -136 85 -218q40 -39 94.5 -59.5t119.5 -20.5q54 0 74 4l7 1q3 1 16 1q31 0 40 -22q5 -20 5 -30q0 -45 -31 -64q-38 -23 -123 -23q-84 0 -161.5 25.5t-139.5 74.5q-72 55 -109.5 139t-37.5 192q0 102 38 187.5t110 148.5q69 59 162.5 91 t201.5 32q102 0 188 -27t149 -78t97 -123.5t34 -158.5q0 -134 -67 -207.5t-190 -73.5q-35 0 -70.5 9t-61.5 26q-52 -30 -126 -30q-43 0 -80 12.5zM609 299q-16 10 -46 10q-38 0 -60.5 -29t-22.5 -82q0 -70 64 -70q15 0 25 3t25 12z" glyph-name="at" horiz-adv-x="1069" unicode="@"/><glyph d="M173 555q24 61 134 61q55 0 91 -15.5t47 -44.5q34 -97 81 -263l65 -232q3 -12 3 -22q0 -26 -22 -37.5t-63 -11.5q-45 0 -64.5 14t-31.5 53l-18 69h-181l-16 -62l-6 -24q-11 -41 -43 -47q-15 -3 -34 -3q-48 0 -74 17.5t-26 48.5q0 19 4 28q5 14 9 33q13 50 47 154l32 95 l32 93zM306 459l-31 -93q-19 -53 -32 -105h124q-33 126 -55 198h-6z" glyph-name="A" horiz-adv-x="617" unicode="A"/><glyph d="M148.5 -9.5q-50.5 6.5 -78.5 18.5q-55 21 -55 73v467q0 20 10.5 32t32.5 19q67 23 190 23q266 0 266 -176q0 -44 -25.5 -77t-70.5 -48q54 -15 85.5 -53t31.5 -91q0 -194 -285 -194q-51 0 -101.5 6.5zM185 369h73q82 0 82 63q0 28 -23 43.5t-67 15.5q-50 0 -65 -4v-118z M185 125q24 -7 78 -7q43 0 68 17.5t25 50.5q0 32 -21.5 46.5t-67.5 14.5h-82v-122z" glyph-name="B" unicode="B"/><glyph d="M236 437.5q-41 -46.5 -41 -133.5q0 -86 44.5 -133.5t123.5 -47.5q46 0 84 16q21 8 32 8q22 0 33 -18t11 -49q0 -45 -49 -71.5t-135 -26.5q-70 0 -128.5 19.5t-100.5 58.5q-95 84 -95 244q0 149 92 238q42 41 98.5 62t122.5 21q90 0 141.5 -29t51.5 -78q0 -25 -13.5 -45 t-31.5 -20q-12 0 -30 9q-43 22 -92 22q-77 0 -118 -46.5z" glyph-name="C" horiz-adv-x="538" unicode="C"/><glyph d="M147.5 -9.5q-48.5 6.5 -77.5 18.5q-55 21 -55 73v467q0 20 10.5 32t32.5 19q72 23 177 23q165 0 255.5 -82t90.5 -237q0 -152 -89.5 -236t-246.5 -84q-49 0 -97.5 6.5zM189 130q32 -5 57 -5q74 0 114.5 44.5t40.5 131.5q0 86 -41 133.5t-113 47.5q-37 0 -58 -4v-348z" glyph-name="D" horiz-adv-x="596" unicode="D"/><glyph d="M15 513q0 43 25 68t68 25h289q46 0 54 -32q5 -22 5 -35q0 -70 -60 -70h-211v-93h184q46 0 54 -32q5 -20 5 -34q0 -70 -59 -70h-184v-105h216q46 0 54 -32q5 -22 5 -35q0 -71 -60 -71h-292q-43 0 -68 25t-25 68v423z" glyph-name="E" horiz-adv-x="475" unicode="E"/><glyph d="M399 606q48 0 55 -33q5 -22 5 -35q0 -72 -61 -72h-210v-113h179q46 0 54 -32q5 -22 5 -35q0 -71 -61 -71h-175v-165q0 -49 -40 -53l-41 -2q-52 0 -73 18t-21 65v435q0 43 25 68t68 25h291z" glyph-name="F" horiz-adv-x="474" unicode="F"/><glyph d="M594 99q0 -29 -9.5 -44.5t-36.5 -30.5q-30 -18 -81 -29t-107 -11q-73 0 -136 20t-108 59q-49 40 -75 100t-26 135q0 77 28 139.5t80 105.5q47 39 108.5 59.5t130.5 20.5q93 0 149.5 -30.5t56.5 -79.5q0 -28 -12.5 -46t-33.5 -18q-12 0 -34 8q-50 25 -110 25 q-84 0 -133.5 -48.5t-49.5 -132.5q0 -85 45 -131t122 -46q43 0 65 13v94h-65q-46 0 -54 32q-5 22 -5 35q0 68 59 68h169q30 0 46.5 -16.5t16.5 -46.5v-204z" glyph-name="G" horiz-adv-x="609" unicode="G"/><glyph d="M557 50q0 -49 -40 -53l-41 -2q-52 0 -73 18t-21 65v156h-192v-184q0 -49 -40 -53l-41 -2q-52 0 -73 18t-21 65v482q0 34 17 45t42 11l22 -1q52 0 73 -18t21 -65v-160h192v188q0 34 17 45t42 11l22 -1q52 0 73 -18t21 -65v-482z" glyph-name="H" horiz-adv-x="572" unicode="H"/><glyph d="M190 50q0 -49 -40 -53l-41 -2q-52 0 -73 18t-21 65v482q0 34 17 45t42 11l22 -1q52 0 73 -18t21 -65v-482z" glyph-name="I" horiz-adv-x="205" unicode="I"/><glyph d="M169 560q0 34 17 45t42 11l22 -1q52 0 73 -18t21 -65v-370q0 -89 -51 -133.5t-150 -44.5q-128 0 -128 89l2 22q5 32 41 32q14 0 18 -1t20 -1q38 0 55.5 19t17.5 58v358z" glyph-name="J" horiz-adv-x="359" unicode="J"/><glyph d="M191 225v-175q0 -34 -18.5 -45.5t-42.5 -10.5l-21 1q-52 0 -73 18t-21 65v482q0 34 17 45t42 11l22 -1q52 0 73 -18t21 -65v-159l183 211q21 26 52 26q10 0 12 -1q42 -6 65 -28t23 -55q0 -26 -12.5 -48.5t-42.5 -52.5l-125 -125l80 -87l27 -29l68 -73q12 -13 17 -23 t5 -22q0 -11 -4 -18q-7 -19 -22 -32q-27 -24 -67 -24q-35 0 -59.5 15t-57.5 54z" glyph-name="K" horiz-adv-x="560" unicode="K"/><glyph d="M108 -3q-43 0 -68 25t-25 68v471q0 34 17 45t42 11l22 -1q52 0 73 -18t21 -65v-395h188q45 0 55 -33q5 -22 5 -35q0 -73 -62 -73h-268z" glyph-name="L" horiz-adv-x="453" unicode="L"/><glyph d="M457 183q-6 -21 -15.5 -33t-24.5 -18q-21 -7 -51 -7q-78 0 -90 40l-46 143q-18 56 -28 95h-5q-6 -118 -6 -202q-2 -104 -5 -153q-1 -26 -12.5 -39t-26.5 -15q-16 -2 -39 -2q-48 0 -70.5 15.5t-22.5 49.5l27 476q1 21 7 34.5t20 22.5q35 20 86 20q53 0 83 -16.5t44 -53.5 q19 -50 41 -119l38 -124h5q42 151 80 260q11 32 34 42.5t69 10.5q49 0 80 -14.5t36 -41.5q11 -63 38 -376l9 -125q2 -23 -7.5 -38t-29.5 -19q-13 -4 -44 -4q-45 0 -67.5 15t-24.5 49q-5 106 -7 196q-1 86 -5 146h-5q-10 -40 -29 -98q-16 -47 -24 -77z" glyph-name="M" horiz-adv-x="729" unicode="M"/><glyph d="M564 59q0 -39 -24 -53t-80 -14q-48 0 -77 14.5t-47 49.5l-99 202q-14 26 -53 122l-6 -1q5 -88 5 -220v-109q0 -23 -10 -37t-29 -16l-39 -2q-49 0 -69.5 17.5t-20.5 62.5v464q0 22 6 36t21 23q32 17 78 17q48 0 77.5 -14.5t46.5 -49.5l100 -202q14 -26 53 -122l5 1 q-6 86 -6 216v116q0 23 10 37t29 16l39 2q49 0 69.5 -18t20.5 -62v-476z" glyph-name="N" horiz-adv-x="579" unicode="N"/><glyph d="M38.5 440q23.5 61 68.5 103q42 40 99.5 61t124.5 21t124.5 -21t100.5 -61q45 -42 68.5 -103t23.5 -136q0 -74 -23.5 -135t-66.5 -104q-42 -41 -100 -62t-127 -21q-68 0 -126 21.5t-100 62.5q-43 43 -66.5 104t-23.5 134q0 75 23.5 136zM230.5 169.5 q35.5 -46.5 100.5 -46.5q66 0 101.5 47t35.5 134q0 86 -36 133t-100 47q-66 0 -101.5 -46.5t-35.5 -133.5q0 -88 35.5 -134.5z" glyph-name="O" horiz-adv-x="663" unicode="O"/><glyph d="M190 50q0 -49 -40 -53l-41 -2q-52 0 -73 18t-21 65v471q0 20 10.5 32t32.5 19q67 23 165 23q135 0 209.5 -58t74.5 -161q0 -98 -61 -156q-31 -29 -78 -44.5t-107 -15.5h-71v-138zM242 325q42 0 64.5 20t22.5 59q0 38 -23.5 58.5t-68.5 20.5q-33 0 -48 -3v-155h53z" glyph-name="P" horiz-adv-x="522" unicode="P"/><glyph d="M205 3.5q-58 21.5 -100 62.5q-43 43 -66.5 104t-23.5 134q0 75 23.5 136t68.5 103q42 40 99.5 61t124.5 21t124.5 -21t100.5 -61q45 -42 68.5 -103t23.5 -136q0 -157 -82.5 -241.5t-234.5 -80.5q-68 0 -126 21.5zM230.5 169.5q35.5 -46.5 100.5 -46.5q66 0 101.5 47 t35.5 134q0 86 -36 133t-100 47q-66 0 -101.5 -46.5t-35.5 -133.5q0 -88 35.5 -134.5zM603 -38q37 -21 37 -24l-2 -14q-7 -44 -33 -67.5t-66 -23.5q-99 0 -195 128l18 -1q77 -5 161 39l6 3z" glyph-name="Q" horiz-adv-x="700" unicode="Q"/><glyph d="M189 196v-146q0 -49 -40 -53l-41 -2q-51 0 -72 18t-21 65v471q0 20 10.5 32t32.5 19q67 23 175 23q134 0 206 -56t72 -159q0 -56 -28.5 -101.5t-79.5 -72.5l71 -92q26 -32 37.5 -50.5t11.5 -33.5q0 -16 -12.5 -31.5t-32.5 -24.5q-19 -10 -45 -10q-39 0 -62 15t-45 54 l-84 135h-53zM252 329q39 0 60.5 19.5t21.5 57.5q0 39 -24.5 58t-77.5 19q-29 0 -44 -4v-150h64z" glyph-name="R" horiz-adv-x="544" unicode="R"/><glyph d="M212 241q-54 18 -86.5 33.5t-55.5 34.5q-55 46 -55 127q0 87 66.5 137t182.5 50q94 0 147 -26t53 -76q0 -27 -13 -46t-33 -19q-16 0 -33 7q-51 17 -102 17q-45 0 -66 -12q-21 -13 -21 -32q0 -14 12 -23.5t40 -18.5l53 -17q102 -33 148.5 -81t46.5 -122q0 -88 -70 -139 t-194 -51q-98 0 -157.5 31t-59.5 84q0 29 15.5 49.5t36.5 20.5q15 0 37 -12q58 -31 122 -31q50 0 69 15q20 15 20 35q0 18 -13 28.5t-48 22.5z" glyph-name="S" horiz-adv-x="511" unicode="S"/><glyph d="M75 466q-45 0 -55 34q-5 22 -5 36q0 36 16.5 54.5t46.5 18.5h395q45 0 55 -34q5 -22 5 -36q0 -36 -16.5 -54.5t-46.5 -18.5h-111v-416q0 -49 -40 -53l-41 -2q-52 0 -73 18t-21 65v388h-109z" glyph-name="T" horiz-adv-x="548" unicode="T"/><glyph d="M555 224q0 -72 -33 -126t-94 -84t-143 -30t-143 30t-94 84t-33 126v336q0 34 17 45t42 11l22 -1q52 0 73 -18t21 -65v-305q0 -47 26 -74.5t69 -27.5t69 27.5t26 74.5v333q0 34 17 45t42 11l22 -1q52 0 73 -18t21 -65v-308z" glyph-name="U" horiz-adv-x="570" unicode="U"/><glyph d="M423.5 21q-9.5 -9 -24.5 -16q-34 -15 -81 -15q-42 0 -72 12.5t-41 34.5q-58 119 -132 339q-32 98 -47 156q-3 11 -3 21q0 26 26 41t63 15q39 0 61.5 -17t33.5 -56q30 -108 99 -332l13 -42h6q54 188 101 389q8 33 32 45.5t62 12.5q42 0 65.5 -18t23.5 -53 q0 -38 -34 -148.5t-81 -226.5q-39 -91 -52 -117q-9 -16 -18.5 -25z" glyph-name="V" horiz-adv-x="624" unicode="V"/><glyph d="M327 419q8 34 29.5 45.5t60.5 11.5q43 0 70.5 -12.5t33.5 -36.5q13 -50 21 -76l18 -68q24 -88 34 -132h5q10 63 29 226l12 106l8 110q3 36 23.5 48t59.5 12q43 0 67 -17.5t24 -52.5q0 -54 -17 -184t-38 -222q-21 -86 -32 -123q-12 -35 -40 -46q-38 -16 -91 -16 q-49 0 -80.5 12.5t-38.5 35.5q-19 60 -60 216q-29 -128 -47 -199q-5 -21 -14 -32.5t-24 -18.5q-37 -14 -82 -14q-49 0 -83.5 12.5t-45.5 35.5q-15 31 -41 135.5t-43 203.5q-14 83 -22 163l-4 37q-1 3 -1 11q0 32 25.5 47.5t64.5 15.5q83 0 93 -72l44 -324l9 -68l6 -38h5 l9 39l25 104z" glyph-name="W" horiz-adv-x="837" unicode="W"/><glyph d="M38 499q-15 20 -15 39q0 21 29 48q32 26 71 26q29 0 51 -14.5t45 -49.5l78 -119l96 142q12 16 22 24.5t22 11.5t26 3q44 0 71 -21.5t27 -54.5q0 -23 -10 -41.5t-44 -61.5l-103 -126l141 -202q16 -22 16 -40q0 -12 -8 -26q-27 -45 -92 -45q-29 0 -50 14.5t-43 49.5 l-81 128l-105 -159q-19 -30 -36 -32q-2 -1 -14 -1q-53 0 -82 21.5t-29 58.5q0 25 9.5 44.5t38.5 56.5l105 135z" glyph-name="X" horiz-adv-x="582" unicode="X"/><glyph d="M388 50q0 -23 -10 -37t-29 -16l-40 -2q-51 0 -71.5 17.5t-20.5 63.5v135q-126 185 -186 313q-7 13 -7 28q0 24 24 40.5t58 16.5q40 0 64.5 -17t45.5 -59l83 -167h6q21 46 45 108l21 53q10 26 15.5 38t14.5 22q22 22 77 22q39 0 61.5 -19.5t22.5 -54.5q0 -7 -5 -29 q-5 -17 -23 -51q-54 -101 -146 -248v-157z" glyph-name="Y" horiz-adv-x="577" unicode="Y"/><glyph d="M289 466h-205q-45 0 -55 34q-5 22 -5 36q0 36 16.5 54.5t46.5 18.5h337q22 0 36.5 -6t23.5 -20q20 -32 20 -70q0 -46 -41 -96l-227 -274h215q45 0 55 -34q5 -22 5 -36q0 -36 -16.5 -54.5t-46.5 -18.5h-358q-22 0 -36 6.5t-23 21.5q-16 25 -16 65q0 43 44 99z" glyph-name="Z" horiz-adv-x="526" unicode="Z"/><glyph d="M46 587q0 35 20.5 55.5t55.5 20.5h118q46 0 53 -30q5 -18 5 -31q0 -65 -55 -65h-39v-542h36q46 0 53 -30q5 -18 5 -31q0 -65 -55 -65h-121q-35 0 -55.5 20.5t-20.5 55.5v642z" glyph-name="bracketleft" horiz-adv-x="303" unicode="["/><glyph d="M349 -32q3 -12 3 -22q0 -26 -23.5 -40.5t-55.5 -14.5q-61 0 -75 54l-187 686q-3 12 -3 22q0 26 23.5 40.5t55.5 14.5q62 0 75 -54z" glyph-name="backslash" horiz-adv-x="360" unicode="\"/><glyph d="M63 -131q-45 0 -53 30q-5 18 -5 31q0 65 55 65h39v542h-36q-45 0 -53 30q-5 18 -5 31q0 65 55 65h121q35 0 55.5 -20.5t20.5 -55.5v-642q0 -35 -20.5 -55.5t-55.5 -20.5h-118z" glyph-name="bracketright" horiz-adv-x="317" unicode="]"/><glyph d="M156 661.5q10 9.5 25 14.5q26 10 62 10q34 0 58 -10t35 -28q19 -23 54 -107t51 -138q4 -8 4 -23q0 -25 -20.5 -37.5t-49.5 -12.5q-31 0 -48.5 13t-30.5 48l-56 157h-4q-19 -48 -50 -164q-6 -22 -16 -34t-27 -16q-13 -4 -37 -4q-34 0 -52.5 15t-18.5 44q0 32 29.5 102 t71.5 144q10 17 20 26.5z" glyph-name="asciicircum" horiz-adv-x="488" unicode="^"/><glyph d="M89 -188q-47 0 -54 31q-5 22 -5 34q0 33 16 51t44 18h389q44 0 54 -31q6 -17 6 -34q0 -34 -16 -51.5t-45 -17.5h-389z" glyph-name="underscore" horiz-adv-x="569" unicode="_"/><glyph d="M49 622q-32 21 -32 31q-1 1 -1 10q0 38 19 61t52 23q22 0 38.5 -8t41.5 -30l83 -70q25 -19 25 -44q0 -13 -4 -20q-8 -21 -23.5 -33t-33.5 -12q-30 0 -64 24z" glyph-name="grave" horiz-adv-x="302" unicode="`"/><glyph d="M417 454.5q62 -46.5 62 -136.5v-224q0 -23 -11.5 -39.5t-37.5 -31.5q-64 -39 -183 -39q-111 0 -171.5 41.5t-60.5 121.5q0 69 41 106t127 46l131 14v7q0 54 -99 54q-43 0 -99 -14q-20 -5 -29 -5q-20 0 -31 16.5t-11 40.5q0 26 11.5 41t39.5 27q52 21 143 21 q116 0 178 -46.5zM286.5 111.5q19.5 3.5 28.5 9.5v80l-72 -6q-64 -4 -64 -42q0 -45 68 -45q20 0 39.5 3.5z" glyph-name="a" horiz-adv-x="494" unicode="a"/><glyph d="M15 605q0 34 15.5 45.5t39.5 11.5l22 -1q51 0 72 -17.5t21 -62.5v-98q47 18 97 18q48 0 91 -17t76 -49q71 -71 71 -192q0 -126 -74 -194q-35 -32 -85.5 -48.5t-111.5 -16.5q-115 0 -190 54q-44 32 -44 80v487zM320.5 150.5q25.5 32.5 25.5 92.5t-25 92.5t-71 32.5 q-19 0 -33.5 -3.5t-32.5 -12.5v-218q25 -16 65 -16q46 0 71.5 32.5z" glyph-name="b" horiz-adv-x="535" unicode="b"/><glyph d="M221.5 333q-34.5 -34 -34.5 -90q0 -58 33 -91t89 -33q31 0 53 7q22 5 31 5q21 0 34 -17.5t13 -42.5q0 -41 -39 -63.5t-108 -22.5q-60 0 -112 18.5t-89 52.5q-37 33 -57 80.5t-20 103.5q0 63 20.5 113.5t59.5 83.5q35 32 83 48t105 16q70 0 110 -25t40 -68 q0 -23 -10.5 -38.5t-32.5 -15.5q-9 0 -20 3q-27 10 -60 10q-54 0 -88.5 -34z" glyph-name="c" horiz-adv-x="455" unicode="c"/><glyph d="M85 433q70 68 191 68q43 0 70 -12v116q0 34 15.5 45.5t39.5 11.5l22 -1q51 0 72 -17.5t21 -62.5v-474q0 -40 -28 -64t-91 -44q-46 -15 -106 -15q-129 0 -202.5 69t-73.5 190q0 122 70 190zM215.5 336.5q-28.5 -31.5 -28.5 -93.5t27 -93.5t78 -31.5q36 0 55 18v220 q-19 12 -48 12q-55 0 -83.5 -31.5z" glyph-name="d" horiz-adv-x="531" unicode="d"/><glyph d="M270 -18q-119 11 -186.5 79.5t-67.5 177.5q0 27 1 32q9 112 76 171t169 59q58 0 108 -20t84 -56q53 -59 53 -138q0 -16 -1 -19q-3 -33 -23 -51t-55 -18h-258q9 -37 53.5 -65t95.5 -28q42 0 76 10q11 4 29 4q23 0 33 -16t10 -38q0 -39 -32 -60t-89 -24l-40 -2zM206 358 q-24 -19 -33 -54l173 -2q1 30 -23 52.5t-62 22.5q-31 0 -55 -19z" glyph-name="e" horiz-adv-x="518" unicode="e"/><glyph d="M15 486q0 93 59.5 143t162.5 50q78 0 111 -19.5t33 -66.5q0 -53 -46 -53l-20 2q-21 3 -48 3q-46 0 -68.5 -16t-22.5 -49v-32h122q47 0 54 -31q5 -20 5 -33q0 -66 -57 -66h-115v-271q0 -34 -17 -45.5t-39 -10.5l-20 1q-51 0 -72.5 18t-21.5 62v414z" glyph-name="f" horiz-adv-x="366" unicode="f"/><glyph d="M456 449q23 -16 33 -33t10 -42v-350q0 -97 -68.5 -151t-186.5 -54q-195 0 -195 104q0 24 10 40t30 16q13 0 30 -7q55 -20 102 -20q118 0 118 76q0 7 -12 7q-4 0 -37 -5q-17 -4 -51 -4q-46 0 -86.5 14.5t-69.5 41.5q-68 63 -68 180q0 114 69 176.5t190 62.5q108 0 182 -52 zM336 212v101q0 46 -26 52q-12 3 -28 3q-48 0 -73 -27.5t-25 -78.5q0 -53 22.5 -81t64.5 -28q23 0 34 4q31 7 31 55z" glyph-name="g" horiz-adv-x="514" unicode="g"/><glyph d="M493 47q0 -34 -17 -45.5t-39 -10.5l-20 1q-51 0 -72.5 18t-21.5 62v222q0 74 -71 74q-38 0 -67 -17v-304q0 -34 -17 -45.5t-39 -10.5l-20 1q-51 0 -72.5 18t-21.5 62v534q0 34 15 45t39 11l22 -1q51 0 72.5 -18t21.5 -62v-98q19 7 46 12.5t52 5.5q102 0 156 -50.5 t54 -146.5v-257z" glyph-name="h" horiz-adv-x="508" unicode="h"/><glyph d="M41 685.5q26 25.5 67 25.5t67 -25.5t26 -64.5t-26 -64.5t-67 -25.5t-67 25.5t-26 64.5t26 64.5zM193 47q0 -34 -15.5 -45t-38.5 -10h-22q-51 0 -72.5 18t-21.5 62v361q0 34 15 45t39 11l22 -1q51 0 72.5 -18t21.5 -62v-361z" glyph-name="i" horiz-adv-x="216" unicode="i"/><glyph d="M101 685.5q26 25.5 67 25.5t67 -25.5t26 -64.5t-26 -64.5t-67 -25.5t-67 25.5t-26 64.5t26 64.5zM17 -100q0 16 11 24l13 8q42 28 42 93v408q0 34 15 45t39 11l22 -1q51 0 72.5 -18t21.5 -62v-399q0 -84 -38.5 -135t-104.5 -51q-30 0 -53 14t-34 39q-6 13 -6 24z" glyph-name="j" horiz-adv-x="276" unicode="j"/><glyph d="M461 115q23 -23 23 -45q0 -9 -4 -20q-20 -59 -85 -59q-32 0 -56 15t-55 53l-99 124v-136q0 -34 -15.5 -45t-38.5 -10h-22q-51 0 -72.5 18t-21.5 62v533q0 34 15.5 45.5t38.5 11.5l22 -1q51 0 72.5 -18t21.5 -62v-264l146 150q23 24 48 24l15 -2q36 -8 57 -28.5t21 -48.5 q0 -25 -12.5 -43.5t-43.5 -44.5l-30 -26l-58 -50z" glyph-name="k" horiz-adv-x="503" unicode="k"/><glyph d="M185 47q0 -34 -15.5 -45t-38.5 -10h-22q-51 0 -72.5 18t-21.5 62v534q0 34 15 45t39 11l22 -1q51 0 72.5 -18t21.5 -62v-534z" glyph-name="l" horiz-adv-x="200" unicode="l"/><glyph d="M397 455q36 24 73.5 35t84.5 11q40 0 76.5 -10.5t63.5 -30.5q62 -47 62 -144v-269q0 -34 -17 -45.5t-39 -10.5l-20 1q-51 0 -72.5 18t-21.5 62v239q0 57 -63 57q-11 0 -27 -6.5t-27 -13.5q1 -1 1 -7v-294q0 -34 -17 -45.5t-39 -10.5l-20 1q-51 0 -72.5 18t-21.5 62v239 q0 27 -16.5 42t-46.5 15q-28 0 -53 -16v-305q0 -34 -17 -45.5t-39 -10.5l-20 1q-51 0 -72.5 18t-21.5 62v302q0 24 10 40.5t33 32.5q34 24 85.5 39t104.5 15q91 0 149 -46z" glyph-name="m" horiz-adv-x="772" unicode="m"/><glyph d="M323 308q0 30 -17 45t-48 15q-44 0 -73 -20v-301q0 -34 -17 -45.5t-39 -10.5l-20 1q-51 0 -72.5 18t-21.5 62v300q0 25 10 42t33 33q37 25 89 39.5t111 14.5q113 0 174 -49.5t61 -137.5v-267q0 -34 -17 -45.5t-39 -10.5l-20 1q-51 0 -72.5 18t-21.5 62v236z" glyph-name="n" horiz-adv-x="508" unicode="n"/><glyph d="M468.5 52.5q-70.5 -68.5 -191.5 -68.5q-119 0 -189 70q-73 68 -73 189q0 58 19 106.5t54 82.5q72 69 189 69q57 0 106 -18t84 -52t53.5 -82.5t18.5 -105.5q0 -122 -70.5 -190.5zM212.5 150q23.5 -33 65.5 -33t64.5 33t22.5 93t-23 92.5t-65 32.5t-65 -32.5t-23 -92.5 t23.5 -93z" glyph-name="o" horiz-adv-x="554" unicode="o"/><glyph d="M438 438q79 -69 79 -196q0 -123 -66 -190t-186 -67q-47 0 -80 13v-120q0 -58 -55 -56h-22q-51 0 -72 17.5t-21 62.5v480q0 25 10 42t33 33q31 21 77.5 32.5t102.5 11.5q131 0 200 -63zM343 242q0 126 -99 126q-31 0 -60 -15v-220q31 -14 56 -14q103 0 103 123z" glyph-name="p" horiz-adv-x="532" unicode="p"/><glyph d="M82.5 51.5q-67.5 67.5 -67.5 188.5q0 123 77 194q36 33 87.5 50t114.5 17q51 0 100.5 -13.5t79.5 -34.5q22 -16 32.5 -34.5t10.5 -42.5v-498q0 -58 -55 -56h-22q-51 0 -72 17.5t-21 62.5v95q-30 -13 -81 -13q-116 0 -183.5 67.5zM348 358q-21 10 -49 10q-54 0 -83 -32 t-29 -94q0 -63 26.5 -93.5t80.5 -30.5q34 0 54 14v226z" glyph-name="q" horiz-adv-x="532" unicode="q"/><glyph d="M185 47q0 -34 -17 -45.5t-39 -10.5l-20 1q-51 0 -72.5 18t-21.5 62v300q0 40 29 65t94 46q59 17 114 17q104 0 104 -79q0 -12 -1 -14q-4 -35 -54 -40q-32 -3 -64.5 -10t-51.5 -15v-295z" glyph-name="r" horiz-adv-x="356" unicode="r"/><glyph d="M379.5 25q-57.5 -42 -167.5 -42q-91 0 -142.5 26.5t-51.5 74.5q0 24 10.5 40.5t30.5 16.5q17 0 31 -7q60 -23 115 -23q30 0 47 9t17 24q0 14 -12 22t-40 13l-30 6q-90 18 -131 55t-41 103q0 37 16 67t45 50q61 42 159 42q83 0 130.5 -24t47.5 -68q0 -24 -10.5 -41 t-30.5 -17q-9 0 -18 3l-30 9q-39 10 -74 10q-37 0 -52 -7q-17 -8 -17 -24q0 -11 10 -18t38 -13l31 -7q93 -21 135 -59t42 -101q0 -78 -57.5 -120z" glyph-name="s" horiz-adv-x="452" unicode="s"/><glyph d="M15 398q0 20 13 33t32 13l42 1v92q0 23 9.5 37t27.5 16q18 3 38 3q51 0 72 -18t21 -63v-64h89q47 0 54 -31q5 -20 5 -33q0 -66 -57 -66h-91v-151q0 -48 63 -48q14 0 16 1l18 1q27 0 37 -12.5t10 -37.5q0 -86 -129 -86q-91 0 -137 42t-46 128v163h-41q-19 0 -32.5 13.5 t-13.5 32.5v34z" glyph-name="t" horiz-adv-x="418" unicode="t"/><glyph d="M15 433q0 34 17 45.5t40 10.5l19 -1q51 0 72.5 -18t21.5 -62v-215q0 -76 78 -76q35 0 60 12v304q0 34 17 45.5t40 10.5l19 -1q51 0 72.5 -18t21.5 -62v-304q0 -43 -31 -68t-94 -40q-49 -12 -106 -12q-119 0 -183 52.5t-64 156.5v240z" glyph-name="u" horiz-adv-x="508" unicode="u"/><glyph d="M368 14q-10 -10 -25 -16q-30 -10 -73 -10q-40 0 -68 10.5t-39 31.5q-16 30 -46 110.5t-59 170.5q-17 52 -33 110q-3 11 -3 21q0 26 24 40t58 14q37 0 58.5 -15.5t32.5 -53.5l39 -153q11 -45 21 -81l15 -57h5q48 195 70 303q6 23 16.5 35t27.5 16q23 6 44 6q83 0 83 -67 q0 -30 -22 -102q-21 -72 -51.5 -152t-56.5 -133q-8 -18 -18 -28z" glyph-name="v" horiz-adv-x="531" unicode="v"/><glyph d="M328 39q-15 -51 -102 -51q-42 0 -71.5 11.5t-39.5 32.5q-18 37 -46.5 159.5t-47.5 230.5q-1 2 -1 15q0 29 24 44t60 15q38 0 59 -16.5t26 -52.5q11 -86 24 -170l5 -36l7 -48l4 -27h4q9 45 22 94l6 22l21 85l13 54q6 21 16 33t27 18q27 8 54 8q79 0 92 -45l43 -162l16 -63 l10 -44h5q25 175 37 290q5 44 40 55q28 5 42 5q81 0 81 -67q0 -30 -16 -111.5t-41 -177.5l-11 -50q-10 -41 -23.5 -63t-32.5 -28q-36 -11 -75 -11q-58 0 -85 30t-38 75l-10 43q-21 68 -34 137q-10 -51 -37 -145l-20 -65z" glyph-name="w" horiz-adv-x="773" unicode="w"/><glyph d="M40 377q-18 21 -18 42q0 12 6 25q25 49 77 49q28 0 46 -12.5t45 -48.5l64 -84l84 114q23 29 51 29q10 0 12 -1q37 -7 58 -25t21 -44q0 -22 -10 -38q-12 -20 -48 -65l-66 -74l109 -143q17 -26 17 -41q0 -11 -6 -25q-12 -22 -32.5 -34t-46.5 -12q-32 1 -52.5 16t-51.5 57 l-54 77l-80 -115q-23 -32 -27 -32h-6q-2 -1 -10 -1q-48 0 -76 20t-28 53q0 22 9.5 39t41.5 54l80 93z" glyph-name="x" horiz-adv-x="508" unicode="x"/><glyph d="M72.5 255.5q-26.5 80.5 -47.5 164.5q-3 11 -3 21q0 26 23.5 40.5t58.5 14.5q39 0 60 -15.5t32 -53.5l79 -275h4q20 56 42 139.5t34 147.5q6 34 27.5 45.5t58.5 11.5q81 0 81 -67q0 -48 -23.5 -131t-61.5 -173q-41 -97 -84 -167.5t-84 -103.5q-37 -31 -90 -31 q-30 0 -52.5 13.5t-34.5 37.5q-6 12 -6 22q0 20 25 42q47 38 91 93q-16 5 -36 24q-21 21 -43 69q-24 51 -50.5 131.5z" glyph-name="y" horiz-adv-x="537" unicode="y"/><glyph d="M86 0q-36 0 -53.5 20.5t-17.5 55.5q0 36 33 76l172 202h-142q-47 0 -54 31q-5 22 -5 34q0 66 57 66h279q36 0 53.5 -20.5t17.5 -55.5t-33 -76l-168 -202h154q47 0 54 -31q5 -22 5 -34q0 -66 -57 -66h-295z" glyph-name="z" horiz-adv-x="453" unicode="z"/><glyph d="M253 156v-112q0 -53 34 -68q12 -6 12 -8q1 -1 1 -7v-13q0 -84 -79 -84q-58 0 -91.5 36.5t-33.5 104.5v105q0 59 -29 82l-17 13q-23 17 -24 32l-2 29q0 21 1.5 30t9.5 17q7 8 31 26q30 24 30 83v105q0 68 33.5 104.5t91.5 36.5q79 0 79 -84v-12l-2 -15q-24 -6 -34.5 -21.5 t-10.5 -47.5v-112q0 -84 -54 -110q54 -25 54 -110z" glyph-name="braceleft" horiz-adv-x="327" unicode="{"/><glyph d="M216 -87q0 -49 -33 -52l-34 -2q-47 0 -65.5 15t-18.5 55v700q0 49 33 52l34 2q46 0 65 -15.5t19 -55.5v-699z" glyph-name="bar" horiz-adv-x="281" unicode="|"/><glyph d="M71 376v112q0 53 -34 69q-10 4 -11.5 6t-1.5 4.5v4.5v12q0 84 79 84q58 0 91.5 -36.5t33.5 -104.5v-105q0 -59 29 -82l18 -13q22 -16 23 -32l2 -29q0 -21 -1.5 -30t-9.5 -17q-7 -8 -31 -26q-30 -24 -30 -83v-105q0 -68 -33.5 -104.5t-91.5 -36.5q-79 0 -79 84v13l2 14 q24 6 34.5 21.5t10.5 47.5v112q0 85 54 110q-54 26 -54 110z" glyph-name="braceright" horiz-adv-x="327" unicode="}"/><glyph d="M235.5 333q-34.5 -34 -34.5 -90q0 -58 33 -91t89 -33q31 0 53 7q22 5 31 5q21 0 34 -17.5t13 -42.5q0 -36 -30.5 -58t-87.5 -27v-26q0 -48 -33 -52l-34 -2q-45 0 -64 15.5t-19 55.5v29q-75 28 -116 89t-41 145q0 90 40.5 152t116.5 90v46q0 48 33 52l34 2q45 0 64 -15.5 t19 -55.5v-13q53 -7 82 -30.5t29 -59.5q0 -23 -10.5 -38.5t-32.5 -15.5q-9 0 -20 3q-27 10 -60 10q-54 0 -88.5 -34z" glyph-name="cent" horiz-adv-x="492" unicode="¢"/><glyph d="M57 363.5q10 7.5 23 7.5h24q-3 20 -3 38q0 101 62.5 157.5t168.5 56.5q68 0 103.5 -23t35.5 -68q0 -54 -41 -54q-12 0 -27 4q-28 5 -43 5q-92 0 -92 -84v-16l2 -16h89q45 0 54 -30q5 -22 5 -33q0 -36 -14 -52t-43 -16h-80v-13q0 -54 -30 -95h179q47 0 54 -31q5 -22 5 -34 q0 -67 -58 -67h-331q-28 0 -46.5 22t-18.5 57v8q0 6 1 7q42 19 61 50t19 85v11h-21q-29 0 -43 16t-14 52q0 11 5 33q4 15 14 22.5z" glyph-name="sterling" horiz-adv-x="504" unicode="£"/><glyph d="M58 430q23 57 65 99q43 43 103 66.5t129 23.5q70 0 129 -23t104 -67q43 -42 66.5 -99t23.5 -122t-23.5 -121.5t-66.5 -98.5q-45 -44 -104 -67t-129 -23q-69 0 -129 23.5t-103 66.5q-42 42 -65 98.5t-23 121.5t23 122zM243.5 501q-48.5 -28 -74.5 -78q-27 -51 -27 -115 t26 -113.5t74 -76.5q47 -28 113 -28q64 0 112 27.5t75 77.5q26 50 26 113q0 97 -56 159q-59 62 -157 62q-63 0 -111.5 -28zM347.5 356q-18.5 -17 -18.5 -44q0 -30 18 -47.5t46 -17.5q9 0 19 2t13 2q4 1 18 1q29 0 29 -40q0 -24 -28.5 -40.5t-72.5 -16.5q-70 0 -113 43 t-43 115q0 73 52 115q23 18 51.5 28t56.5 10q41 0 66.5 -16.5t25.5 -41.5q0 -8 -1 -10q-3 -28 -37 -28l-20 2q-2 1 -15 1q-28 0 -46.5 -17z" glyph-name="copyright" horiz-adv-x="713" unicode="©"/><glyph d="M274.5 625q40.5 -31 40.5 -88v-146q0 -14 -7 -23.5t-25 -21.5q-38 -26 -118 -26q-72 0 -111.5 27t-39.5 78q0 88 109 100l85 9v4q0 35 -64 35q-33 0 -48 -4q-28 -5 -35 -5q-28 0 -28 34q0 17 7.5 27t25.5 17q37 14 93 14q75 0 115.5 -31zM209 409v52l-47 -4 q-21 -2 -31.5 -8.5t-10.5 -19.5q0 -28 45 -28q31 0 44 8z" glyph-name="ordfeminine" horiz-adv-x="355" unicode="ª"/><glyph d="M56.5 475q19.5 48 55.5 84q37 36 87.5 56t109.5 20q117 0 197 -76q36 -36 56 -84.5t20 -102.5t-20 -102t-56 -84q-80 -76 -197 -76q-59 0 -109.5 20t-87.5 56q-36 35 -55.5 83t-19.5 103t19.5 103zM176.5 238.5q49.5 -50.5 132.5 -50.5q82 0 131 50.5t49 133.5 q0 40 -12.5 74.5t-35.5 59.5q-50 53 -132 53t-133 -53q-24 -25 -36.5 -59.5t-12.5 -74.5q0 -83 49.5 -133.5zM290 336v-28q0 -49 -19 -50q-3 -1 -19 -1q-19 0 -27.5 7t-8.5 25v187q0 28 86 28q53 0 81.5 -22.5t28.5 -62.5q0 -46 -43 -68q12 -18 28 -37q12 -24 12 -39 q0 -8 -5 -13q-10 -7 -25 -7q-16 0 -26.5 7t-20.5 24l-32 50h-10zM305 390q33 0 33 29q0 28 -34 28h-8l-6 -1v-56h15z" glyph-name="registered" horiz-adv-x="619" unicode="®"/><glyph d="M319.5 365.5q-45.5 -44.5 -124.5 -44.5q-78 0 -124 45t-46 123q0 77 46 122t124 45q76 0 123 -45t47 -122q0 -79 -45.5 -123.5zM153.5 428.5q15.5 -21.5 42.5 -21.5q26 0 41 21.5t15 60.5q0 38 -15 59.5t-42 21.5t-42 -21t-15 -60t15.5 -60.5z" glyph-name="ordmasculine" horiz-adv-x="396" unicode="º"/><glyph d="M218 712q-38 14 -41 35q-2 14 -2 21q0 33 20 52.5t53 19.5q16 0 31 -5t39 -19l102 -52q35 -20 35 -22v-12q0 -35 -17 -56t-44 -21q-30 0 -57 13zM181 555q24 61 134 61q55 0 91 -15.5t47 -44.5q34 -97 81 -263l65 -232q3 -12 3 -22q0 -26 -22 -37.5t-63 -11.5 q-45 0 -64.5 14t-31.5 53l-18 69h-181l-16 -62l-6 -24q-11 -41 -43 -47q-15 -3 -34 -3q-48 0 -74 17.5t-26 48.5q0 19 4 28q5 14 9 33q13 50 47 154l32 95l32 93zM314 459l-31 -93q-19 -53 -32 -105h124q-33 126 -55 198h-6z" glyph-name="Agrave" horiz-adv-x="627" unicode="À"/><glyph d="M341 833q26 15 45 15q10 0 20 -3q56 -15 56 -63q0 -27 -15.5 -44.5t-52.5 -32.5l-105 -41q-22 -9 -36 -9t-28.5 9t-22.5 23q-9 14 -9 28q0 32 31 48zM181 555q24 61 134 61q55 0 91 -15.5t47 -44.5q34 -97 81 -263l65 -232q3 -12 3 -22q0 -26 -22 -37.5t-63 -11.5 q-45 0 -64.5 14t-31.5 53l-18 69h-181l-16 -62l-6 -24q-11 -41 -43 -47q-15 -3 -34 -3q-48 0 -74 17.5t-26 48.5q0 19 4 28q5 14 9 33q13 50 47 154l32 95l32 93zM314 459l-31 -93q-19 -53 -32 -105h124q-33 126 -55 198h-6z" glyph-name="Aacute" horiz-adv-x="627" unicode="Á"/><glyph d="M324 734l-72 -51q-26 -18 -44 -18q-13 0 -25.5 7t-20.5 19q-10 13 -10 32q0 21 9.5 36t36.5 33l36 26q52 36 88 36q27 0 45.5 -8.5t45.5 -32.5l52 -46q26 -23 26 -46q0 -8 -3 -17q-13 -39 -54 -39q-20 0 -39 10.5t-48 37.5zM181 555q24 61 134 61q55 0 91 -15.5t47 -44.5 q34 -97 81 -263l65 -232q3 -12 3 -22q0 -26 -22 -37.5t-63 -11.5q-45 0 -64.5 14t-31.5 53l-18 69h-181l-16 -62l-6 -24q-11 -41 -43 -47q-15 -3 -34 -3q-48 0 -74 17.5t-26 48.5q0 19 4 28q5 14 9 33q13 50 47 154l32 95l32 93zM314 459l-31 -93q-19 -53 -32 -105h124 q-33 126 -55 198h-6z" glyph-name="Acircumflex" horiz-adv-x="627" unicode="Â"/><glyph d="M372 814q14 0 23 6l36 21q7 3 15 3q10 0 17 -4q19 -10 30.5 -28.5t11.5 -42.5q0 -42 -26 -64.5t-72 -22.5q-30 0 -59 8l-40 12q-25 9 -42 9q-14 0 -23 -6q-23 -15 -35 -20q-7 -4 -16 -4q-10 0 -17 4q-19 10 -30.5 28.5t-11.5 42.5q0 39 27.5 63t70.5 24q12 0 32 -3 q18 -3 59 -15q41 -11 50 -11zM181 555q24 61 134 61q55 0 91 -15.5t47 -44.5q34 -97 81 -263l65 -232q3 -12 3 -22q0 -26 -22 -37.5t-63 -11.5q-45 0 -64.5 14t-31.5 53l-18 69h-181l-16 -62l-6 -24q-11 -41 -43 -47q-15 -3 -34 -3q-48 0 -74 17.5t-26 48.5q0 19 4 28 q5 14 9 33q13 50 47 154l32 95l32 93zM314 459l-31 -93q-19 -53 -32 -105h124q-33 126 -55 198h-6z" glyph-name="Atilde" horiz-adv-x="627" unicode="Ã"/><glyph d="M142.5 816q25.5 25 61.5 25q39 0 64.5 -24.5t25.5 -61.5t-25.5 -61.5t-64.5 -24.5q-36 0 -61.5 25t-25.5 61t25.5 61zM365.5 817q24.5 24 64.5 24q37 0 62.5 -25.5t25.5 -60.5q0 -36 -25 -61t-63 -25q-39 0 -64 24.5t-25 61.5q0 38 24.5 62zM181 555q24 61 134 61 q55 0 91 -15.5t47 -44.5q34 -97 81 -263l65 -232q3 -12 3 -22q0 -26 -22 -37.5t-63 -11.5q-45 0 -64.5 14t-31.5 53l-18 69h-181l-16 -62l-6 -24q-11 -41 -43 -47q-15 -3 -34 -3q-48 0 -74 17.5t-26 48.5q0 19 4 28q5 14 9 33q13 50 47 154l32 95l32 93zM314 459l-31 -93 q-19 -53 -32 -105h124q-33 126 -55 198h-6z" glyph-name="Adieresis" horiz-adv-x="627" unicode="Ä"/><glyph d="M225.5 832.5q36.5 30.5 95.5 30.5q62 0 99.5 -30.5t37.5 -78.5t-37.5 -78t-99.5 -30q-59 0 -95.5 30t-36.5 78t36.5 78.5zM299.5 731.5q9.5 -8.5 22.5 -8.5q15 0 24.5 8.5t9.5 22.5t-9.5 22.5t-24.5 8.5q-13 0 -22.5 -8.5t-9.5 -22.5t9.5 -22.5zM181 555q24 61 134 61 q55 0 91 -15.5t47 -44.5q34 -97 81 -263l65 -232q3 -12 3 -22q0 -26 -22 -37.5t-63 -11.5q-45 0 -64.5 14t-31.5 53l-18 69h-181l-16 -62l-6 -24q-11 -41 -43 -47q-15 -3 -34 -3q-48 0 -74 17.5t-26 48.5q0 19 4 28q5 14 9 33q13 50 47 154l32 95l32 93zM314 459l-31 -93 q-19 -53 -32 -105h124q-33 126 -55 198h-6z" glyph-name="Aring" horiz-adv-x="627" unicode="Å"/><glyph d="M774 606q46 0 54 -32q5 -22 5 -35q0 -70 -60 -70h-211v-93h184q46 0 54 -32q5 -20 5 -34q0 -70 -59 -70h-184v-105h216q46 0 54 -32q5 -22 5 -35q0 -71 -60 -71h-292q-43 0 -68 25t-25 68v36h-153l-42 -91q-9 -19 -20 -29t-28 -13q-15 -3 -34 -3q-44 0 -67 17.5t-23 48.5 q0 22 6 39.5t28 62.5l13 27l41 86q4 7 10 21l81 162q23 45 52 99q9 18 19 27.5t25 15.5q34 15 78 15q25 0 51 -5t44 -14q23 14 51 14h250zM386 459l-86 -198h92v198h-6z" glyph-name="AE" horiz-adv-x="875" unicode="Æ"/><glyph d="M256 437.5q-41 -46.5 -41 -133.5q0 -86 44.5 -133.5t123.5 -47.5q46 0 84 16q21 8 32 8q22 0 33 -18t11 -49q0 -35 -29.5 -59t-86.5 -33q8 -11 12 -32t4 -43q0 -54 -33 -87t-90 -33q-42 0 -67.5 21.5t-25.5 59.5q0 3 16.5 18t29.5 21q24 12 24 40q0 17 -8 35 q-119 18 -186.5 100.5t-67.5 215.5q0 149 92 238q42 41 98.5 62t122.5 21q90 0 141.5 -29t51.5 -78q0 -25 -13.5 -45t-31.5 -20q-12 0 -30 9q-43 22 -92 22q-77 0 -118 -46.5z" glyph-name="Ccedilla" horiz-adv-x="571" unicode="Ç"/><glyph d="M159 712q-38 14 -41 35q-2 14 -2 21q0 33 20 52.5t53 19.5q16 0 31 -5t39 -19l102 -52q35 -20 35 -22v-12q0 -35 -17 -56t-44 -21q-30 0 -57 13zM58 513q0 43 25 68t68 25h289q46 0 54 -32q5 -22 5 -35q0 -70 -60 -70h-211v-93h184q46 0 54 -32q5 -20 5 -34 q0 -70 -59 -70h-184v-105h216q46 0 54 -32q5 -22 5 -35q0 -71 -60 -71h-292q-43 0 -68 25t-25 68v423z" glyph-name="Egrave" horiz-adv-x="541" unicode="È"/><glyph d="M298 833q25 15 45 15q9 0 20 -3q56 -15 56 -63q0 -27 -15.5 -44.5t-52.5 -32.5l-105 -41q-23 -9 -36 -9q-14 0 -28.5 9t-22.5 23q-9 14 -9 28q0 32 31 48zM58 513q0 43 25 68t68 25h289q46 0 54 -32q5 -22 5 -35q0 -70 -60 -70h-211v-93h184q46 0 54 -32q5 -20 5 -34 q0 -70 -59 -70h-184v-105h216q46 0 54 -32q5 -22 5 -35q0 -71 -60 -71h-292q-43 0 -68 25t-25 68v423z" glyph-name="Eacute" horiz-adv-x="541" unicode="É"/><glyph d="M272 734l-72 -51q-25 -18 -44 -18q-13 0 -25.5 7t-20.5 19q-10 13 -10 32q0 21 9.5 36t36.5 33l36 26q52 36 88 36q27 0 45.5 -8.5t45.5 -32.5l52 -46q26 -23 26 -46q0 -8 -3 -17q-14 -39 -54 -39q-20 0 -39 10.5t-48 37.5zM58 513q0 43 25 68t68 25h289q46 0 54 -32 q5 -22 5 -35q0 -70 -60 -70h-211v-93h184q46 0 54 -32q5 -20 5 -34q0 -70 -59 -70h-184v-105h216q46 0 54 -32q5 -22 5 -35q0 -71 -60 -71h-292q-43 0 -68 25t-25 68v423z" glyph-name="Ecircumflex" horiz-adv-x="541" unicode="Ê"/><glyph d="M95.5 818q25.5 25 61.5 25q39 0 64.5 -24.5t25.5 -61.5t-25.5 -61.5t-64.5 -24.5q-36 0 -61.5 25t-25.5 61t25.5 61zM318.5 819q24.5 24 64.5 24q37 0 62.5 -25.5t25.5 -60.5q0 -36 -25 -61t-63 -25q-39 0 -64 24.5t-25 61.5q0 38 24.5 62zM58 513q0 43 25 68t68 25h289 q46 0 54 -32q5 -22 5 -35q0 -70 -60 -70h-211v-93h184q46 0 54 -32q5 -20 5 -34q0 -70 -59 -70h-184v-105h216q46 0 54 -32q5 -22 5 -35q0 -71 -60 -71h-292q-43 0 -68 25t-25 68v423z" glyph-name="Edieresis" horiz-adv-x="541" unicode="Ë"/><glyph d="M36 712q-38 14 -41 35q-2 14 -2 21q0 33 20 52.5t53 19.5q16 0 31 -5t39 -19l102 -52q35 -20 35 -22v-12q0 -35 -17 -56t-44 -21q-30 0 -57 13zM240 50q0 -49 -40 -53l-41 -2q-52 0 -73 18t-21 65v482q0 34 17 45t42 11l22 -1q52 0 73 -18t21 -65v-482z" glyph-name="Igrave" horiz-adv-x="305" unicode="Ì"/><glyph d="M190 833q25 15 45 15q10 0 20 -3q56 -15 56 -63q0 -27 -15.5 -44.5t-52.5 -32.5l-105 -41q-22 -9 -36 -9t-28.5 9t-22.5 23q-9 14 -9 28q0 32 31 48zM240 50q0 -49 -40 -53l-41 -2q-52 0 -73 18t-21 65v482q0 34 17 45t42 11l22 -1q52 0 73 -18t21 -65v-482z" glyph-name="Iacute" horiz-adv-x="305" unicode="Í"/><glyph d="M153 734l-72 -51q-26 -18 -44 -18q-13 0 -25.5 7t-20.5 19q-10 13 -10 32q0 21 9.5 36t36.5 33l36 26q53 36 88 36q27 0 45.5 -8.5t45.5 -32.5l52 -46q26 -23 26 -46q0 -8 -3 -17q-13 -39 -54 -39q-20 0 -39 10.5t-48 37.5zM240 50q0 -49 -40 -53l-41 -2q-52 0 -73 18 t-21 65v482q0 34 17 45t42 11l22 -1q52 0 73 -18t21 -65v-482z" glyph-name="Icircumflex" horiz-adv-x="305" unicode="Î"/><glyph d="M-28 816q25 25 62 25q39 0 64.5 -24.5t25.5 -61.5t-25.5 -61.5t-64.5 -24.5q-36 0 -61.5 25t-25.5 61t25 61zM195.5 817q24.5 24 64.5 24q37 0 62.5 -25.5t25.5 -60.5q0 -36 -25 -61t-63 -25q-39 0 -64 24.5t-25 61.5q0 38 24.5 62zM240 50q0 -49 -40 -53l-41 -2 q-52 0 -73 18t-21 65v482q0 34 17 45t42 11l22 -1q52 0 73 -18t21 -65v-482z" glyph-name="Idieresis" horiz-adv-x="305" unicode="Ï"/><glyph d="M79 238q-46 0 -54 32q-5 22 -5 35q0 70 60 70h19v174q0 20 10.5 32t32.5 19q72 23 177 23q165 0 255.5 -82t90.5 -237q0 -152 -89.5 -236t-246.5 -84q-49 0 -97.5 6.5t-77.5 18.5q-55 21 -55 73v156h-20zM273 130q32 -5 57 -5q74 0 114.5 44.5t40.5 131.5q0 86 -41 133.5 t-113 47.5q-37 0 -58 -4v-103h54q46 0 54 -32q5 -22 5 -35q0 -70 -60 -70h-53v-108z" glyph-name="Eth" horiz-adv-x="700" unicode="Ð"/><glyph d="M388 805q14 0 23 6l36 21q7 3 15 3q10 0 17 -4q19 -10 30.5 -28.5t11.5 -42.5q0 -42 -26 -64.5t-72 -22.5q-30 0 -59 8l-40 12q-25 9 -42 9q-14 0 -23 -6q-23 -15 -35 -20q-7 -4 -16 -4q-10 0 -17 4q-19 10 -30.5 28.5t-11.5 42.5q0 39 27.5 63t70.5 24q12 0 32 -3 q18 -3 59 -15q41 -11 50 -11zM607 59q0 -39 -24 -53t-80 -14q-48 0 -77 14.5t-47 49.5l-99 202q-14 26 -53 122l-6 -1q5 -88 5 -220v-109q0 -23 -10 -37t-29 -16l-39 -2q-49 0 -69.5 17.5t-20.5 62.5v464q0 22 6 36t21 23q32 17 78 17q48 0 77.5 -14.5t46.5 -49.5l100 -202 q14 -26 53 -122l5 1q-6 86 -6 216v116q0 23 10 37t29 16l39 2q49 0 69.5 -18t20.5 -62v-476z" glyph-name="Ntilde" horiz-adv-x="665" unicode="Ñ"/><glyph d="M248 712q-38 14 -41 35q-2 14 -2 21q0 33 20 52.5t53 19.5q16 0 31 -5t39 -19l102 -52q35 -20 35 -22v-12q0 -35 -17 -56t-44 -21q-30 0 -57 13zM58.5 440q23.5 61 68.5 103q42 40 99.5 61t124.5 21t125 -21t100 -61q45 -42 68.5 -103t23.5 -136q0 -74 -23.5 -135 t-66.5 -104q-42 -41 -100 -62t-127 -21q-68 0 -126 21.5t-100 62.5q-43 43 -66.5 104t-23.5 134q0 75 23.5 136zM250.5 169.5q35.5 -46.5 100.5 -46.5q66 0 101.5 47t35.5 134q0 86 -36 133t-100 47q-66 0 -101.5 -46.5t-35.5 -133.5q0 -88 35.5 -134.5z" glyph-name="Ograve" horiz-adv-x="703" unicode="Ò"/><glyph d="M376 833q26 15 45 15q10 0 20 -3q56 -15 56 -63q0 -27 -15.5 -44.5t-52.5 -32.5l-105 -41q-22 -9 -36 -9q-15 0 -28.5 8.5t-22.5 23.5q-9 14 -9 28q0 32 31 48zM58.5 440q23.5 61 68.5 103q42 40 99.5 61t124.5 21t125 -21t100 -61q45 -42 68.5 -103t23.5 -136 q0 -74 -23.5 -135t-66.5 -104q-42 -41 -100 -62t-127 -21q-68 0 -126 21.5t-100 62.5q-43 43 -66.5 104t-23.5 134q0 75 23.5 136zM250.5 169.5q35.5 -46.5 100.5 -46.5q66 0 101.5 47t35.5 134q0 86 -36 133t-100 47q-66 0 -101.5 -46.5t-35.5 -133.5q0 -88 35.5 -134.5z" glyph-name="Oacute" horiz-adv-x="703" unicode="Ó"/><glyph d="M356 734l-72 -51q-25 -18 -44 -18q-13 0 -25.5 7t-20.5 19q-10 13 -10 32q0 21 9.5 36t36.5 33l36 26q52 36 88 36q27 0 45.5 -8.5t45.5 -32.5l52 -46q26 -23 26 -46q0 -8 -3 -17q-13 -39 -54 -39q-20 0 -39 10.5t-48 37.5zM58.5 440q23.5 61 68.5 103q42 40 99.5 61 t124.5 21t125 -21t100 -61q45 -42 68.5 -103t23.5 -136q0 -74 -23.5 -135t-66.5 -104q-42 -41 -100 -62t-127 -21q-68 0 -126 21.5t-100 62.5q-43 43 -66.5 104t-23.5 134q0 75 23.5 136zM250.5 169.5q35.5 -46.5 100.5 -46.5q66 0 101.5 47t35.5 134q0 86 -36 133t-100 47 q-66 0 -101.5 -46.5t-35.5 -133.5q0 -88 35.5 -134.5z" glyph-name="Ocircumflex" horiz-adv-x="703" unicode="Ô"/><glyph d="M407 814q14 0 23 6l36 21q7 3 15 3q10 0 17 -4q19 -10 30.5 -28.5t11.5 -42.5q0 -42 -26 -64.5t-72 -22.5q-30 0 -59 8l-40 12q-25 9 -42 9q-14 0 -23 -6q-23 -15 -35 -20q-7 -4 -16 -4q-10 0 -17 4q-19 10 -30.5 28.5t-11.5 42.5q0 39 27.5 63t70.5 24q12 0 32 -3 q18 -3 59 -15q41 -11 50 -11zM58.5 440q23.5 61 68.5 103q42 40 99.5 61t124.5 21t125 -21t100 -61q45 -42 68.5 -103t23.5 -136q0 -74 -23.5 -135t-66.5 -104q-42 -41 -100 -62t-127 -21q-68 0 -126 21.5t-100 62.5q-43 43 -66.5 104t-23.5 134q0 75 23.5 136zM250.5 169.5 q35.5 -46.5 100.5 -46.5q66 0 101.5 47t35.5 134q0 86 -36 133t-100 47q-66 0 -101.5 -46.5t-35.5 -133.5q0 -88 35.5 -134.5z" glyph-name="Otilde" horiz-adv-x="703" unicode="Õ"/><glyph d="M174.5 816q25.5 25 61.5 25q39 0 64.5 -24.5t25.5 -61.5t-25.5 -61.5t-64.5 -24.5q-36 0 -61.5 25t-25.5 61t25.5 61zM397.5 817q24.5 24 64.5 24q37 0 62.5 -25.5t25.5 -60.5q0 -36 -25 -61t-63 -25q-39 0 -64 24.5t-25 61.5q0 38 24.5 62zM58.5 440q23.5 61 68.5 103 q42 40 99.5 61t124.5 21t125 -21t100 -61q45 -42 68.5 -103t23.5 -136q0 -74 -23.5 -135t-66.5 -104q-42 -41 -100 -62t-127 -21q-68 0 -126 21.5t-100 62.5q-43 43 -66.5 104t-23.5 134q0 75 23.5 136zM250.5 169.5q35.5 -46.5 100.5 -46.5q66 0 101.5 47t35.5 134 q0 86 -36 133t-100 47q-66 0 -101.5 -46.5t-35.5 -133.5q0 -88 35.5 -134.5z" glyph-name="Odieresis" horiz-adv-x="703" unicode="Ö"/><glyph d="M58.5 440q23.5 61 68.5 103q42 40 99.5 61t124.5 21q62 0 114 -18l21 35q20 32 46 32q7 0 16 -3q23 -8 36 -22t13 -30q0 -27 -28 -70q99 -91 99 -245q0 -74 -23.5 -135t-66.5 -104q-42 -41 -100 -62t-127 -21q-63 0 -117 18l-20 -34q-20 -32 -46 -32q-7 0 -16 3 q-23 7 -36 22t-13 33q0 21 27 69q-95 89 -95 243q0 75 23.5 136zM226 208l163 271q-28 5 -37 5q-66 0 -104 -47.5t-38 -132.5q0 -60 16 -96zM455.5 170.5q37.5 47.5 37.5 133.5q0 58 -16 94l-164 -271q12 -4 38 -4q67 0 104.5 47.5z" glyph-name="Oslash" horiz-adv-x="703" unicode="Ø"/><glyph d="M216 712q-38 14 -41 35q-2 14 -2 21q0 33 20 52.5t53 19.5q16 0 31 -5t39 -19l102 -52q35 -20 35 -22v-12q0 -35 -17 -56t-44 -21q-30 0 -57 13zM602 224q0 -72 -33 -126t-94 -84t-143 -30t-143 30t-94 84t-33 126v336q0 34 17 45t42 11l22 -1q52 0 73 -18t21 -65v-305 q0 -47 26 -74.5t69 -27.5t69 27.5t26 74.5v333q0 34 17 45t42 11l22 -1q52 0 73 -18t21 -65v-308z" glyph-name="Ugrave" horiz-adv-x="664" unicode="Ù"/><glyph d="M359 833q26 15 45 15q9 0 20 -3q56 -15 56 -63q0 -27 -15.5 -44.5t-52.5 -32.5l-105 -41q-23 -9 -36 -9q-14 0 -28.5 9t-22.5 23q-9 14 -9 28q0 32 31 48zM602 224q0 -72 -33 -126t-94 -84t-143 -30t-143 30t-94 84t-33 126v336q0 34 17 45t42 11l22 -1q52 0 73 -18 t21 -65v-305q0 -47 26 -74.5t69 -27.5t69 27.5t26 74.5v333q0 34 17 45t42 11l22 -1q52 0 73 -18t21 -65v-308z" glyph-name="Uacute" horiz-adv-x="664" unicode="Ú"/><glyph d="M337 734l-72 -51q-25 -18 -44 -18q-13 0 -25.5 7t-20.5 19q-10 13 -10 32q0 21 9.5 36t36.5 33l36 26q53 36 88 36q27 0 45.5 -8.5t45.5 -32.5l52 -46q26 -23 26 -46q0 -8 -3 -17q-13 -39 -54 -39q-20 0 -39 10.5t-48 37.5zM602 224q0 -72 -33 -126t-94 -84t-143 -30 t-143 30t-94 84t-33 126v336q0 34 17 45t42 11l22 -1q52 0 73 -18t21 -65v-305q0 -47 26 -74.5t69 -27.5t69 27.5t26 74.5v333q0 34 17 45t42 11l22 -1q52 0 73 -18t21 -65v-308z" glyph-name="Ucircumflex" horiz-adv-x="664" unicode="Û"/><glyph d="M154.5 816q25.5 25 61.5 25q39 0 64.5 -24.5t25.5 -61.5t-25.5 -61.5t-64.5 -24.5q-36 0 -61.5 25t-25.5 61t25.5 61zM377.5 817q24.5 24 64.5 24q37 0 62.5 -25.5t25.5 -60.5q0 -36 -25 -61t-63 -25q-39 0 -64 24.5t-25 61.5q0 38 24.5 62zM602 224q0 -72 -33 -126 t-94 -84t-143 -30t-143 30t-94 84t-33 126v336q0 34 17 45t42 11l22 -1q52 0 73 -18t21 -65v-305q0 -47 26 -74.5t69 -27.5t69 27.5t26 74.5v333q0 34 17 45t42 11l22 -1q52 0 73 -18t21 -65v-308z" glyph-name="Udieresis" horiz-adv-x="664" unicode="Ü"/><glyph d="M325 833q26 15 45 15q10 0 20 -3q56 -15 56 -63q0 -27 -15.5 -44.5t-52.5 -32.5l-105 -41q-22 -9 -36 -9q-15 0 -28.5 8.5t-22.5 23.5q-9 14 -9 28q0 32 31 48zM383 50q0 -23 -10 -37t-29 -16l-40 -2q-51 0 -71.5 17.5t-20.5 63.5v135q-126 185 -186 313q-7 13 -7 28 q0 24 24 40.5t58 16.5q40 0 64.5 -17t45.5 -59l83 -167h6q21 46 45 108l21 53q10 26 15.5 38t14.5 22q22 22 77 22q39 0 61.5 -19.5t22.5 -54.5q0 -7 -5 -29q-5 -17 -23 -51q-54 -101 -146 -248v-157z" glyph-name="Yacute" horiz-adv-x="574" unicode="Ý"/><glyph d="M235 523h71q118 0 182 -57t64 -159q0 -98 -61 -156q-31 -29 -78 -44.5t-107 -15.5h-71v-44q0 -49 -40 -53l-41 -2q-52 0 -73 18t-21 65v493q0 49 40 53l41 2q52 0 73 -18t21 -65v-17zM234 386v-158h53q42 0 64.5 20t22.5 59t-22.5 59t-64.5 20h-53z" glyph-name="Thorn" horiz-adv-x="597" unicode="Þ"/><glyph d="M54 436q0 101 67.5 158t182.5 57q54 0 100.5 -14.5t80.5 -41.5q71 -60 71 -157q0 -26 -8 -42t-27 -24l-44 -18q-28 -10 -28 -34q0 -19 27 -31q63 -28 90.5 -62.5t27.5 -87.5q0 -39 -15 -69t-42 -49t-61 -28.5t-70 -9.5q-63 0 -98 20t-35 56q0 23 10 39.5t30 16.5 q8 0 26 -5q15 -4 35 -4q21 0 33.5 7.5t12.5 21.5q0 12 -9 21.5t-31 21.5q-57 30 -81 63t-24 81q0 84 111 121q-3 33 -24.5 51.5t-55.5 18.5q-37 0 -59.5 -23t-22.5 -64v-379q0 -34 -17 -45.5t-39 -10.5l-20 1q-51 0 -72.5 18t-21.5 62v364z" glyph-name="germandbls" horiz-adv-x="624" unicode="ß"/><glyph d="M164 622q-32 21 -32 31q-1 1 -1 10q0 38 19 61t52 23q22 0 38.5 -8t41.5 -30l83 -70q25 -19 25 -44q0 -13 -4 -20q-8 -21 -23.5 -33t-33.5 -12q-29 0 -64 24zM430 454.5q62 -46.5 62 -136.5v-224q0 -23 -11.5 -39.5t-37.5 -31.5q-64 -39 -183 -39q-111 0 -171.5 41.5 t-60.5 121.5q0 69 41 106t127 46l131 14v7q0 54 -99 54q-43 0 -99 -14q-20 -5 -29 -5q-20 0 -31 16.5t-11 40.5q0 26 11.5 41t39.5 27q53 21 143 21q116 0 178 -46.5zM299.5 111.5q19.5 3.5 28.5 9.5v80l-72 -6q-64 -4 -64 -42q0 -45 68 -45q20 0 39.5 3.5z" glyph-name="agrave" horiz-adv-x="544" unicode="à"/><glyph d="M260 724q25 18 49 18q13 0 15 -1q30 -7 46.5 -24t16.5 -41q0 -26 -13.5 -43t-46.5 -35l-98 -52q-24 -12 -39 -12q-29 0 -53 33q-11 17 -11 32q0 28 26 46zM430 454.5q62 -46.5 62 -136.5v-224q0 -23 -11.5 -39.5t-37.5 -31.5q-64 -39 -183 -39q-111 0 -171.5 41.5 t-60.5 121.5q0 69 41 106t127 46l131 14v7q0 54 -99 54q-43 0 -99 -14q-20 -5 -29 -5q-20 0 -31 16.5t-11 40.5q0 26 11.5 41t39.5 27q53 21 143 21q116 0 178 -46.5zM299.5 111.5q19.5 3.5 28.5 9.5v80l-72 -6q-64 -4 -64 -42q0 -45 68 -45q20 0 39.5 3.5z" glyph-name="aacute" horiz-adv-x="544" unicode="á"/><glyph d="M270 622q-44 -38 -53 -47l-11 -11q-22 -22 -45 -22q-9 0 -18 3q-49 16 -49 61q0 20 11 36t37 35l49 35q24 17 43.5 24.5t39.5 7.5q23 0 36.5 -5t33.5 -19l32 -28l43 -38q26 -25 28 -33q1 -1 1 -9q0 -31 -17 -50.5t-47 -19.5q-20 0 -34 8q-18 10 -46 40zM430 454.5 q62 -46.5 62 -136.5v-224q0 -23 -11.5 -39.5t-37.5 -31.5q-64 -39 -183 -39q-111 0 -171.5 41.5t-60.5 121.5q0 69 41 106t127 46l131 14v7q0 54 -99 54q-43 0 -99 -14q-20 -5 -29 -5q-20 0 -31 16.5t-11 40.5q0 26 11.5 41t39.5 27q53 21 143 21q116 0 178 -46.5z M299.5 111.5q19.5 3.5 28.5 9.5v80l-72 -6q-64 -4 -64 -42q0 -45 68 -45q20 0 39.5 3.5z" glyph-name="acircumflex" horiz-adv-x="544" unicode="â"/><glyph d="M324 686q14 0 23 6l36 21q8 3 15 3q10 0 17 -4q19 -10 30.5 -28.5t11.5 -42.5q0 -42 -26 -64.5t-72 -22.5q-30 0 -59 8l-40 12q-25 9 -42 9q-14 0 -23 -6q-23 -15 -35 -20q-7 -4 -16 -4q-10 0 -17 4q-19 10 -30.5 28.5t-11.5 42.5q0 39 27.5 63t70.5 24q13 0 32 -3 q18 -3 59 -15q41 -11 50 -11zM430 454.5q62 -46.5 62 -136.5v-224q0 -23 -11.5 -39.5t-37.5 -31.5q-64 -39 -183 -39q-111 0 -171.5 41.5t-60.5 121.5q0 69 41 106t127 46l131 14v7q0 54 -99 54q-43 0 -99 -14q-20 -5 -29 -5q-20 0 -31 16.5t-11 40.5q0 26 11.5 41t39.5 27 q53 21 143 21q116 0 178 -46.5zM299.5 111.5q19.5 3.5 28.5 9.5v80l-72 -6q-64 -4 -64 -42q0 -45 68 -45q20 0 39.5 3.5z" glyph-name="atilde" horiz-adv-x="544" unicode="ã"/><glyph d="M100.5 698q25.5 25 61.5 25q39 0 64.5 -24.5t25.5 -61.5t-25.5 -61.5t-64.5 -24.5q-36 0 -61.5 25t-25.5 61t25.5 61zM323.5 699q24.5 24 64.5 24q37 0 62.5 -25.5t25.5 -60.5q0 -36 -25 -61t-63 -25q-39 0 -64 24.5t-25 61.5q0 38 24.5 62zM430 454.5 q62 -46.5 62 -136.5v-224q0 -23 -11.5 -39.5t-37.5 -31.5q-64 -39 -183 -39q-111 0 -171.5 41.5t-60.5 121.5q0 69 41 106t127 46l131 14v7q0 54 -99 54q-43 0 -99 -14q-20 -5 -29 -5q-20 0 -31 16.5t-11 40.5q0 26 11.5 41t39.5 27q53 21 143 21q116 0 178 -46.5z M299.5 111.5q19.5 3.5 28.5 9.5v80l-72 -6q-64 -4 -64 -42q0 -45 68 -45q20 0 39.5 3.5z" glyph-name="adieresis" horiz-adv-x="544" unicode="ä"/><glyph d="M172.5 721.5q36.5 31.5 95.5 31.5q63 0 100 -30.5t37 -81.5q0 -49 -37.5 -80t-99.5 -31q-59 0 -95.5 31t-36.5 80t36.5 80.5zM246.5 616.5q9.5 -9.5 22.5 -9.5q15 0 24.5 9t9.5 25t-9.5 25t-24.5 9q-13 0 -22.5 -9.5t-9.5 -24.5t9.5 -24.5zM430 454.5q62 -46.5 62 -136.5 v-224q0 -23 -11.5 -39.5t-37.5 -31.5q-64 -39 -183 -39q-111 0 -171.5 41.5t-60.5 121.5q0 69 41 106t127 46l131 14v7q0 54 -99 54q-43 0 -99 -14q-20 -5 -29 -5q-20 0 -31 16.5t-11 40.5q0 26 11.5 41t39.5 27q53 21 143 21q116 0 178 -46.5zM299.5 111.5 q19.5 3.5 28.5 9.5v80l-72 -6q-64 -4 -64 -42q0 -45 68 -45q20 0 39.5 3.5z" glyph-name="aring" horiz-adv-x="544" unicode="å"/><glyph d="M432 31q-68 -47 -176 -47t-168 42.5t-60 120.5q0 68 40.5 104.5t127.5 47.5l114 14v7q0 54 -87 54q-40 0 -94 -14q-20 -5 -29 -5q-20 0 -31 16.5t-11 40.5q0 26 11.5 41t39.5 27q55 21 138 21q107 0 166 -53q65 53 151 53q52 0 96 -15.5t76 -44.5q32 -28 49 -67t17 -85 q0 -64 -72 -75l-247 -37q11 -32 43 -49t80 -17q47 0 98 17q27 8 35 8q19 0 30.5 -17t11.5 -39q0 -38 -30 -60.5t-84 -29.5q-40 -6 -75 -6q-95 0 -160 47zM498 352.5q-25 -24.5 -27 -63.5l171 28q-3 25 -24.5 42.5t-53.5 17.5q-41 0 -66 -24.5zM287.5 112q16.5 4 23.5 9v80 l-55 -6q-64 -7 -64 -42q0 -45 64 -45q15 0 31.5 4z" glyph-name="ae" horiz-adv-x="833" unicode="æ"/><glyph d="M84.5 79q-53.5 66 -53.5 161q0 63 20.5 113.5t59.5 83.5q35 32 83 48t105 16q70 0 110 -25t40 -68q0 -23 -10.5 -38t-33.5 -15q-17 0 -26 4q-29 8 -53 8q-54 0 -88.5 -34t-34.5 -90q0 -58 33 -91t89 -33q31 0 53 7q22 5 31 5q21 0 34 -17.5t13 -42.5q0 -31 -23.5 -52 t-66.5 -29q8 -11 12 -32.5t4 -44.5q0 -54 -32.5 -86t-88.5 -32q-42 0 -67.5 21.5t-25.5 57.5q0 4 16 19t29 21q27 13 27 42q0 17 -9 37q-93 20 -146.5 86z" glyph-name="ccedilla" horiz-adv-x="494" unicode="ç"/><glyph d="M166 622q-32 21 -32 31q-1 1 -1 10q0 38 19 61t52 23q22 0 38.5 -8t41.5 -30l83 -70q25 -19 25 -44q0 -13 -4 -20q-8 -21 -23.5 -33t-33.5 -12q-29 0 -64 24zM112 50q-39 34 -60 84.5t-21 115.5q0 125 78 192q32 29 77 44t95 15q52 0 96 -15.5t76 -44.5q32 -28 49 -67 t17 -85q0 -64 -72 -75l-247 -37q11 -32 43 -49t80 -17q47 0 98 17q27 8 35 8q19 0 30.5 -17t11.5 -39q0 -38 -30 -60.5t-84 -29.5q-40 -6 -75 -6q-122 0 -197 66zM215 352.5q-25 -24.5 -27 -63.5l171 28q-3 25 -24.5 42.5t-53.5 17.5q-41 0 -66 -24.5z" glyph-name="egrave" unicode="è"/><glyph d="M271 724q25 18 49 18q13 0 15 -1q30 -7 46.5 -24t16.5 -41q0 -26 -13.5 -43t-46.5 -35l-98 -52q-24 -12 -39 -12q-29 0 -53 33q-11 17 -11 32q0 28 26 46zM112 50q-39 34 -60 84.5t-21 115.5q0 125 78 192q32 29 77 44t95 15q52 0 96 -15.5t76 -44.5q32 -28 49 -67 t17 -85q0 -64 -72 -75l-247 -37q11 -32 43 -49t80 -17q47 0 98 17q27 8 35 8q19 0 30.5 -17t11.5 -39q0 -38 -30 -60.5t-84 -29.5q-40 -6 -75 -6q-122 0 -197 66zM215 352.5q-25 -24.5 -27 -63.5l171 28q-3 25 -24.5 42.5t-53.5 17.5q-41 0 -66 -24.5z" glyph-name="eacute" unicode="é"/><glyph d="M268 622q-44 -38 -53 -47l-11 -11q-22 -22 -45 -22q-9 0 -18 3q-49 16 -49 61q0 20 11 36t37 35l49 35q24 17 43.5 24.5t39.5 7.5q23 0 36.5 -5t33.5 -19l32 -28l43 -38q26 -25 28 -33q1 -1 1 -9q0 -31 -17 -50.5t-47 -19.5q-20 0 -34 8q-18 10 -46 40zM112 50 q-39 34 -60 84.5t-21 115.5q0 125 78 192q32 29 77 44t95 15q52 0 96 -15.5t76 -44.5q32 -28 49 -67t17 -85q0 -64 -72 -75l-247 -37q11 -32 43 -49t80 -17q47 0 98 17q27 8 35 8q19 0 30.5 -17t11.5 -39q0 -38 -30 -60.5t-84 -29.5q-40 -6 -75 -6q-122 0 -197 66z M215 352.5q-25 -24.5 -27 -63.5l171 28q-3 25 -24.5 42.5t-53.5 17.5q-41 0 -66 -24.5z" glyph-name="ecircumflex" unicode="ê"/><glyph d="M97.5 698q25.5 25 61.5 25q39 0 64.5 -24.5t25.5 -61.5t-25.5 -61.5t-64.5 -24.5q-36 0 -61.5 25t-25.5 61t25.5 61zM320.5 699q24.5 24 64.5 24q37 0 62.5 -25.5t25.5 -60.5q0 -36 -25 -61t-63 -25q-39 0 -64 24.5t-25 61.5q0 38 24.5 62zM112 50q-39 34 -60 84.5 t-21 115.5q0 125 78 192q32 29 77 44t95 15q52 0 96 -15.5t76 -44.5q32 -28 49 -67t17 -85q0 -64 -72 -75l-247 -37q11 -32 43 -49t80 -17q47 0 98 17q27 8 35 8q19 0 30.5 -17t11.5 -39q0 -38 -30 -60.5t-84 -29.5q-40 -6 -75 -6q-122 0 -197 66zM215 352.5 q-25 -24.5 -27 -63.5l171 28q-3 25 -24.5 42.5t-53.5 17.5q-41 0 -66 -24.5z" glyph-name="edieresis" unicode="ë"/><glyph d="M9 622q-32 21 -32 31q-1 1 -1 10q0 38 19 61t52 23q22 0 38.5 -8t41.5 -30l83 -70q25 -19 25 -44q0 -13 -4 -20q-8 -21 -23.5 -33t-33.5 -12q-30 0 -64 24zM226 47q0 -34 -15.5 -45t-38.5 -10h-22q-51 0 -72.5 18t-21.5 62v361q0 34 15 45t39 11l22 -1q51 0 72.5 -18 t21.5 -62v-361z" glyph-name="igrave" horiz-adv-x="282" unicode="ì"/><glyph d="M174 724q26 18 49 18q13 0 15 -1q30 -7 46.5 -24t16.5 -41q0 -26 -13.5 -43t-46.5 -35l-98 -52q-24 -12 -39 -12q-29 0 -53 33q-11 17 -11 32q0 28 26 46zM226 47q0 -34 -15.5 -45t-38.5 -10h-22q-51 0 -72.5 18t-21.5 62v361q0 34 15 45t39 11l22 -1q51 0 72.5 -18 t21.5 -62v-361z" glyph-name="iacute" horiz-adv-x="282" unicode="í"/><glyph d="M140 622q-44 -38 -53 -47l-11 -11q-22 -22 -45 -22q-9 0 -18 3q-49 16 -49 61q0 20 11 36t37 35l49 35q24 17 43.5 24.5t39.5 7.5q23 0 36.5 -5t33.5 -19l32 -28l43 -38q26 -25 28 -33q1 -1 1 -9q0 -31 -17 -50.5t-47 -19.5q-20 0 -34 8q-18 10 -46 40zM226 47 q0 -34 -15.5 -45t-38.5 -10h-22q-51 0 -72.5 18t-21.5 62v361q0 34 15 45t39 11l22 -1q51 0 72.5 -18t21.5 -62v-361z" glyph-name="icircumflex" horiz-adv-x="282" unicode="î"/><glyph d="M-36 698q25 25 62 25q39 0 64.5 -24.5t25.5 -61.5t-25.5 -61.5t-64.5 -24.5q-36 0 -61.5 25t-25.5 61t25 61zM187.5 699q24.5 24 64.5 24q37 0 62.5 -25.5t25.5 -60.5q0 -36 -25 -61t-63 -25q-39 0 -64 24.5t-25 61.5q0 38 24.5 62zM226 47q0 -34 -15.5 -45t-38.5 -10 h-22q-51 0 -72.5 18t-21.5 62v361q0 34 15 45t39 11l22 -1q51 0 72.5 -18t21.5 -62v-361z" glyph-name="idieresis" horiz-adv-x="282" unicode="ï"/><glyph d="M486.5 56.5q-66.5 -72.5 -193.5 -72.5q-60 0 -109 17t-83 49q-70 64 -70 176q0 109 73 173q32 29 73 43.5t88 14.5q53 0 78 -13q-14 36 -30 63l-97 -28q-9 -4 -25 -4q-22 0 -32.5 16.5t-10.5 40.5q0 37 33 46l50 15q-17 17 -20 19q-3 4 -6.5 14.5t-3.5 20.5q0 15 6 22 q29 42 85 42q29 0 55.5 -13.5t54.5 -41.5l65 20q9 4 25 4q23 0 37 -19t14 -44q0 -40 -36 -52l-30 -11q34 -59 55 -136.5t21 -157.5q0 -131 -66.5 -203.5zM229.5 302q-24.5 -28 -24.5 -76q0 -52 22.5 -80t66.5 -28q41 0 62.5 28.5t21.5 81.5q0 44 -7 73q-29 29 -73 29 t-68.5 -28z" glyph-name="eth" horiz-adv-x="585" unicode="ð"/><glyph d="M346 686q14 0 23 6l36 21q8 3 15 3q10 0 17 -4q19 -10 30.5 -28.5t11.5 -42.5q0 -42 -26 -64.5t-72 -22.5q-30 0 -59 8l-40 12q-25 9 -42 9q-14 0 -23 -6q-23 -15 -35 -20q-7 -4 -16 -4q-10 0 -17 4q-19 10 -30.5 28.5t-11.5 42.5q0 39 27.5 63t70.5 24q12 0 32 -3 q18 -3 59 -15q41 -11 50 -11zM360 308q0 30 -17 45t-48 15q-44 0 -73 -20v-301q0 -34 -17 -45.5t-39 -10.5l-20 1q-51 0 -72.5 18t-21.5 62v300q0 25 10 42t33 33q37 25 89 39.5t111 14.5q113 0 174 -49.5t61 -137.5v-267q0 -34 -17 -45.5t-39 -10.5l-20 1q-51 0 -72.5 18 t-21.5 62v236z" glyph-name="ntilde" horiz-adv-x="583" unicode="ñ"/><glyph d="M191 622q-32 21 -32 31q-1 1 -1 10q0 38 19 61t52 23q22 0 38.5 -8t41.5 -30l83 -70q25 -19 25 -44q0 -13 -4 -20q-8 -21 -23.5 -33t-33.5 -12q-29 0 -64 24zM484.5 52.5q-70.5 -68.5 -191.5 -68.5q-119 0 -189 70q-73 68 -73 189q0 58 19 106.5t54 82.5q72 69 189 69 q57 0 106 -18t84 -52t53.5 -82.5t18.5 -105.5q0 -122 -70.5 -190.5zM228.5 150q23.5 -33 65.5 -33t64.5 33t22.5 93t-23 92.5t-65 32.5t-65 -32.5t-23 -92.5t23.5 -93z" glyph-name="ograve" horiz-adv-x="586" unicode="ò"/><glyph d="M296 724q26 18 49 18q13 0 15 -1q30 -7 46.5 -24t16.5 -41q0 -26 -13.5 -43t-46.5 -35l-98 -52q-24 -12 -39 -12q-29 0 -53 33q-11 17 -11 32q0 28 26 46zM484.5 52.5q-70.5 -68.5 -191.5 -68.5q-119 0 -189 70q-73 68 -73 189q0 58 19 106.5t54 82.5q72 69 189 69 q57 0 106 -18t84 -52t53.5 -82.5t18.5 -105.5q0 -122 -70.5 -190.5zM228.5 150q23.5 -33 65.5 -33t64.5 33t22.5 93t-23 92.5t-65 32.5t-65 -32.5t-23 -92.5t23.5 -93z" glyph-name="oacute" horiz-adv-x="586" unicode="ó"/><glyph d="M290 622q-44 -38 -53 -47l-11 -11q-22 -22 -45 -22q-9 0 -18 3q-49 16 -49 61q0 20 11 36t37 35l49 35q24 17 43.5 24.5t39.5 7.5q23 0 36.5 -5t33.5 -19l32 -28l43 -38q26 -25 28 -33q1 -1 1 -9q0 -31 -17 -50.5t-47 -19.5q-20 0 -34 8q-18 10 -46 40zM484.5 52.5 q-70.5 -68.5 -191.5 -68.5q-119 0 -189 70q-73 68 -73 189q0 58 19 106.5t54 82.5q72 69 189 69q57 0 106 -18t84 -52t53.5 -82.5t18.5 -105.5q0 -122 -70.5 -190.5zM228.5 150q23.5 -33 65.5 -33t64.5 33t22.5 93t-23 92.5t-65 32.5t-65 -32.5t-23 -92.5t23.5 -93z" glyph-name="ocircumflex" horiz-adv-x="586" unicode="ô"/><glyph d="M348 686q14 0 23 6l36 21q7 3 15 3q10 0 17 -4q19 -10 30.5 -28.5t11.5 -42.5q0 -42 -26 -64.5t-72 -22.5q-30 0 -59 8l-40 12q-25 9 -42 9q-14 0 -23 -6q-23 -15 -35 -20q-7 -4 -16 -4q-10 0 -17 4q-19 10 -30.5 28.5t-11.5 42.5q0 39 27.5 63t70.5 24q12 0 32 -3 q18 -3 59 -15q41 -11 50 -11zM484.5 52.5q-70.5 -68.5 -191.5 -68.5q-119 0 -189 70q-73 68 -73 189q0 58 19 106.5t54 82.5q72 69 189 69q57 0 106 -18t84 -52t53.5 -82.5t18.5 -105.5q0 -122 -70.5 -190.5zM228.5 150q23.5 -33 65.5 -33t64.5 33t22.5 93t-23 92.5 t-65 32.5t-65 -32.5t-23 -92.5t23.5 -93z" glyph-name="otilde" horiz-adv-x="586" unicode="õ"/><glyph d="M117.5 698q25.5 25 61.5 25q39 0 64.5 -24.5t25.5 -61.5t-25.5 -61.5t-64.5 -24.5q-36 0 -61.5 25t-25.5 61t25.5 61zM340.5 699q24.5 24 64.5 24q37 0 62.5 -25.5t25.5 -60.5q0 -36 -25 -61t-63 -25q-39 0 -64 24.5t-25 61.5q0 38 24.5 62zM484.5 52.5 q-70.5 -68.5 -191.5 -68.5q-119 0 -189 70q-73 68 -73 189q0 58 19 106.5t54 82.5q72 69 189 69q57 0 106 -18t84 -52t53.5 -82.5t18.5 -105.5q0 -122 -70.5 -190.5zM228.5 150q23.5 -33 65.5 -33t64.5 33t22.5 93t-23 92.5t-65 32.5t-65 -32.5t-23 -92.5t23.5 -93z" glyph-name="odieresis" horiz-adv-x="586" unicode="ö"/><glyph d="M484.5 52.5q-70.5 -68.5 -191.5 -68.5q-56 0 -109 18l-19 -28q-21 -32 -41 -32q-9 0 -16.5 5t-17.5 14q-15 10 -15 26l9 18l12 23l13 19q-38 33 -58 83t-20 113q0 58 19 106.5t54 82.5q72 69 189 69q55 0 110 -20l21 31q13 20 23.5 27.5t21.5 3.5q11 -3 20 -9 q24 -16 24 -35q0 -11 -7 -21l-29 -42q37 -34 57.5 -84t20.5 -109q0 -122 -70.5 -190.5zM202 182l124 183q-22 5 -33 5q-46 0 -73 -33.5t-27 -93.5q0 -35 9 -61zM366.5 149q26.5 34 26.5 94q0 35 -9 60l-123 -183q17 -5 33 -5q46 0 72.5 34z" glyph-name="oslash" horiz-adv-x="586" unicode="ø"/><glyph d="M188 622q-32 21 -32 31q-1 1 -1 10q0 38 19 61t52 23q22 0 38.5 -8t41.5 -30l83 -70q25 -19 25 -44q0 -13 -4 -20q-8 -21 -23.5 -33t-33.5 -12q-30 0 -64 24zM52 433q0 34 17 45.5t40 10.5l19 -1q51 0 72.5 -18t21.5 -62v-215q0 -76 78 -76q35 0 60 12v304q0 34 17 45.5 t40 10.5l19 -1q51 0 72.5 -18t21.5 -62v-304q0 -43 -31 -68t-94 -40q-49 -12 -106 -12q-119 0 -183 52.5t-64 156.5v240z" glyph-name="ugrave" horiz-adv-x="582" unicode="ù"/><glyph d="M295 724q26 18 49 18q13 0 15 -1q30 -7 46.5 -24t16.5 -41q0 -26 -13.5 -43t-46.5 -35l-98 -52q-24 -12 -39 -12q-29 0 -53 33q-11 17 -11 32q0 28 26 46zM52 433q0 34 17 45.5t40 10.5l19 -1q51 0 72.5 -18t21.5 -62v-215q0 -76 78 -76q35 0 60 12v304q0 34 17 45.5 t40 10.5l19 -1q51 0 72.5 -18t21.5 -62v-304q0 -43 -31 -68t-94 -40q-49 -12 -106 -12q-119 0 -183 52.5t-64 156.5v240z" glyph-name="uacute" horiz-adv-x="582" unicode="ú"/><glyph d="M288 622q-44 -38 -53 -47l-11 -11q-22 -22 -45 -22q-9 0 -18 3q-49 16 -49 61q0 20 11 36t37 35l49 35q24 17 43.5 24.5t39.5 7.5q23 0 36.5 -5t33.5 -19l32 -28l43 -38q26 -25 28 -33q1 -1 1 -9q0 -31 -17 -50.5t-47 -19.5q-20 0 -34 8q-18 10 -46 40zM52 433 q0 34 17 45.5t40 10.5l19 -1q51 0 72.5 -18t21.5 -62v-215q0 -76 78 -76q35 0 60 12v304q0 34 17 45.5t40 10.5l19 -1q51 0 72.5 -18t21.5 -62v-304q0 -43 -31 -68t-94 -40q-49 -12 -106 -12q-119 0 -183 52.5t-64 156.5v240z" glyph-name="ucircumflex" horiz-adv-x="582" unicode="û"/><glyph d="M113.5 698q25.5 25 61.5 25q39 0 64.5 -24.5t25.5 -61.5t-25.5 -61.5t-64.5 -24.5q-36 0 -61.5 25t-25.5 61t25.5 61zM336.5 699q24.5 24 64.5 24q37 0 62.5 -25.5t25.5 -60.5q0 -36 -25 -61t-63 -25q-39 0 -64 24.5t-25 61.5q0 38 24.5 62zM52 433q0 34 17 45.5t40 10.5 l19 -1q51 0 72.5 -18t21.5 -62v-215q0 -76 78 -76q35 0 60 12v304q0 34 17 45.5t40 10.5l19 -1q51 0 72.5 -18t21.5 -62v-304q0 -43 -31 -68t-94 -40q-49 -12 -106 -12q-119 0 -183 52.5t-64 156.5v240z" glyph-name="udieresis" horiz-adv-x="582" unicode="ü"/><glyph d="M286 724q25 18 49 18q13 0 15 -1q30 -7 46.5 -24t16.5 -41q0 -26 -13.5 -43t-46.5 -35l-98 -52q-24 -12 -39 -12q-29 0 -53 33q-11 17 -11 32q0 28 26 46zM77.5 255.5q-26.5 80.5 -47.5 164.5q-3 11 -3 21q0 26 23.5 40.5t58.5 14.5q39 0 60 -15.5t32 -53.5l79 -275h4 q19 55 41.5 139.5t34.5 147.5q6 34 27.5 45.5t58.5 11.5q81 0 81 -67q0 -48 -23.5 -131t-61.5 -173q-41 -97 -84 -167.5t-84 -103.5q-37 -31 -90 -31q-30 0 -52.5 13.5t-34.5 37.5q-6 12 -6 22q0 20 25 42q47 38 91 93q-16 5 -36 24q-21 21 -43 69q-24 51 -50.5 131.5z" glyph-name="yacute" unicode="ý"/><glyph d="M223 488q33 13 80 13q118 0 185 -68t67 -190q0 -123 -66.5 -190.5t-185.5 -67.5q-47 0 -80 13v-120q0 -58 -55 -56h-22q-51 0 -72 17.5t-21 62.5v703q0 34 15.5 45.5t39.5 11.5l22 -1q51 0 72 -17.5t21 -62.5v-93zM222 133q31 -14 56 -14q103 0 103 124t-103 124 q-25 0 -56 -14v-220z" glyph-name="thorn" horiz-adv-x="590" unicode="þ"/><glyph d="M96.5 698q25.5 25 61.5 25q39 0 64.5 -24.5t25.5 -61.5t-25.5 -61.5t-64.5 -24.5q-36 0 -61.5 25t-25.5 61t25.5 61zM319.5 699q24.5 24 64.5 24q37 0 62.5 -25.5t25.5 -60.5q0 -36 -25 -61t-63 -25q-39 0 -64 24.5t-25 61.5q0 38 24.5 62zM77.5 255.5 q-26.5 80.5 -47.5 164.5q-3 11 -3 21q0 26 23.5 40.5t58.5 14.5q39 0 60 -15.5t32 -53.5l79 -275h4q19 55 41.5 139.5t34.5 147.5q6 34 27.5 45.5t58.5 11.5q81 0 81 -67q0 -48 -23.5 -131t-61.5 -173q-41 -97 -84 -167.5t-84 -103.5q-37 -31 -90 -31q-30 0 -52.5 13.5 t-34.5 37.5q-6 12 -6 22q0 20 25 42q47 38 91 93q-16 5 -36 24q-21 21 -43 69q-24 51 -50.5 131.5z" glyph-name="ydieresis" unicode="ÿ"/><glyph d="M201 693q-44 0 -53 30q-5 20 -5 32q0 66 55 66h224q47 0 54 -30q3 -15 3 -32q0 -66 -54 -66h-224zM181 555q24 61 134 61q55 0 91 -15.5t47 -44.5q34 -97 81 -263l65 -232q3 -12 3 -22q0 -26 -22 -37.5t-63 -11.5q-45 0 -64.5 14t-31.5 53l-18 69h-181l-16 -62l-6 -24 q-11 -41 -43 -47q-15 -3 -34 -3q-48 0 -74 17.5t-26 48.5q0 19 4 28q5 14 9 33q13 50 47 154l32 95l32 93zM314 459l-31 -93q-19 -53 -32 -105h124q-33 126 -55 198h-6z" glyph-name="Amacron" horiz-adv-x="627" unicode="Ā"/><glyph d="M161 564q-44 0 -53 30q-5 20 -5 32q0 66 55 66h224q47 0 54 -30q3 -15 3 -32q0 -66 -54 -66h-224zM430 454.5q62 -46.5 62 -136.5v-224q0 -23 -11.5 -39.5t-37.5 -31.5q-64 -39 -183 -39q-111 0 -171.5 41.5t-60.5 121.5q0 69 41 106t127 46l131 14v7q0 54 -99 54 q-43 0 -99 -14q-20 -5 -29 -5q-20 0 -31 16.5t-11 40.5q0 26 11.5 41t39.5 27q53 21 143 21q116 0 178 -46.5zM299.5 111.5q19.5 3.5 28.5 9.5v80l-72 -6q-64 -4 -64 -42q0 -45 68 -45q20 0 39.5 3.5z" glyph-name="amacron" horiz-adv-x="544" unicode="ā"/><glyph d="M189 690q-47 29 -47 77q0 32 21.5 52t58.5 20h9q8 0 9 -1q5 -23 25.5 -37.5t50.5 -14.5q33 0 55 19q14 14 19 24q4 10 6 10h14q37 0 58.5 -20t21.5 -52q0 -48 -47 -77t-127 -29t-127 29zM181 555q24 61 134 61q55 0 91 -15.5t47 -44.5q34 -97 81 -263l65 -232 q3 -12 3 -22q0 -26 -22 -37.5t-63 -11.5q-45 0 -64.5 14t-31.5 53l-18 69h-181l-16 -62l-6 -24q-11 -41 -43 -47q-15 -3 -34 -3q-48 0 -74 17.5t-26 48.5q0 19 4 28q5 14 9 33q13 50 47 154l32 95l32 93zM314 459l-31 -93q-19 -53 -32 -105h124q-33 126 -55 198h-6z" glyph-name="Abreve" horiz-adv-x="627" unicode="Ă"/><glyph d="M144 582q-47 29 -47 77q0 32 21.5 52t58.5 20h9q8 0 9 -1q5 -23 25.5 -37.5t50.5 -14.5q33 0 55 19q14 14 19 24q4 10 6 10h14q37 0 58.5 -20t21.5 -52q0 -48 -47 -77t-127 -29t-127 29zM430 454.5q62 -46.5 62 -136.5v-224q0 -23 -11.5 -39.5t-37.5 -31.5 q-64 -39 -183 -39q-111 0 -171.5 41.5t-60.5 121.5q0 69 41 106t127 46l131 14v7q0 54 -99 54q-43 0 -99 -14q-20 -5 -29 -5q-20 0 -31 16.5t-11 40.5q0 26 11.5 41t39.5 27q53 21 143 21q116 0 178 -46.5zM299.5 111.5q19.5 3.5 28.5 9.5v80l-72 -6q-64 -4 -64 -42 q0 -45 68 -45q20 0 39.5 3.5z" glyph-name="abreve" horiz-adv-x="544" unicode="ă"/><glyph d="M181 555q24 61 134 61q55 0 91 -15.5t47 -44.5q34 -97 81 -263l65 -231q5 -25 5 -30q0 -15 -7.5 -22t-23.5 -11q-10 -10 -14 -19t-4 -23q0 -18 10.5 -28t32.5 -19l17 -8q2 -2 4 -9l2 -21q0 -35 -23.5 -54.5t-68.5 -19.5q-57 0 -93 31.5t-36 82.5q0 64 49 94 q-10 8 -16 19.5t-12 31.5l-18 69h-181l-16 -62l-6 -24q-11 -41 -43 -47q-15 -3 -34 -3q-48 0 -74 17.5t-26 48.5q0 19 4 28q5 14 9 33q13 50 47 154l32 95l32 93zM314 459l-31 -93q-19 -53 -32 -105h124q-33 126 -55 198h-6z" glyph-name="Aogonek" horiz-adv-x="627" unicode="Ą"/><glyph d="M421 11q-23 -21 -23 -51q0 -20 10.5 -30t33.5 -19q19 -8 20 -18l2 -21q0 -35 -23.5 -54.5t-68.5 -19.5q-57 0 -93 31.5t-36 82.5q0 43 24 72h-7q-111 0 -171.5 41.5t-60.5 121.5q0 69 41 106t127 46l131 14v7q0 54 -99 54q-43 0 -99 -14q-20 -5 -29 -5q-20 0 -31 16.5 t-11 40.5q0 26 11.5 41t39.5 27q53 21 143 21q116 0 178 -46.5t62 -136.5v-224q0 -44 -49 -71zM299.5 111.5q19.5 3.5 28.5 9.5v80l-72 -6q-64 -4 -64 -42q0 -45 68 -45q20 0 39.5 3.5z" glyph-name="aogonek" horiz-adv-x="544" unicode="ą"/><glyph d="M365 833q26 15 45 15q10 0 20 -3q56 -15 56 -63q0 -27 -15.5 -44.5t-52.5 -32.5l-105 -41q-22 -9 -36 -9t-28.5 9t-22.5 23q-9 14 -9 28q0 32 31 48zM256 437.5q-41 -46.5 -41 -133.5q0 -86 44.5 -133.5t123.5 -47.5q46 0 84 16q21 8 32 8q22 0 33 -18t11 -49 q0 -45 -49 -71.5t-135 -26.5q-70 0 -128.5 19.5t-100.5 58.5q-95 84 -95 244q0 149 92 238q42 41 98.5 62t122.5 21q90 0 141.5 -29t51.5 -78q0 -25 -13.5 -45t-31.5 -20q-12 0 -30 9q-43 22 -92 22q-77 0 -118 -46.5z" glyph-name="Cacute" horiz-adv-x="571" unicode="Ć"/><glyph d="M307 724q26 18 49 18q13 0 15 -1q30 -7 46.5 -24t16.5 -41q0 -26 -13.5 -43t-46.5 -35l-98 -52q-24 -12 -39 -12q-29 0 -53 33q-11 17 -11 32q0 28 26 46zM237.5 333q-34.5 -34 -34.5 -90q0 -58 33 -91t89 -33q31 0 53 7q22 5 31 5q21 0 34 -17.5t13 -42.5 q0 -41 -39 -63.5t-108 -22.5q-60 0 -112 18.5t-89 52.5q-37 33 -57 80.5t-20 103.5q0 63 20.5 113.5t59.5 83.5q35 32 83 48t105 16q70 0 110 -25t40 -68q0 -23 -10.5 -38.5t-32.5 -15.5q-9 0 -20 3q-27 10 -60 10q-54 0 -88.5 -34z" glyph-name="cacute" horiz-adv-x="494" unicode="ć"/><glyph d="M335 734l-72 -51q-26 -18 -44 -18q-13 0 -25.5 7t-20.5 19q-10 13 -10 32q0 21 9.5 36t36.5 33l36 26q53 36 88 36q27 0 45.5 -8.5t45.5 -32.5l52 -46q26 -23 26 -46q0 -8 -3 -17q-14 -39 -54 -39q-20 0 -39 10.5t-48 37.5zM256 437.5q-41 -46.5 -41 -133.5 q0 -86 44.5 -133.5t123.5 -47.5q46 0 84 16q21 8 32 8q22 0 33 -18t11 -49q0 -45 -49 -71.5t-135 -26.5q-70 0 -128.5 19.5t-100.5 58.5q-95 84 -95 244q0 149 92 238q42 41 98.5 62t122.5 21q90 0 141.5 -29t51.5 -78q0 -25 -13.5 -45t-31.5 -20q-12 0 -30 9q-43 22 -92 22 q-77 0 -118 -46.5z" glyph-name="Ccircumflex" horiz-adv-x="571" unicode="Ĉ"/><glyph d="M274 622q-44 -38 -53 -47l-11 -11q-22 -22 -45 -22q-9 0 -18 3q-49 16 -49 61q0 20 11 36t37 35l49 35q24 17 43.5 24.5t39.5 7.5q23 0 36.5 -5t33.5 -19l32 -28l43 -38q26 -25 28 -33q1 -1 1 -9q0 -31 -17 -50.5t-47 -19.5q-20 0 -34 8q-18 10 -46 40zM237.5 333 q-34.5 -34 -34.5 -90q0 -58 33 -91t89 -33q31 0 53 7q22 5 31 5q21 0 34 -17.5t13 -42.5q0 -41 -39 -63.5t-108 -22.5q-60 0 -112 18.5t-89 52.5q-37 33 -57 80.5t-20 103.5q0 63 20.5 113.5t59.5 83.5q35 32 83 48t105 16q70 0 110 -25t40 -68q0 -23 -10.5 -38.5 t-32.5 -15.5q-9 0 -20 3q-27 10 -60 10q-54 0 -88.5 -34z" glyph-name="ccircumflex" horiz-adv-x="494" unicode="ĉ"/><glyph d="M274 816q25 25 64 25q41 0 66 -24t25 -63t-25 -63t-66 -24q-39 0 -64 25t-25 62t25 62zM256 437.5q-41 -46.5 -41 -133.5q0 -86 44.5 -133.5t123.5 -47.5q46 0 84 16q21 8 32 8q22 0 33 -18t11 -49q0 -45 -49 -71.5t-135 -26.5q-70 0 -128.5 19.5t-100.5 58.5 q-95 84 -95 244q0 149 92 238q42 41 98.5 62t122.5 21q90 0 141.5 -29t51.5 -78q0 -25 -13.5 -45t-31.5 -20q-12 0 -30 9q-43 22 -92 22q-77 0 -118 -46.5z" glyph-name="Cdotaccent" horiz-adv-x="571" unicode="Ċ"/><glyph d="M213 688q25 25 64 25q41 0 66 -24t25 -63t-25 -63t-66 -24q-39 0 -64 25t-25 62t25 62zM237.5 333q-34.5 -34 -34.5 -90q0 -58 33 -91t89 -33q31 0 53 7q22 5 31 5q21 0 34 -17.5t13 -42.5q0 -41 -39 -63.5t-108 -22.5q-60 0 -112 18.5t-89 52.5q-37 33 -57 80.5 t-20 103.5q0 63 20.5 113.5t59.5 83.5q35 32 83 48t105 16q70 0 110 -25t40 -68q0 -23 -10.5 -38.5t-32.5 -15.5q-9 0 -20 3q-27 10 -60 10q-54 0 -88.5 -34z" glyph-name="cdotaccent" horiz-adv-x="494" unicode="ċ"/><glyph d="M333 778l67 54q22 19 44 19q12 0 19 -4q18 -7 28.5 -21t10.5 -33q0 -20 -9.5 -34t-36.5 -35l-55 -42q-29 -20 -64 -20q-27 0 -48.5 9t-47.5 32l-52 46q-26 23 -26 46q0 8 3 17q14 39 54 39q21 0 38 -9.5t49 -38.5zM256 437.5q-41 -46.5 -41 -133.5q0 -86 44.5 -133.5 t123.5 -47.5q46 0 84 16q21 8 32 8q22 0 33 -18t11 -49q0 -45 -49 -71.5t-135 -26.5q-70 0 -128.5 19.5t-100.5 58.5q-95 84 -95 244q0 149 92 238q42 41 98.5 62t122.5 21q90 0 141.5 -29t51.5 -78q0 -25 -13.5 -45t-31.5 -20q-12 0 -30 9q-43 22 -92 22q-77 0 -118 -46.5z" glyph-name="Ccaron" horiz-adv-x="571" unicode="Č"/><glyph d="M273 656q9 9 23 21l29 27l12 12q22 22 44 22q9 0 18 -3q49 -16 49 -61q0 -20 -10 -34.5t-38 -36.5l-45 -37q-37 -31 -79 -31q-28 0 -49 10t-57 41l-47 41q-27 23 -28 32q-1 1 -1 9q0 31 17 50.5t47 19.5q21 0 37 -9.5t44 -37.5zM237.5 333q-34.5 -34 -34.5 -90 q0 -58 33 -91t89 -33q31 0 53 7q22 5 31 5q21 0 34 -17.5t13 -42.5q0 -41 -39 -63.5t-108 -22.5q-60 0 -112 18.5t-89 52.5q-37 33 -57 80.5t-20 103.5q0 63 20.5 113.5t59.5 83.5q35 32 83 48t105 16q70 0 110 -25t40 -68q0 -23 -10.5 -38.5t-32.5 -15.5q-9 0 -20 3 q-27 10 -60 10q-54 0 -88.5 -34z" glyph-name="ccaron" horiz-adv-x="494" unicode="č"/><glyph d="M331 778l67 54q22 19 44 19q12 0 19 -4q18 -7 28.5 -21t10.5 -33q0 -20 -9.5 -34t-36.5 -35l-55 -42q-29 -20 -64 -20q-27 0 -48.5 9t-47.5 32l-52 46q-26 23 -26 46q0 8 3 17q14 39 54 39q21 0 38 -9.5t49 -38.5zM190.5 -9.5q-48.5 6.5 -77.5 18.5q-55 21 -55 73v467 q0 20 10.5 32t32.5 19q72 23 177 23q165 0 255.5 -82t90.5 -237q0 -152 -89.5 -236t-246.5 -84q-49 0 -97.5 6.5zM232 130q32 -5 57 -5q74 0 114.5 44.5t40.5 131.5q0 86 -41 133.5t-113 47.5q-37 0 -58 -4v-348z" glyph-name="Dcaron" horiz-adv-x="659" unicode="Ď"/><glyph d="M101 433q70 68 191 68q43 0 70 -12v116q0 34 15.5 45.5t39.5 11.5l22 -1q51 0 72 -17.5t21 -62.5v-474q0 -40 -28 -64t-91 -44q-46 -15 -106 -15q-129 0 -202.5 69t-73.5 190q0 122 70 190zM712 397q-15 -8 -38 -8q-39 0 -52 15.5t-10 43.5l6 78l5 72q3 36 24.5 49.5 t57.5 13.5q85 0 85 -64q0 -42 -15 -91.5t-37 -83.5q-11 -17 -26 -25zM231.5 336.5q-28.5 -31.5 -28.5 -93.5t27 -93.5t78 -31.5q36 0 55 18v220q-20 12 -48 12q-55 0 -83.5 -31.5z" glyph-name="dcaron" horiz-adv-x="810" unicode="ď"/><glyph d="M232.5 -9.5q-48.5 6.5 -77.5 18.5q-55 21 -55 73v154h-25q-45 0 -55 31q-5 22 -5 34q0 70 59 70h26v178q0 20 10.5 32t32.5 19q72 23 177 23q165 0 255.5 -82t90.5 -237q0 -152 -89.5 -236t-246.5 -84q-49 0 -97.5 6.5zM274 371h47q48 0 55 -31q4 -17 4 -34 q0 -70 -59 -70h-47v-106q32 -5 57 -5q74 0 114.5 44.5t40.5 131.5q0 86 -41 133.5t-113 47.5q-37 0 -58 -4v-107z" glyph-name="Dcroat" horiz-adv-x="701" unicode="Đ"/><glyph d="M333 530q-45 0 -52 22q-3 11 -3 24q0 47 42 47h42v22q0 34 15.5 45.5t39.5 11.5l22 -1q50 0 71 -17t22 -61h7q47 0 51 -22q4 -11 4 -23q0 -48 -42 -48h-20v-423q0 -40 -28 -64t-91 -44q-46 -15 -106 -15q-130 0 -203 67.5t-73 186.5q0 63 19.5 111.5t56.5 79.5 q35 31 82.5 46.5t102.5 15.5q43 0 70 -12v51h-29zM231.5 328q-28.5 -30 -28.5 -90t27 -90t78 -30q36 0 55 18v210q-20 12 -48 12q-55 0 -83.5 -30z" glyph-name="dcroat" horiz-adv-x="592" unicode="đ"/><glyph d="M190 694q-44 0 -53 30q-5 20 -5 32q0 66 55 66h224q47 0 54 -30q3 -15 3 -32q0 -66 -54 -66h-224zM58 513q0 43 25 68t68 25h289q46 0 54 -32q5 -22 5 -35q0 -70 -60 -70h-211v-93h184q46 0 54 -32q5 -20 5 -34q0 -70 -59 -70h-184v-105h216q46 0 54 -32q5 -22 5 -35 q0 -71 -60 -71h-292q-43 0 -68 25t-25 68v423z" glyph-name="Emacron" horiz-adv-x="541" unicode="Ē"/><glyph d="M167 564q-44 0 -53 30q-5 20 -5 32q0 66 55 66h224q47 0 54 -30q3 -15 3 -32q0 -66 -54 -66h-224zM112 50q-39 34 -60 84.5t-21 115.5q0 125 78 192q32 29 77 44t95 15q52 0 96 -15.5t76 -44.5q32 -28 49 -67t17 -85q0 -64 -72 -75l-247 -37q11 -32 43 -49t80 -17 q47 0 98 17q27 8 35 8q19 0 30.5 -17t11.5 -39q0 -38 -30 -60.5t-84 -29.5q-40 -6 -75 -6q-122 0 -197 66zM215 352.5q-25 -24.5 -27 -63.5l171 28q-3 25 -24.5 42.5t-53.5 17.5q-41 0 -66 -24.5z" glyph-name="emacron" unicode="ē"/><glyph d="M141 712q-47 29 -47 77q0 32 21.5 52t58.5 20h9q8 0 9 -1q5 -23 25.5 -37.5t50.5 -14.5q33 0 55 19q14 14 19 24q4 10 6 10h14q37 0 58.5 -20t21.5 -52q0 -48 -47 -77t-127 -29t-127 29zM58 513q0 43 25 68t68 25h289q46 0 54 -32q5 -22 5 -35q0 -70 -60 -70h-211v-93 h184q46 0 54 -32q5 -20 5 -34q0 -70 -59 -70h-184v-105h216q46 0 54 -32q5 -22 5 -35q0 -71 -60 -71h-292q-43 0 -68 25t-25 68v423z" glyph-name="Ebreve" horiz-adv-x="541" unicode="Ĕ"/><glyph d="M163 582q-47 29 -47 77q0 32 21.5 52t58.5 20h9q8 0 9 -1q5 -23 25.5 -37.5t50.5 -14.5q33 0 55 19q14 14 19 24q4 10 6 10h14q37 0 58.5 -20t21.5 -52q0 -48 -47 -77t-127 -29t-127 29zM112 50q-39 34 -60 84.5t-21 115.5q0 125 78 192q32 29 77 44t95 15q52 0 96 -15.5 t76 -44.5q32 -28 49 -67t17 -85q0 -64 -72 -75l-247 -37q11 -32 43 -49t80 -17q47 0 98 17q27 8 35 8q19 0 30.5 -17t11.5 -39q0 -38 -30 -60.5t-84 -29.5q-40 -6 -75 -6q-122 0 -197 66zM215 352.5q-25 -24.5 -27 -63.5l171 28q-3 25 -24.5 42.5t-53.5 17.5 q-41 0 -66 -24.5z" glyph-name="ebreve" unicode="ĕ"/><glyph d="M200 816q25 25 64 25q41 0 66 -24t25 -63t-25 -63t-66 -24q-39 0 -64 25t-25 62t25 62zM58 513q0 43 25 68t68 25h289q46 0 54 -32q5 -22 5 -35q0 -70 -60 -70h-211v-93h184q46 0 54 -32q5 -20 5 -34q0 -70 -59 -70h-184v-105h216q46 0 54 -32q5 -22 5 -35q0 -71 -60 -71 h-292q-43 0 -68 25t-25 68v423z" glyph-name="Edotaccent" horiz-adv-x="541" unicode="Ė"/><glyph d="M211 688q25 25 64 25q41 0 66 -24t25 -63t-25 -63t-66 -24q-39 0 -64 25t-25 62t25 62zM112 50q-39 34 -60 84.5t-21 115.5q0 125 78 192q32 29 77 44t95 15q52 0 96 -15.5t76 -44.5q32 -28 49 -67t17 -85q0 -64 -72 -75l-247 -37q11 -32 43 -49t80 -17q47 0 98 17 q27 8 35 8q19 0 30.5 -17t11.5 -39q0 -38 -30 -60.5t-84 -29.5q-40 -6 -75 -6q-122 0 -197 66zM215 352.5q-25 -24.5 -27 -63.5l171 28q-3 25 -24.5 42.5t-53.5 17.5q-41 0 -66 -24.5z" glyph-name="edotaccent" unicode="ė"/><glyph d="M151 -3q-43 0 -68 25t-25 68v423q0 43 25 68t68 25h289q46 0 54 -32q5 -22 5 -35q0 -70 -60 -70h-211v-93h184q46 0 54 -32q5 -20 5 -34q0 -70 -59 -70h-184v-105h216q46 0 54 -32q5 -22 5 -35q0 -70 -57 -71h-15q-9 -12 -12.5 -20t-3.5 -20q0 -18 9.5 -27t33.5 -20 l17 -8q2 -2 4 -9l2 -21q0 -35 -23.5 -54.5t-68.5 -19.5q-57 0 -93 31.5t-36 82.5q0 57 37 85h-146z" glyph-name="Eogonek" horiz-adv-x="541" unicode="Ę"/><glyph d="M95 67q-64 69 -64 183q0 125 78 192q32 29 77 44t95 15q52 0 96 -15.5t76 -44.5q32 -28 49 -67t17 -85q0 -64 -72 -75l-247 -37q11 -32 43 -49t80 -17q47 0 98 17q27 8 35 8q19 0 30.5 -17t11.5 -39q0 -44 -42 -67q-17 -8 -39 -14q-10 -10 -14 -19t-4 -23q0 -18 10.5 -28 t32.5 -19l17 -8q2 -2 4 -9l2 -21q0 -35 -23.5 -54.5t-68.5 -19.5q-57 0 -93 31.5t-36 82.5q0 45 26 74q-111 12 -175 81zM215 352.5q-25 -24.5 -27 -63.5l171 28q-3 25 -24.5 42.5t-53.5 17.5q-41 0 -66 -24.5z" glyph-name="eogonek" unicode="ę"/><glyph d="M269 778l67 54q22 19 44 19q12 0 19 -4q18 -7 28.5 -21t10.5 -33q0 -20 -9.5 -34t-36.5 -35l-55 -42q-29 -20 -64 -20q-27 0 -48.5 9t-47.5 32l-52 46q-26 23 -26 46q0 8 3 17q14 39 54 39q21 0 38 -9.5t49 -38.5zM58 513q0 43 25 68t68 25h289q46 0 54 -32q5 -22 5 -35 q0 -70 -60 -70h-211v-93h184q46 0 54 -32q5 -20 5 -34q0 -70 -59 -70h-184v-105h216q46 0 54 -32q5 -22 5 -35q0 -71 -60 -71h-292q-43 0 -68 25t-25 68v423z" glyph-name="Ecaron" horiz-adv-x="541" unicode="Ě"/><glyph d="M270 656q9 9 23 21l29 27l12 12q22 22 44 22q9 0 18 -3q49 -16 49 -61q0 -20 -10 -34.5t-38 -36.5l-45 -37q-37 -31 -79 -31q-28 0 -49 10t-57 41l-47 41q-27 23 -28 32q-1 1 -1 9q0 31 17 50.5t47 19.5q21 0 37 -9.5t44 -37.5zM112 50q-39 34 -60 84.5t-21 115.5 q0 125 78 192q32 29 77 44t95 15q52 0 96 -15.5t76 -44.5q32 -28 49 -67t17 -85q0 -64 -72 -75l-247 -37q11 -32 43 -49t80 -17q47 0 98 17q27 8 35 8q19 0 30.5 -17t11.5 -39q0 -38 -30 -60.5t-84 -29.5q-40 -6 -75 -6q-122 0 -197 66zM215 352.5q-25 -24.5 -27 -63.5 l171 28q-3 25 -24.5 42.5t-53.5 17.5q-41 0 -66 -24.5z" glyph-name="ecaron" unicode="ě"/><glyph d="M357 753q-44 -38 -53 -47l-11 -11q-22 -22 -45 -22q-9 0 -18 3q-49 16 -49 61q0 20 11 36t37 35l49 35q24 17 43.5 24.5t39.5 7.5q23 0 36.5 -5t33.5 -19l32 -28l43 -38q26 -25 28 -33q1 -1 1 -9q0 -31 -17 -50.5t-47 -19.5q-20 0 -34 8q-18 10 -46 40zM614 99 q0 -29 -9.5 -44.5t-36.5 -30.5q-30 -18 -81 -29t-107 -11q-73 0 -136 20t-108 59q-49 40 -75 100t-26 135q0 77 28 139.5t80 105.5q47 39 108.5 59.5t130.5 20.5q93 0 149.5 -30.5t56.5 -79.5q0 -28 -12.5 -46t-33.5 -18q-12 0 -34 8q-50 25 -110 25q-84 0 -133.5 -48.5 t-49.5 -132.5q0 -85 45 -131t122 -46q43 0 65 13v94h-65q-46 0 -54 32q-5 22 -5 35q0 68 59 68h169q30 0 46.5 -16.5t16.5 -46.5v-204z" glyph-name="Gcircumflex" horiz-adv-x="664" unicode="Ĝ"/><glyph d="M290 622q-44 -38 -53 -47l-11 -11q-22 -22 -45 -22q-9 0 -18 3q-49 16 -49 61q0 20 11 36t37 35l49 35q24 17 43.5 24.5t39.5 7.5q23 0 36.5 -5t33.5 -19l32 -28l43 -38q26 -25 28 -33q1 -1 1 -9q0 -31 -17 -50.5t-47 -19.5q-20 0 -34 8q-18 10 -46 40zM471 449 q23 -16 33 -33t10 -42v-350q0 -97 -68.5 -151t-186.5 -54q-195 0 -195 104q0 24 10 40t30 16q13 0 30 -7q55 -20 102 -20q118 0 118 76v16q-40 -18 -100 -18q-46 0 -86.5 14.5t-69.5 41.5q-68 63 -68 180q0 114 69 176.5t190 62.5q108 0 182 -52zM351 356q-22 12 -54 12 q-48 0 -73 -27.5t-25 -78.5q0 -53 22.5 -81t64.5 -28q43 0 65 19v184z" glyph-name="gcircumflex" horiz-adv-x="567" unicode="ĝ"/><glyph d="M224 710q-47 29 -47 77q0 32 21.5 52t58.5 20h9q8 0 9 -1q5 -23 25.5 -37.5t50.5 -14.5q33 0 55 19q14 14 19 24q4 10 6 10h14q37 0 58.5 -20t21.5 -52q0 -48 -47 -77t-127 -29t-127 29zM614 99q0 -29 -9.5 -44.5t-36.5 -30.5q-30 -18 -81 -29t-107 -11q-73 0 -136 20 t-108 59q-49 40 -75 100t-26 135q0 77 28 139.5t80 105.5q47 39 108.5 59.5t130.5 20.5q93 0 149.5 -30.5t56.5 -79.5q0 -28 -12.5 -46t-33.5 -18q-12 0 -34 8q-50 25 -110 25q-84 0 -133.5 -48.5t-49.5 -132.5q0 -85 45 -131t122 -46q43 0 65 13v94h-65q-46 0 -54 32 q-5 22 -5 35q0 68 59 68h169q30 0 46.5 -16.5t16.5 -46.5v-204z" glyph-name="Gbreve" horiz-adv-x="664" unicode="Ğ"/><glyph d="M155 582q-47 29 -47 77q0 32 21.5 52t58.5 20h9q8 0 9 -1q5 -23 25.5 -37.5t50.5 -14.5q33 0 55 19q14 14 19 24q4 10 6 10h14q37 0 58.5 -20t21.5 -52q0 -48 -47 -77t-127 -29t-127 29zM471 449q23 -16 33 -33t10 -42v-350q0 -97 -68.5 -151t-186.5 -54q-195 0 -195 104 q0 24 10 40t30 16q13 0 30 -7q55 -20 102 -20q118 0 118 76v16q-40 -18 -100 -18q-46 0 -86.5 14.5t-69.5 41.5q-68 63 -68 180q0 114 69 176.5t190 62.5q108 0 182 -52zM351 356q-22 12 -54 12q-48 0 -73 -27.5t-25 -78.5q0 -53 22.5 -81t64.5 -28q43 0 65 19v184z" glyph-name="gbreve" horiz-adv-x="567" unicode="ğ"/><glyph d="M304 819q25 25 64 25q41 0 66 -24t25 -63t-25 -63t-66 -24q-39 0 -64 25t-25 62t25 62zM614 99q0 -29 -9.5 -44.5t-36.5 -30.5q-30 -18 -81 -29t-107 -11q-73 0 -136 20t-108 59q-49 40 -75 100t-26 135q0 77 28 139.5t80 105.5q47 39 108.5 59.5t130.5 20.5 q93 0 149.5 -30.5t56.5 -79.5q0 -28 -12.5 -46t-33.5 -18q-12 0 -34 8q-50 25 -110 25q-84 0 -133.5 -48.5t-49.5 -132.5q0 -85 45 -131t122 -46q43 0 65 13v94h-65q-46 0 -54 32q-5 22 -5 35q0 68 59 68h169q30 0 46.5 -16.5t16.5 -46.5v-204z" glyph-name="Gdotaccent" horiz-adv-x="664" unicode="Ġ"/><glyph d="M217 688q25 25 64 25q41 0 66 -24t25 -63t-25 -63t-66 -24q-39 0 -64 25t-25 62t25 62zM471 449q23 -16 33 -33t10 -42v-350q0 -97 -68.5 -151t-186.5 -54q-195 0 -195 104q0 24 10 40t30 16q13 0 30 -7q55 -20 102 -20q118 0 118 76v16q-40 -18 -100 -18 q-46 0 -86.5 14.5t-69.5 41.5q-68 63 -68 180q0 114 69 176.5t190 62.5q108 0 182 -52zM351 356q-22 12 -54 12q-48 0 -73 -27.5t-25 -78.5q0 -53 22.5 -81t64.5 -28q43 0 65 19v184z" glyph-name="gdotaccent" horiz-adv-x="567" unicode="ġ"/><glyph d="M614 99q0 -29 -9.5 -44.5t-36.5 -30.5q-30 -18 -81 -29t-107 -11q-73 0 -136 20t-108 59q-49 40 -75 100t-26 135q0 77 28 139.5t80 105.5q47 39 108.5 59.5t130.5 20.5q93 0 149.5 -30.5t56.5 -79.5q0 -28 -12.5 -46t-33.5 -18q-12 0 -34 8q-50 25 -110 25 q-84 0 -133.5 -48.5t-49.5 -132.5q0 -85 45 -131t122 -46q43 0 65 13v94h-65q-46 0 -54 32q-5 22 -5 35q0 68 59 68h169q30 0 46.5 -16.5t16.5 -46.5v-204zM305 -256l-23 2q-28 7 -28 36q0 13 6 28q16 41 22 78q7 43 42 53q22 7 45 7q72 0 72 -52q0 -21 -19 -60.5t-38 -58.5 q-32 -33 -79 -33z" glyph-name="Gcommaaccent" horiz-adv-x="664" unicode="Ģ"/><glyph d="M321 746q15 0 27 -3q30 -7 30 -37q0 -13 -6 -28q-14 -37 -22 -77q-8 -44 -41 -54q-26 -6 -42 -6q-36 0 -55.5 11.5t-19.5 35.5q0 28 17.5 66.5t40.5 62.5q29 29 71 29zM471 449q23 -16 33 -33t10 -42v-350q0 -97 -68.5 -151t-186.5 -54q-195 0 -195 104q0 24 10 40t30 16 q13 0 30 -7q55 -20 102 -20q118 0 118 76v16q-40 -18 -100 -18q-46 0 -86.5 14.5t-69.5 41.5q-68 63 -68 180q0 114 69 176.5t190 62.5q108 0 182 -52zM351 356q-22 12 -54 12q-48 0 -73 -27.5t-25 -78.5q0 -53 22.5 -81t64.5 -28q43 0 65 19v184z" glyph-name="gcommaaccent" horiz-adv-x="567" unicode="ģ"/><glyph d="M341 734l-72 -51q-26 -18 -44 -18q-13 0 -25.5 7t-20.5 19q-10 13 -10 32q0 21 9.5 36t36.5 33l36 26q53 36 88 36q27 0 45.5 -8.5t45.5 -32.5l52 -46q26 -23 26 -46q0 -8 -3 -17q-13 -39 -54 -39q-20 0 -39 10.5t-48 37.5zM616 50q0 -49 -40 -53l-41 -2q-52 0 -73 18 t-21 65v156h-192v-184q0 -49 -40 -53l-41 -2q-52 0 -73 18t-21 65v482q0 34 17 45t42 11l22 -1q52 0 73 -18t21 -65v-160h192v188q0 34 17 45t42 11l22 -1q52 0 73 -18t21 -65v-482z" glyph-name="Hcircumflex" horiz-adv-x="643" unicode="Ĥ"/><glyph d="M135 744l-72 -51q-25 -18 -44 -18q-13 0 -25.5 7t-20.5 19q-10 13 -10 32q0 21 9.5 36t36.5 33l36 26q53 36 88 36q27 0 45.5 -8.5t45.5 -32.5l52 -46q26 -23 26 -46q0 -8 -3 -17q-13 -39 -54 -39q-20 0 -39 10.5t-48 37.5zM532 47q0 -34 -17 -45.5t-39 -10.5l-20 1 q-51 0 -72.5 18t-21.5 62v222q0 74 -71 74q-38 0 -67 -17v-304q0 -34 -17 -45.5t-39 -10.5l-20 1q-51 0 -72.5 18t-21.5 62v534q0 34 15 45t39 11l22 -1q51 0 72.5 -18t21.5 -62v-98q19 7 46 12.5t52 5.5q102 0 156 -50.5t54 -146.5v-257z" glyph-name="hcircumflex" horiz-adv-x="585" unicode="ĥ"/><glyph d="M622 525h4q47 0 51 -22q4 -11 4 -23q0 -48 -42 -48h-17v-382q0 -49 -40 -53l-41 -2q-52 0 -73 18t-21 65v156h-192v-184q0 -49 -40 -53l-41 -2q-52 0 -73 18t-21 65v354h-5q-45 0 -52 22q-3 11 -3 24q0 47 42 47h18v35q0 34 17 45t42 11l22 -1q52 0 73 -18t21 -65v-7h192 v35q0 34 17 45t42 11l22 -1q52 0 73 -18t21 -65v-7zM447 372v60h-192v-60h192z" glyph-name="Hbar" horiz-adv-x="701" unicode="Ħ"/><glyph d="M538 47q0 -34 -17 -45.5t-39 -10.5l-20 1q-51 0 -72.5 18t-21.5 62v222q0 74 -71 74q-38 0 -67 -17v-304q0 -34 -17 -45.5t-39 -10.5l-20 1q-51 0 -72.5 18t-21.5 62v458h-5q-45 0 -52 22q-3 11 -3 24q0 47 42 47h18v24q0 34 15.5 45.5t39.5 11.5l22 -1q51 0 72 -17.5 t21 -62.5h31q47 0 51 -22q4 -11 4 -23q0 -48 -42 -48h-44v-47q19 7 46 12.5t52 5.5q102 0 156 -50.5t54 -146.5v-257z" glyph-name="hbar" horiz-adv-x="591" unicode="ħ"/><glyph d="M195 817q14 0 23 6l36 21q8 3 15 3q10 0 17 -4q19 -10 30.5 -28.5t11.5 -42.5q0 -42 -26 -64.5t-72 -22.5q-30 0 -59 8l-40 12q-25 9 -42 9q-14 0 -23 -6q-23 -15 -35 -20q-7 -4 -16 -4q-10 0 -17 4q-19 10 -30.5 28.5t-11.5 42.5q0 39 27.5 63t70.5 24q13 0 32 -3 q18 -3 59 -15q41 -11 50 -11zM240 50q0 -49 -40 -53l-41 -2q-52 0 -73 18t-21 65v482q0 34 17 45t42 11l22 -1q52 0 73 -18t21 -65v-482z" glyph-name="Itilde" horiz-adv-x="305" unicode="Ĩ"/><glyph d="M187 686q14 0 23 6l36 21q7 3 15 3q10 0 17 -4q19 -10 30.5 -28.5t11.5 -42.5q0 -42 -26 -64.5t-72 -22.5q-30 0 -59 8l-40 12q-25 9 -42 9q-14 0 -23 -6q-23 -15 -35 -20q-7 -4 -16 -4q-10 0 -17 4q-19 10 -30.5 28.5t-11.5 42.5q0 39 27.5 63t70.5 24q13 0 32 -3 q18 -3 59 -15q41 -11 50 -11zM226 47q0 -34 -15.5 -45t-38.5 -10h-22q-51 0 -72.5 18t-21.5 62v361q0 34 15 45t39 11l22 -1q51 0 72.5 -18t21.5 -62v-361z" glyph-name="itilde" horiz-adv-x="282" unicode="ĩ"/><glyph d="M32 692q-44 0 -53 30q-5 20 -5 32q0 66 55 66h224q47 0 54 -30q3 -15 3 -32q0 -66 -54 -66h-224zM240 50q0 -49 -40 -53l-41 -2q-52 0 -73 18t-21 65v482q0 34 17 45t42 11l22 -1q52 0 73 -18t21 -65v-482z" glyph-name="Imacron" horiz-adv-x="305" unicode="Ī"/><glyph d="M31 564q-44 0 -53 30q-5 20 -5 32q0 66 55 66h224q47 0 54 -30q3 -15 3 -32q0 -66 -54 -66h-224zM227 47q0 -34 -15.5 -45t-38.5 -10h-22q-51 0 -72.5 18t-21.5 62v361q0 34 15 45t39 11l22 -1q51 0 72.5 -18t21.5 -62v-361z" glyph-name="imacron" horiz-adv-x="282" unicode="ī"/><glyph d="M240 39q0 -15 -3.5 -26.5t-12.5 -29.5q-6 -12 -6 -26q0 -18 10.5 -28t32.5 -19l17 -8q2 -2 4 -9l2 -21q0 -35 -23.5 -54.5t-68.5 -19.5q-57 0 -93 31.5t-36 82.5q0 29 12 53t31 36q-22 9 -31.5 26.5t-9.5 50.5v482q0 34 17 45t42 11l22 -1q52 0 73 -18t21 -65v-493z" glyph-name="Iogonek" horiz-adv-x="305" unicode="Į"/><glyph d="M74 685.5q26 25.5 67 25.5t67 -25.5t26 -64.5t-26 -64.5t-67 -25.5t-67 25.5t-26 64.5t26 64.5zM64.5 26.5q-8.5 16.5 -8.5 45.5v361q0 34 15 45t39 11l22 -1q51 0 72.5 -18t21.5 -62v-368q0 -15 -3.5 -26.5t-12.5 -29.5q-6 -12 -6 -26q0 -18 10.5 -28t32.5 -19l17 -8 q2 -2 4 -9l2 -21q0 -35 -23.5 -54.5t-68.5 -19.5q-57 0 -93 31.5t-36 82.5q0 29 11.5 52.5t30.5 35.5q-18 9 -26.5 25.5z" glyph-name="iogonek" horiz-adv-x="282" unicode="į"/><glyph d="M82 817q25 25 64 25q41 0 66 -24t25 -63t-25 -63t-66 -24q-39 0 -64 25t-25 62t25 62zM240 50q0 -49 -40 -53l-41 -2q-52 0 -73 18t-21 65v482q0 34 17 45t42 11l22 -1q52 0 73 -18t21 -65v-482z" glyph-name="Idotaccent" horiz-adv-x="305" unicode="İ"/><glyph d="M226 47q0 -34 -15.5 -45t-38.5 -10h-22q-51 0 -72.5 18t-21.5 62v361q0 34 15 45t39 11l22 -1q51 0 72.5 -18t21.5 -62v-361z" glyph-name="dotlessi" horiz-adv-x="282" unicode="ı"/><glyph d="M251 753q-44 -38 -53 -47l-11 -11q-22 -22 -45 -22q-9 0 -18 3q-49 16 -49 61q0 20 11 36t37 35l49 35q24 17 43.5 24.5t39.5 7.5q23 0 36.5 -5t33.5 -19l32 -28l43 -38q26 -25 28 -33q1 -1 1 -9q0 -31 -17 -50.5t-47 -19.5q-20 0 -34 8q-18 10 -46 40zM175 560 q0 34 17 45t42 11l22 -1q52 0 73 -18t21 -65v-370q0 -89 -51 -133.5t-150 -44.5q-128 0 -128 89l2 22q5 32 41 32q14 0 18 -1t20 -1q38 0 55.5 19t17.5 58v358z" glyph-name="Jcircumflex" horiz-adv-x="408" unicode="Ĵ"/><glyph d="M132 622q-44 -38 -53 -47l-11 -11q-22 -22 -45 -22q-9 0 -18 3q-49 16 -49 61q0 20 11 36t37 35l49 35q24 17 43.5 24.5t39.5 7.5q23 0 36.5 -5t33.5 -19l32 -28l43 -38q26 -25 28 -33q1 -1 1 -9q0 -31 -17 -50.5t-47 -19.5q-20 0 -34 8q-18 10 -46 40zM-5 -100 q0 16 11 24l13 8q42 29 42 93v408q0 34 15 45t39 11l22 -1q51 0 72.5 -18t21.5 -62v-399q0 -84 -38.5 -135t-104.5 -51q-30 0 -53 14t-34 39q-6 13 -6 24z" glyph-name="jcircumflex" horiz-adv-x="287" unicode="ĵ"/><glyph d="M234 225v-175q0 -34 -18.5 -45.5t-42.5 -10.5l-21 1q-52 0 -73 18t-21 65v482q0 34 17 45t42 11l22 -1q52 0 73 -18t21 -65v-159l183 211q21 26 52 26q10 0 12 -1q42 -6 65 -28t23 -55q0 -26 -12.5 -48.5t-42.5 -52.5l-125 -125l107 -116q50 -55 68 -73q12 -13 17 -23 t5 -22q0 -11 -4 -18q-7 -19 -22 -32q-27 -24 -67 -24q-35 0 -59.5 15t-57.5 54zM264 -256l-23 2q-28 7 -28 36q0 13 6 28q16 41 22 78q7 43 42 53q22 7 45 7q72 0 72 -52q0 -21 -19 -60.5t-38 -58.5q-31 -33 -79 -33z" glyph-name="Kcommaaccent" horiz-adv-x="608" unicode="Ķ"/><glyph d="M500 115q23 -23 23 -45q0 -9 -4 -20q-20 -59 -85 -59q-32 0 -56 15t-55 53l-99 124v-136q0 -34 -15.5 -45t-38.5 -10h-22q-51 0 -72.5 18t-21.5 62v533q0 34 15.5 45.5t38.5 11.5l22 -1q51 0 72.5 -18t21.5 -62v-264l146 150q23 24 48 24l15 -2q36 -8 57 -28.5t21 -48.5 q0 -25 -12.5 -43.5t-43.5 -44.5l-30 -26l-58 -50zM243 -256l-23 2q-28 7 -28 36q0 13 6 28q16 41 22 78q7 43 42 53q22 7 45 7q72 0 72 -52q0 -21 -19 -60.5t-38 -58.5q-31 -33 -79 -33z" glyph-name="kcommaaccent" horiz-adv-x="557" unicode="ķ"/><glyph d="M499 115q23 -23 23 -46q0 -8 -3 -19q-20 -59 -85 -59q-30 0 -55 15.5t-56 52.5l-99 119v-131q0 -34 -15.5 -45t-38.5 -10h-22q-51 0 -72.5 18t-21.5 62v360q0 34 15.5 45.5t38.5 11.5l22 -1q51 0 72.5 -18t21.5 -62v-96l146 154q22 25 49 25l15 -2q35 -8 56 -28.5 t21 -48.5q0 -23 -11 -40t-37 -40l-96 -89z" glyph-name="kgreenlandic" horiz-adv-x="557" unicode="ĸ"/><glyph d="M214 833q25 15 45 15q9 0 20 -3q56 -15 56 -63q0 -27 -15.5 -44.5t-52.5 -32.5l-105 -41q-23 -9 -36 -9q-14 0 -28.5 9t-22.5 23q-9 14 -9 28q0 32 31 48zM158 -3q-43 0 -68 25t-25 68v471q0 34 17 45t42 11l22 -1q52 0 73 -18t21 -65v-395h188q45 0 55 -33q5 -22 5 -35 q0 -73 -62 -73h-268z" glyph-name="Lacute" horiz-adv-x="513" unicode="Ĺ"/><glyph d="M163 873q25 15 45 15q9 0 20 -3q56 -15 56 -63q0 -27 -15.5 -44.5t-52.5 -32.5l-105 -41q-23 -9 -36 -9q-14 0 -28.5 9t-22.5 23q-9 14 -9 28q0 32 31 48zM225 47q0 -34 -15.5 -45t-38.5 -10h-22q-51 0 -72.5 18t-21.5 62v534q0 34 15 45t39 11l22 -1q51 0 72.5 -18 t21.5 -62v-534z" glyph-name="lacute" horiz-adv-x="280" unicode="ĺ"/><glyph d="M158 -3q-43 0 -68 25t-25 68v471q0 34 17 45t42 11l22 -1q52 0 73 -18t21 -65v-395h188q45 0 55 -33q5 -22 5 -35q0 -73 -62 -73h-268zM218 -256l-23 2q-28 7 -28 36q0 13 6 28q16 41 22 78q7 43 42 53q22 7 45 7q72 0 72 -52q0 -21 -19 -60.5t-38 -58.5q-32 -33 -79 -33 z" glyph-name="Lcommaaccent" horiz-adv-x="513" unicode="Ļ"/><glyph d="M225 47q0 -34 -15.5 -45t-38.5 -10h-22q-51 0 -72.5 18t-21.5 62v534q0 34 15 45t39 11l22 -1q51 0 72.5 -18t21.5 -62v-534zM89 -256l-23 2q-28 7 -28 36q0 13 6 28q16 41 22 78q7 43 42 53q22 7 45 7q72 0 72 -52q0 -21 -19 -60.5t-38 -58.5q-31 -33 -79 -33z" glyph-name="lcommaaccent" horiz-adv-x="280" unicode="ļ"/><glyph d="M153 778l67 54q22 19 44 19q12 0 19 -4q18 -7 28.5 -21t10.5 -33q0 -20 -9.5 -34t-36.5 -35l-55 -42q-29 -20 -64 -20q-27 0 -48.5 9t-47.5 32l-52 46q-26 23 -26 46q0 8 3 17q13 39 54 39q21 0 38 -9.5t49 -38.5zM158 -3q-43 0 -68 25t-25 68v471q0 34 17 45t42 11 l22 -1q52 0 73 -18t21 -65v-395h188q45 0 55 -33q5 -22 5 -35q0 -73 -62 -73h-268z" glyph-name="Lcaron" horiz-adv-x="513" unicode="Ľ"/><glyph d="M225 47q0 -34 -15.5 -45t-38.5 -10h-22q-51 0 -72.5 18t-21.5 62v534q0 34 15 45t39 11l22 -1q51 0 72.5 -18t21.5 -62v-534zM406 397q-15 -8 -38 -8q-39 0 -52 15.5t-10 43.5l6 78l5 72q3 36 24.5 49.5t57.5 13.5q85 0 85 -64q0 -42 -15 -91.5t-37 -83.5 q-11 -17 -26 -25z" glyph-name="lcaron" horiz-adv-x="504" unicode="ľ"/><glyph d="M158 -3q-43 0 -68 25t-25 68v471q0 34 17 45t42 11l22 -1q52 0 73 -18t21 -65v-395h188q45 0 55 -33q5 -22 5 -35q0 -73 -62 -73h-268zM334.5 411.5q26.5 27.5 70.5 27.5t70.5 -27.5t26.5 -70.5t-26.5 -70.5t-70.5 -27.5t-70.5 27.5t-26.5 70.5t26.5 70.5z" glyph-name="Ldot" horiz-adv-x="527" unicode="Ŀ"/><glyph d="M225 47q0 -34 -15.5 -45t-38.5 -10h-22q-51 0 -72.5 18t-21.5 62v534q0 34 15 45t39 11l22 -1q51 0 72.5 -18t21.5 -62v-534zM319.5 411.5q26.5 27.5 70.5 27.5t70.5 -27.5t26.5 -70.5t-26.5 -70.5t-70.5 -27.5t-70.5 27.5t-26.5 70.5t26.5 70.5z" glyph-name="ldot" horiz-adv-x="514" unicode="ŀ"/><glyph d="M199 -3q-43 0 -68 25t-25 68v137l-10 -4q-14 -7 -29 -7q-23 0 -40 22.5t-17 52.5q0 35 35 49l61 26v195q0 34 17 45t42 11l22 -1q52 0 73 -18t21 -65v-92l52 22q20 10 35 10q14 0 21 -9l14 -19q17 -26 17 -51q0 -34 -36 -48l-103 -44v-164h188q45 0 55 -33q5 -22 5 -35 q0 -73 -62 -73h-268z" glyph-name="Lslash" horiz-adv-x="544" unicode="Ł"/><glyph d="M281 448l12 5q21 9 35 9q13 0 21 -8l14 -19q17 -26 17 -51q0 -33 -36 -48l-63 -27v-262q0 -34 -15.5 -45t-38.5 -10h-22q-51 0 -72.5 18t-21.5 62v166l-15 -6q-15 -6 -29 -6q-23 0 -40 23.5t-17 51.5q0 35 35 49l66 27v229q0 34 15 45t39 11l22 -1q51 0 72.5 -18 t21.5 -62v-133z" glyph-name="lslash" horiz-adv-x="390" unicode="ł"/><glyph d="M365 833q26 15 45 15q10 0 20 -3q56 -15 56 -63q0 -27 -15.5 -44.5t-52.5 -32.5l-105 -41q-22 -9 -36 -9t-28.5 9t-22.5 23q-9 14 -9 28q0 32 31 48zM607 59q0 -39 -24 -53t-80 -14q-48 0 -77 14.5t-47 49.5l-99 202q-14 26 -53 122l-6 -1q5 -88 5 -220v-109 q0 -23 -10 -37t-29 -16l-39 -2q-49 0 -69.5 17.5t-20.5 62.5v464q0 22 6 36t21 23q32 17 78 17q48 0 77.5 -14.5t46.5 -49.5l100 -202q14 -26 53 -122l5 1q-6 86 -6 216v116q0 23 10 37t29 16l39 2q49 0 69.5 -18t20.5 -62v-476z" glyph-name="Nacute" horiz-adv-x="665" unicode="Ń"/><glyph d="M294 724q25 18 49 18q13 0 15 -1q30 -7 46.5 -24t16.5 -41q0 -26 -13.5 -43t-46.5 -35l-98 -52q-24 -12 -39 -12q-29 0 -53 33q-11 17 -11 32q0 28 26 46zM360 308q0 30 -17 45t-48 15q-44 0 -73 -20v-301q0 -34 -17 -45.5t-39 -10.5l-20 1q-51 0 -72.5 18t-21.5 62v300 q0 25 10 42t33 33q37 25 89 39.5t111 14.5q113 0 174 -49.5t61 -137.5v-267q0 -34 -17 -45.5t-39 -10.5l-20 1q-51 0 -72.5 18t-21.5 62v236z" glyph-name="nacute" horiz-adv-x="583" unicode="ń"/><glyph d="M607 59q0 -39 -24 -53t-80 -14q-48 0 -77 14.5t-47 49.5l-99 202q-14 26 -53 122l-6 -1q5 -88 5 -220v-109q0 -23 -10 -37t-29 -16l-39 -2q-49 0 -69.5 17.5t-20.5 62.5v464q0 22 6 36t21 23q32 17 78 17q48 0 77.5 -14.5t46.5 -49.5l100 -202q14 -26 53 -122l5 1 q-6 86 -6 216v116q0 23 10 37t29 16l39 2q49 0 69.5 -18t20.5 -62v-476zM284 -256l-23 2q-28 7 -28 36q0 13 6 28q16 41 22 78q7 43 42 53q22 7 45 7q72 0 72 -52q0 -21 -19 -60.5t-38 -58.5q-32 -33 -79 -33z" glyph-name="Ncommaaccent" horiz-adv-x="665" unicode="Ņ"/><glyph d="M360 308q0 30 -17 45t-48 15q-44 0 -73 -20v-301q0 -34 -17 -45.5t-39 -10.5l-20 1q-51 0 -72.5 18t-21.5 62v300q0 25 10 42t33 33q37 25 89 39.5t111 14.5q113 0 174 -49.5t61 -137.5v-267q0 -34 -17 -45.5t-39 -10.5l-20 1q-51 0 -72.5 18t-21.5 62v236zM239 -256 l-23 2q-28 7 -28 36q0 13 6 28q16 41 22 78q7 43 42 53q22 7 45 7q72 0 72 -52q0 -21 -19 -60.5t-38 -58.5q-32 -33 -79 -33z" glyph-name="ncommaaccent" horiz-adv-x="583" unicode="ņ"/><glyph d="M337 778l67 54q22 19 44 19q12 0 19 -4q18 -7 28.5 -21t10.5 -33q0 -20 -9.5 -34t-36.5 -35l-55 -42q-29 -20 -64 -20q-27 0 -48.5 9t-47.5 32l-52 46q-26 23 -26 46q0 8 3 17q14 39 54 39q21 0 38 -9.5t49 -38.5zM607 59q0 -39 -24 -53t-80 -14q-48 0 -77 14.5t-47 49.5 l-99 202q-14 26 -53 122l-6 -1q5 -88 5 -220v-109q0 -23 -10 -37t-29 -16l-39 -2q-49 0 -69.5 17.5t-20.5 62.5v464q0 22 6 36t21 23q32 17 78 17q48 0 77.5 -14.5t46.5 -49.5l100 -202q14 -26 53 -122l5 1q-6 86 -6 216v116q0 23 10 37t29 16l39 2q49 0 69.5 -18t20.5 -62 v-476z" glyph-name="Ncaron" horiz-adv-x="665" unicode="Ň"/><glyph d="M288 656q9 9 23 21l29 27l12 12q22 22 44 22q9 0 18 -3q49 -16 49 -61q0 -20 -10 -34.5t-38 -36.5l-45 -37q-37 -31 -79 -31q-28 0 -49 10t-57 41l-47 41q-27 23 -28 32q-1 1 -1 9q0 31 17 50.5t47 19.5q21 0 37 -9.5t44 -37.5zM360 308q0 30 -17 45t-48 15 q-44 0 -73 -20v-301q0 -34 -17 -45.5t-39 -10.5l-20 1q-51 0 -72.5 18t-21.5 62v300q0 25 10 42t33 33q37 25 89 39.5t111 14.5q113 0 174 -49.5t61 -137.5v-267q0 -34 -17 -45.5t-39 -10.5l-20 1q-51 0 -72.5 18t-21.5 62v236z" glyph-name="ncaron" horiz-adv-x="583" unicode="ň"/><glyph d="M126 397q-15 -8 -38 -8q-39 0 -52 15.5t-10 43.5l6 78l5 72q3 36 24.5 49.5t57.5 13.5q85 0 85 -64q0 -42 -15 -91.5t-37 -83.5q-11 -17 -26 -25zM520 308q0 30 -17 45t-48 15q-44 0 -73 -20v-301q0 -34 -17 -45.5t-39 -10.5l-20 1q-51 0 -72.5 18t-21.5 62v300 q0 25 10 42t33 33q37 25 89 39.5t111 14.5q113 0 174 -49.5t61 -137.5v-267q0 -34 -17 -45.5t-39 -10.5l-20 1q-51 0 -72.5 18t-21.5 62v236z" glyph-name="napostrophe" horiz-adv-x="743" unicode="ŉ"/><glyph d="M235 693q-44 0 -53 30q-5 20 -5 32q0 66 55 66h224q47 0 54 -30q3 -15 3 -32q0 -66 -54 -66h-224zM58.5 440q23.5 61 68.5 103q42 40 99.5 61t124.5 21t125 -21t100 -61q45 -42 68.5 -103t23.5 -136q0 -74 -23.5 -135t-66.5 -104q-42 -41 -100 -62t-127 -21 q-68 0 -126 21.5t-100 62.5q-43 43 -66.5 104t-23.5 134q0 75 23.5 136zM250.5 169.5q35.5 -46.5 100.5 -46.5q66 0 101.5 47t35.5 134q0 86 -36 133t-100 47q-66 0 -101.5 -46.5t-35.5 -133.5q0 -88 35.5 -134.5z" glyph-name="Omacron" horiz-adv-x="703" unicode="Ō"/><glyph d="M175 564q-44 0 -53 30q-5 20 -5 32q0 66 55 66h224q47 0 54 -30q3 -15 3 -32q0 -66 -54 -66h-224zM484.5 52.5q-70.5 -68.5 -191.5 -68.5q-119 0 -189 70q-73 68 -73 189q0 58 19 106.5t54 82.5q72 69 189 69q57 0 106 -18t84 -52t53.5 -82.5t18.5 -105.5 q0 -122 -70.5 -190.5zM228.5 150q23.5 -33 65.5 -33t64.5 33t22.5 93t-23 92.5t-65 32.5t-65 -32.5t-23 -92.5t23.5 -93z" glyph-name="omacron" horiz-adv-x="586" unicode="ō"/><glyph d="M209 814q22 30 41 31q3 1 19 1q39 0 64 -17.5t25 -46.5q0 -32 -36 -62l-50 -43q-25 -22 -46 -22l-13 2q-22 6 -30 13q-35 20 -35 46q0 15 9 27zM435 814q22 30 41 31q3 1 19 1q39 0 64 -17.5t25 -46.5q0 -32 -36 -62l-50 -43q-25 -22 -46 -22l-13 2q-22 6 -30 13 q-35 20 -35 46q0 15 9 27zM58.5 440q23.5 61 68.5 103q42 40 99.5 61t124.5 21t125 -21t100 -61q45 -42 68.5 -103t23.5 -136q0 -74 -23.5 -135t-66.5 -104q-42 -41 -100 -62t-127 -21q-68 0 -126 21.5t-100 62.5q-43 43 -66.5 104t-23.5 134q0 75 23.5 136zM250.5 169.5 q35.5 -46.5 100.5 -46.5q66 0 101.5 47t35.5 134q0 86 -36 133t-100 47q-66 0 -101.5 -46.5t-35.5 -133.5q0 -88 35.5 -134.5z" glyph-name="Ohungarumlaut" horiz-adv-x="703" unicode="Ő"/><glyph d="M175 714q12 17 22 25t21 9l24 2q37 0 57.5 -16t20.5 -46q0 -37 -36 -73l-60 -60q-24 -24 -45 -24l-13 2q-22 6 -30 13q-35 20 -35 46q0 15 9 27zM403 714q12 17 22 25t21 9l24 2q37 0 57.5 -16t20.5 -46q0 -37 -36 -73l-60 -60q-24 -24 -45 -24l-13 2q-22 6 -30 13 q-35 20 -35 46q0 15 9 27zM484.5 52.5q-70.5 -68.5 -191.5 -68.5q-119 0 -189 70q-73 68 -73 189q0 58 19 106.5t54 82.5q72 69 189 69q57 0 106 -18t84 -52t53.5 -82.5t18.5 -105.5q0 -122 -70.5 -190.5zM228.5 150q23.5 -33 65.5 -33t64.5 33t22.5 93t-23 92.5t-65 32.5 t-65 -32.5t-23 -92.5t23.5 -93z" glyph-name="ohungarumlaut" horiz-adv-x="586" unicode="ő"/><glyph d="M60.5 441q23.5 61 67.5 102q42 40 99 61t124 21q90 0 152 -45q24 26 69 26h279q46 0 54 -32q5 -22 5 -35q0 -70 -60 -70h-211v-93h184q46 0 54 -32q5 -20 5 -34q0 -70 -59 -70h-184v-105h216q46 0 54 -32q5 -22 5 -35q0 -71 -60 -71h-282q-44 0 -70 27q-67 -42 -151 -42 q-68 0 -125.5 21.5t-99.5 62.5q-43 42 -66 103t-23 135q0 76 23.5 137zM252.5 169.5q35.5 -46.5 100.5 -46.5q82 0 116 58v245q-34 58 -115 58q-66 0 -101.5 -46.5t-35.5 -133.5q0 -88 35.5 -134.5z" glyph-name="OE" horiz-adv-x="952" unicode="Œ"/><glyph d="M465 56q-66 -72 -182 -72q-56 0 -102.5 18t-79.5 52q-34 34 -52 82t-18 107q0 58 18 106.5t52 82.5q33 33 79.5 51t102.5 18q53 0 98 -18t78 -51q32 34 75.5 51.5t92.5 17.5q52 0 96 -15.5t76 -44.5q32 -28 49 -67t17 -85q0 -64 -72 -75l-247 -37q11 -32 43 -49t80 -17 q47 0 98 17q27 8 35 8q19 0 30.5 -17t11.5 -39q0 -38 -30 -60.5t-84 -29.5q-40 -6 -75 -6q-119 0 -190 72zM561 352.5q-25 -24.5 -27 -63.5l171 28q-3 25 -24.5 42.5t-53.5 17.5q-41 0 -66 -24.5zM228.5 150q23.5 -33 65.5 -33t64.5 33t22.5 93t-23 92.5t-65 32.5t-65 -32.5 t-23 -92.5t23.5 -93z" glyph-name="oe" horiz-adv-x="896" unicode="œ"/><glyph d="M325 833q26 15 45 15q10 0 20 -3q56 -15 56 -63q0 -27 -15.5 -44.5t-52.5 -32.5l-105 -41q-22 -9 -36 -9q-15 0 -28.5 8.5t-22.5 23.5q-9 14 -9 28q0 32 31 48zM232 196v-146q0 -49 -40 -53l-41 -2q-51 0 -72 18t-21 65v471q0 20 10.5 32t32.5 19q67 23 175 23 q134 0 206 -56t72 -159q0 -56 -28.5 -101.5t-79.5 -72.5l71 -92q26 -32 37.5 -50.5t11.5 -33.5q0 -16 -12.5 -31.5t-32.5 -24.5q-19 -10 -45 -10q-39 0 -62 15t-45 54l-84 135h-53zM295 329q39 0 60.5 19.5t21.5 57.5q0 39 -24.5 58t-77.5 19q-29 0 -44 -4v-150h64z" glyph-name="Racute" horiz-adv-x="602" unicode="Ŕ"/><glyph d="M237 724q25 18 49 18q13 0 15 -1q30 -7 46.5 -24t16.5 -41q0 -26 -13.5 -43t-46.5 -35l-98 -52q-24 -12 -39 -12q-29 0 -53 33q-11 17 -11 32q0 28 26 46zM222 47q0 -34 -17 -45.5t-39 -10.5l-20 1q-51 0 -72.5 18t-21.5 62v300q0 40 29 65t94 46q59 17 114 17 q104 0 104 -79q0 -12 -1 -14q-4 -35 -54 -40q-24 -1 -59.5 -8.5t-56.5 -16.5v-295z" glyph-name="racute" horiz-adv-x="411" unicode="ŕ"/><glyph d="M232 196v-146q0 -49 -40 -53l-41 -2q-51 0 -72 18t-21 65v471q0 20 10.5 32t32.5 19q67 23 175 23q134 0 206 -56t72 -159q0 -56 -28.5 -101.5t-79.5 -72.5l71 -92q26 -32 37.5 -50.5t11.5 -33.5q0 -16 -12.5 -31.5t-32.5 -24.5q-19 -10 -45 -10q-39 0 -62 15t-45 54 l-84 135h-53zM295 329q39 0 60.5 19.5t21.5 57.5q0 39 -24.5 58t-77.5 19q-29 0 -44 -4v-150h64zM254 -256l-23 2q-28 7 -28 36q0 13 6 28q16 41 22 78q7 43 42 53q22 7 45 7q72 0 72 -52q0 -21 -19 -60.5t-38 -58.5q-31 -33 -79 -33z" glyph-name="Rcommaaccent" horiz-adv-x="602" unicode="Ŗ"/><glyph d="M246 47q0 -34 -17 -45.5t-39 -10.5l-20 1q-51 0 -72.5 18t-21.5 62v300q0 40 29 65t94 46q59 17 114 17q104 0 104 -79q0 -12 -1 -14q-4 -35 -54 -40q-32 -3 -64.5 -10t-51.5 -15v-295zM116 -256l-23 2q-28 7 -28 36q0 13 6 28q16 41 22 78q7 43 42 53q22 7 45 7 q72 0 72 -52q0 -21 -19 -60.5t-38 -58.5q-31 -33 -79 -33z" glyph-name="rcommaaccent" horiz-adv-x="435" unicode="ŗ"/><glyph d="M304 778l67 54q22 19 44 19q12 0 19 -4q18 -7 28.5 -21t10.5 -33q0 -20 -9.5 -34t-36.5 -35l-55 -42q-29 -20 -64 -20q-27 0 -48.5 9t-47.5 32l-52 46q-26 23 -26 46q0 8 3 17q14 39 54 39q21 0 38 -9.5t49 -38.5zM232 196v-146q0 -49 -40 -53l-41 -2q-51 0 -72 18 t-21 65v471q0 20 10.5 32t32.5 19q67 23 175 23q134 0 206 -56t72 -159q0 -56 -28.5 -101.5t-79.5 -72.5l71 -92q26 -32 37.5 -50.5t11.5 -33.5q0 -16 -12.5 -31.5t-32.5 -24.5q-19 -10 -45 -10q-39 0 -62 15t-45 54l-84 135h-53zM295 329q39 0 60.5 19.5t21.5 57.5 q0 39 -24.5 58t-77.5 19q-29 0 -44 -4v-150h64z" glyph-name="Rcaron" horiz-adv-x="602" unicode="Ř"/><glyph d="M235 656q9 9 23 21l29 27l12 12q22 22 44 22q9 0 18 -3q49 -16 49 -61q0 -20 -10 -34.5t-38 -36.5l-45 -37q-37 -31 -79 -31q-28 0 -49 10t-57 41l-47 41q-27 23 -28 32q-1 1 -1 9q0 31 17 50.5t47 19.5q21 0 37 -9.5t44 -37.5zM222 47q0 -34 -17 -45.5t-39 -10.5l-20 1 q-51 0 -72.5 18t-21.5 62v300q0 40 29 65t94 46q59 17 114 17q104 0 104 -79q0 -12 -1 -14q-4 -35 -54 -40q-24 -1 -59.5 -8.5t-56.5 -16.5v-295z" glyph-name="rcaron" horiz-adv-x="428" unicode="ř"/><glyph d="M306 833q26 15 45 15q10 0 20 -3q56 -15 56 -63q0 -27 -15.5 -44.5t-52.5 -32.5l-105 -41q-22 -9 -36 -9q-15 0 -28.5 8.5t-22.5 23.5q-9 14 -9 28q0 32 31 48zM237 241q-54 18 -86.5 33.5t-55.5 34.5q-55 46 -55 127q0 87 66.5 137t182.5 50q94 0 147 -26.5t53 -75.5 q0 -27 -13 -46t-33 -19q-16 0 -33 7q-51 17 -102 17q-45 0 -66 -12q-21 -13 -21 -32q0 -14 12 -23.5t40 -18.5l53 -17q102 -33 148.5 -81t46.5 -122q0 -88 -70 -139t-194 -51q-98 0 -157.5 31t-59.5 84q0 29 15.5 49.5t36.5 20.5q15 0 37 -12q58 -31 122 -31q50 0 69 15 q20 15 20 35q0 18 -13 28.5t-48 22.5z" glyph-name="Sacute" horiz-adv-x="551" unicode="Ś"/><glyph d="M281 724q26 18 49 18q13 0 15 -1q30 -7 46.5 -24t16.5 -41q0 -26 -13.5 -43t-46.5 -35l-98 -52q-24 -12 -39 -12q-29 0 -53 33q-11 17 -11 32q0 28 26 46zM404.5 25q-57.5 -42 -167.5 -42q-91 0 -142.5 26.5t-51.5 74.5q0 24 10.5 40.5t30.5 16.5q17 0 31 -7 q60 -23 115 -23q30 0 47 9t17 24q0 14 -12 22t-40 13l-30 6q-90 18 -131 55t-41 103q0 37 16 67t45 50q62 42 159 42q83 0 130.5 -24t47.5 -68q0 -24 -10.5 -41t-30.5 -17q-9 0 -18 3l-30 9q-39 10 -74 10q-37 0 -52 -7q-17 -8 -17 -24q0 -11 10 -18t38 -13l31 -7 q93 -21 135 -59t42 -101q0 -78 -57.5 -120z" glyph-name="sacute" horiz-adv-x="492" unicode="ś"/><glyph d="M279 734l-72 -51q-25 -18 -44 -18q-13 0 -25.5 7t-20.5 19q-10 13 -10 32q0 21 9.5 36t36.5 33l36 26q53 36 88 36q27 0 45.5 -8.5t45.5 -32.5l52 -46q26 -23 26 -46q0 -8 -3 -17q-13 -39 -54 -39q-20 0 -39 10.5t-48 37.5zM237 241q-54 18 -86.5 33.5t-55.5 34.5 q-55 46 -55 127q0 87 66.5 137t182.5 50q94 0 147 -26.5t53 -75.5q0 -27 -13 -46t-33 -19q-16 0 -33 7q-51 17 -102 17q-45 0 -66 -12q-21 -13 -21 -32q0 -14 12 -23.5t40 -18.5l53 -17q102 -33 148.5 -81t46.5 -122q0 -88 -70 -139t-194 -51q-98 0 -157.5 31t-59.5 84 q0 29 15.5 49.5t36.5 20.5q15 0 37 -12q58 -31 122 -31q50 0 69 15q20 15 20 35q0 18 -13 28.5t-48 22.5z" glyph-name="Scircumflex" horiz-adv-x="551" unicode="Ŝ"/><glyph d="M241 622q-44 -38 -53 -47l-11 -11q-22 -22 -45 -22q-9 0 -18 3q-49 16 -49 61q0 20 11 36t37 35l49 35q24 17 43.5 24.5t39.5 7.5q23 0 36.5 -5t33.5 -19l32 -28l43 -38q26 -25 28 -33q1 -1 1 -9q0 -31 -17 -50.5t-47 -19.5q-20 0 -34 8q-18 10 -46 40zM404.5 25 q-57.5 -42 -167.5 -42q-91 0 -142.5 26.5t-51.5 74.5q0 24 10.5 40.5t30.5 16.5q17 0 31 -7q60 -23 115 -23q30 0 47 9t17 24q0 14 -12 22t-40 13l-30 6q-90 18 -131 55t-41 103q0 37 16 67t45 50q62 42 159 42q83 0 130.5 -24t47.5 -68q0 -24 -10.5 -41t-30.5 -17 q-9 0 -18 3l-30 9q-39 10 -74 10q-37 0 -52 -7q-17 -8 -17 -24q0 -11 10 -18t38 -13l31 -7q93 -21 135 -59t42 -101q0 -78 -57.5 -120z" glyph-name="scircumflex" horiz-adv-x="492" unicode="ŝ"/><glyph d="M366 -87q0 -54 -33 -87t-90 -33q-42 0 -67.5 21.5t-25.5 59.5q0 3 16.5 18t29.5 21q24 12 24 40q0 20 -7 33q-81 6 -127 36t-46 77q0 29 15.5 49.5t36.5 20.5q15 0 37 -12q58 -31 122 -31q50 0 69 15q20 15 20 35q0 18 -13 28.5t-48 22.5l-42 14q-54 18 -86.5 33.5 t-55.5 34.5q-55 46 -55 127q0 87 66.5 137t182.5 50q94 0 147 -26.5t53 -75.5q0 -27 -13 -46t-33 -19q-16 0 -33 7q-51 17 -102 17q-45 0 -66 -12q-21 -13 -21 -32q0 -14 12 -23.5t40 -18.5l53 -17q102 -33 148.5 -81t46.5 -122q0 -70 -45.5 -117.5t-131.5 -64.5 q22 -37 22 -79z" glyph-name="Scedilla" horiz-adv-x="551" unicode="Ş"/><glyph d="M342 -43.5q6 -26.5 6 -43.5q0 -54 -32.5 -86t-88.5 -32q-42 0 -67.5 21.5t-25.5 57.5q0 4 16 19t29 21q27 13 27 42q0 15 -6 29q-76 5 -116.5 30t-40.5 69q0 24 10.5 40.5t30.5 16.5q17 0 31 -7q60 -23 115 -23q30 0 47 9t17 24q0 14 -12 22t-40 13l-30 6q-90 18 -131 55 t-41 103q0 37 16 67t45 50q62 42 159 42q83 0 130.5 -24t47.5 -68q0 -24 -10.5 -41t-30.5 -17q-9 0 -18 3l-30 9q-39 10 -74 10q-37 0 -52 -7q-17 -8 -17 -24q0 -11 10 -18t38 -13l31 -7q93 -21 135 -59t42 -101q0 -59 -34.5 -98t-97.5 -54q6 -10 12 -36.5z" glyph-name="scedilla" horiz-adv-x="492" unicode="ş"/><glyph d="M273 778l67 54q22 19 44 19q12 0 19 -4q18 -7 28.5 -21t10.5 -33q0 -20 -9.5 -34t-36.5 -35l-55 -42q-29 -20 -64 -20q-27 0 -48.5 9t-47.5 32l-52 46q-26 23 -26 46q0 8 3 17q14 39 54 39q21 0 38 -9.5t49 -38.5zM237 241q-54 18 -86.5 33.5t-55.5 34.5q-55 46 -55 127 q0 87 66.5 137t182.5 50q94 0 147 -26.5t53 -75.5q0 -27 -13 -46t-33 -19q-16 0 -33 7q-51 17 -102 17q-45 0 -66 -12q-21 -13 -21 -32q0 -14 12 -23.5t40 -18.5l53 -17q102 -33 148.5 -81t46.5 -122q0 -88 -70 -139t-194 -51q-98 0 -157.5 31t-59.5 84q0 29 15.5 49.5 t36.5 20.5q15 0 37 -12q58 -31 122 -31q50 0 69 15q20 15 20 35q0 18 -13 28.5t-48 22.5z" glyph-name="Scaron" horiz-adv-x="551" unicode="Š"/><glyph d="M240 656q9 9 23 21l29 27l12 12q22 22 44 22q9 0 18 -3q49 -16 49 -61q0 -20 -10 -34.5t-38 -36.5l-45 -37q-37 -31 -79 -31q-28 0 -49 10t-57 41l-47 41q-27 23 -28 32q-1 1 -1 9q0 31 17 50.5t47 19.5q21 0 37 -9.5t44 -37.5zM404.5 25q-57.5 -42 -167.5 -42 q-91 0 -142.5 26.5t-51.5 74.5q0 24 10.5 40.5t30.5 16.5q17 0 31 -7q60 -23 115 -23q30 0 47 9t17 24q0 14 -12 22t-40 13l-30 6q-90 18 -131 55t-41 103q0 37 16 67t45 50q62 42 159 42q83 0 130.5 -24t47.5 -68q0 -24 -10.5 -41t-30.5 -17q-9 0 -18 3l-30 9 q-39 10 -74 10q-37 0 -52 -7q-17 -8 -17 -24q0 -11 10 -18t38 -13l31 -7q93 -21 135 -59t42 -101q0 -78 -57.5 -120z" glyph-name="scaron" horiz-adv-x="492" unicode="š"/><glyph d="M78 466q-45 0 -55 34q-5 22 -5 36q0 36 16.5 54.5t46.5 18.5h395q45 0 55 -34q5 -22 5 -36q0 -36 -16.5 -54.5t-46.5 -18.5h-111v-416q0 -49 -40 -53l-41 -2q-52 0 -73 18t-21 65v388h-109zM232 -256l-23 2q-28 7 -28 36q0 13 6 28q16 41 22 78q7 43 42 53q22 7 45 7 q72 0 72 -52q0 -21 -19 -60.5t-38 -58.5q-31 -33 -79 -33z" glyph-name="uni0162" horiz-adv-x="556" unicode="Ţ"/><glyph d="M222 167q0 -48 63 -48q14 0 16 1l18 1q27 0 37 -12.5t10 -37.5q0 -86 -129 -86q-91 0 -137 42t-46 128v382q0 23 9.5 37t27.5 16q18 3 38 3q51 0 72 -18t21 -63v-64h89q47 0 54 -31q5 -20 5 -33q0 -66 -57 -66h-91v-151zM155 -256l-23 2q-28 7 -28 36q0 13 6 28 q16 41 22 78q7 43 42 53q22 7 45 7q72 0 72 -52q0 -21 -19 -60.5t-38 -58.5q-31 -33 -79 -33z" glyph-name="uni0163" horiz-adv-x="400" unicode="ţ"/><glyph d="M284 778l67 54q22 19 44 19q12 0 19 -4q18 -7 28.5 -21t10.5 -33q0 -20 -9.5 -34t-36.5 -35l-55 -42q-29 -20 -64 -20q-27 0 -48.5 9t-47.5 32l-52 46q-26 23 -26 46q0 8 3 17q14 39 54 39q21 0 38 -9.5t49 -38.5zM78 466q-45 0 -55 34q-5 22 -5 36q0 36 16.5 54.5 t46.5 18.5h395q45 0 55 -34q5 -22 5 -36q0 -36 -16.5 -54.5t-46.5 -18.5h-111v-416q0 -49 -40 -53l-41 -2q-52 0 -73 18t-21 65v388h-109z" glyph-name="Tcaron" horiz-adv-x="556" unicode="Ť"/><glyph d="M530 397q-15 -8 -38 -8q-39 0 -52 15.5t-10 43.5l6 78l5 72q3 36 24.5 49.5t57.5 13.5q85 0 85 -64q0 -42 -15 -91.5t-37 -83.5q-11 -17 -26 -25zM222 167q0 -48 63 -48q14 0 16 1l18 1q27 0 37 -12.5t10 -37.5q0 -86 -129 -86q-91 0 -137 42t-46 128v382q0 23 9.5 37 t27.5 16q18 3 38 3q51 0 72 -18t21 -63v-64h89q47 0 54 -31q5 -20 5 -33q0 -66 -57 -66h-91v-151z" glyph-name="tcaron" horiz-adv-x="628" unicode="ť"/><glyph d="M381 817q14 0 23 6l36 21q8 3 15 3q10 0 17 -4q19 -10 30.5 -28.5t11.5 -42.5q0 -42 -26 -64.5t-72 -22.5q-30 0 -59 8l-40 12q-25 9 -42 9q-14 0 -23 -6q-23 -15 -35 -20q-7 -4 -16 -4q-10 0 -17 4q-19 10 -30.5 28.5t-11.5 42.5q0 39 27.5 63t70.5 24q12 0 32 -3 q18 -3 59 -15q41 -11 50 -11zM602 224q0 -72 -33 -126t-94 -84t-143 -30t-143 30t-94 84t-33 126v336q0 34 17 45t42 11l22 -1q52 0 73 -18t21 -65v-305q0 -47 26 -74.5t69 -27.5t69 27.5t26 74.5v333q0 34 17 45t42 11l22 -1q52 0 73 -18t21 -65v-308z" glyph-name="Utilde" horiz-adv-x="664" unicode="Ũ"/><glyph d="M340 686q14 0 23 6l36 21q8 3 15 3q10 0 17 -4q19 -10 30.5 -28.5t11.5 -42.5q0 -42 -26 -64.5t-72 -22.5q-30 0 -59 8l-40 12q-25 9 -42 9q-14 0 -23 -6q-23 -15 -35 -20q-7 -4 -16 -4q-10 0 -17 4q-19 10 -30.5 28.5t-11.5 42.5q0 39 27.5 63t70.5 24q13 0 32 -3 q18 -3 59 -15q41 -11 50 -11zM52 433q0 34 17 45.5t40 10.5l19 -1q51 0 72.5 -18t21.5 -62v-215q0 -76 78 -76q35 0 60 12v304q0 34 17 45.5t40 10.5l19 -1q51 0 72.5 -18t21.5 -62v-304q0 -43 -31 -68t-94 -40q-49 -12 -106 -12q-119 0 -183 52.5t-64 156.5v240z" glyph-name="utilde" horiz-adv-x="582" unicode="ũ"/><glyph d="M209 693q-44 0 -53 30q-5 20 -5 32q0 66 55 66h224q47 0 54 -30q3 -15 3 -32q0 -66 -54 -66h-224zM602 224q0 -72 -33 -126t-94 -84t-143 -30t-143 30t-94 84t-33 126v336q0 34 17 45t42 11l22 -1q52 0 73 -18t21 -65v-305q0 -47 26 -74.5t69 -27.5t69 27.5t26 74.5v333 q0 34 17 45t42 11l22 -1q52 0 73 -18t21 -65v-308z" glyph-name="Umacron" horiz-adv-x="664" unicode="Ū"/><glyph d="M186 564q-44 0 -53 30q-5 20 -5 32q0 66 55 66h224q47 0 54 -30q3 -15 3 -32q0 -66 -54 -66h-224zM52 433q0 34 17 45.5t40 10.5l19 -1q51 0 72.5 -18t21.5 -62v-215q0 -76 78 -76q35 0 60 12v304q0 34 17 45.5t40 10.5l19 -1q51 0 72.5 -18t21.5 -62v-304q0 -43 -31 -68 t-94 -40q-49 -12 -106 -12q-119 0 -183 52.5t-64 156.5v240z" glyph-name="umacron" horiz-adv-x="582" unicode="ū"/><glyph d="M207 713q-47 29 -47 77q0 32 21.5 52t58.5 20h9q8 0 9 -1q5 -23 25.5 -37.5t50.5 -14.5q33 0 55 19q14 14 19 24q4 10 6 10h14q37 0 58.5 -20t21.5 -52q0 -48 -47 -77t-127 -29t-127 29zM602 224q0 -72 -33 -126t-94 -84t-143 -30t-143 30t-94 84t-33 126v336q0 34 17 45 t42 11l22 -1q52 0 73 -18t21 -65v-305q0 -47 26 -74.5t69 -27.5t69 27.5t26 74.5v333q0 34 17 45t42 11l22 -1q52 0 73 -18t21 -65v-308z" glyph-name="Ubreve" horiz-adv-x="664" unicode="Ŭ"/><glyph d="M166 582q-47 29 -47 77q0 32 21.5 52t58.5 20h9q8 0 9 -1q5 -23 25.5 -37.5t50.5 -14.5q33 0 55 19q14 14 19 24q4 10 6 10h14q37 0 58.5 -20t21.5 -52q0 -48 -47 -77t-127 -29t-127 29zM52 433q0 34 17 45.5t40 10.5l19 -1q51 0 72.5 -18t21.5 -62v-215q0 -76 78 -76 q35 0 60 12v304q0 34 17 45.5t40 10.5l19 -1q51 0 72.5 -18t21.5 -62v-304q0 -43 -31 -68t-94 -40q-49 -12 -106 -12q-119 0 -183 52.5t-64 156.5v240z" glyph-name="ubreve" horiz-adv-x="582" unicode="ŭ"/><glyph d="M240.5 832.5q36.5 30.5 95.5 30.5q62 0 99.5 -30.5t37.5 -78.5t-37.5 -78t-99.5 -30q-59 0 -95.5 30t-36.5 78t36.5 78.5zM314.5 731.5q9.5 -8.5 22.5 -8.5q15 0 24.5 8.5t9.5 22.5t-9.5 22.5t-24.5 8.5q-13 0 -22.5 -8.5t-9.5 -22.5t9.5 -22.5zM602 224q0 -72 -33 -126 t-94 -84t-143 -30t-143 30t-94 84t-33 126v336q0 34 17 45t42 11l22 -1q52 0 73 -18t21 -65v-305q0 -47 26 -74.5t69 -27.5t69 27.5t26 74.5v333q0 34 17 45t42 11l22 -1q52 0 73 -18t21 -65v-308z" glyph-name="Uring" horiz-adv-x="664" unicode="Ů"/><glyph d="M188.5 721.5q36.5 31.5 95.5 31.5q63 0 100 -30.5t37 -81.5q0 -49 -37.5 -80t-99.5 -31q-59 0 -95.5 31t-36.5 80t36.5 80.5zM262.5 616.5q9.5 -9.5 22.5 -9.5q15 0 24.5 9t9.5 25t-9.5 25t-24.5 9q-13 0 -22.5 -9.5t-9.5 -24.5t9.5 -24.5zM52 433q0 34 17 45.5t40 10.5 l19 -1q51 0 72.5 -18t21.5 -62v-215q0 -76 78 -76q35 0 60 12v304q0 34 17 45.5t40 10.5l19 -1q51 0 72.5 -18t21.5 -62v-304q0 -43 -31 -68t-94 -40q-49 -12 -106 -12q-119 0 -183 52.5t-64 156.5v240z" glyph-name="uring" horiz-adv-x="582" unicode="ů"/><glyph d="M192 814q22 30 41 31q3 1 19 1q39 0 64 -17.5t25 -46.5q0 -32 -36 -62l-50 -43q-25 -22 -46 -22l-13 2q-22 6 -30 13q-35 20 -35 46q0 15 9 27zM418 814q22 30 41 31q3 1 19 1q39 0 64 -17.5t25 -46.5q0 -32 -36 -62l-50 -43q-25 -22 -46 -22l-13 2q-22 6 -30 13 q-35 20 -35 46q0 15 9 27zM602 224q0 -72 -33 -126t-94 -84t-143 -30t-143 30t-94 84t-33 126v336q0 34 17 45t42 11l22 -1q52 0 73 -18t21 -65v-305q0 -47 26 -74.5t69 -27.5t69 27.5t26 74.5v333q0 34 17 45t42 11l22 -1q52 0 73 -18t21 -65v-308z" glyph-name="Uhungarumlaut" horiz-adv-x="664" unicode="Ű"/><glyph d="M170 714q12 17 22 25t21 9l24 2q37 0 57.5 -16t20.5 -46q0 -37 -36 -73l-60 -60q-24 -24 -45 -24l-13 2q-22 6 -30 13q-35 20 -35 46q0 15 9 27zM398 714q12 17 22 25t21 9l24 2q37 0 57.5 -16t20.5 -46q0 -37 -36 -73l-60 -60q-24 -24 -45 -24l-13 2q-22 6 -30 13 q-35 20 -35 46q0 15 9 27zM52 433q0 34 17 45.5t40 10.5l19 -1q51 0 72.5 -18t21.5 -62v-215q0 -76 78 -76q35 0 60 12v304q0 34 17 45.5t40 10.5l19 -1q51 0 72.5 -18t21.5 -62v-304q0 -43 -31 -68t-94 -40q-49 -12 -106 -12q-119 0 -183 52.5t-64 156.5v240z" glyph-name="uhungarumlaut" horiz-adv-x="595" unicode="ű"/><glyph d="M113 71q-51 61 -51 153v336q0 34 17 45t42 11l22 -1q52 0 73 -18t21 -65v-305q0 -47 26 -74.5t69 -27.5t69 27.5t26 74.5v333q0 34 17 45t42 11l22 -1q52 0 73 -18t21 -65v-308q0 -97 -56 -159.5t-157 -75.5q-9 -12 -9 -32q0 -18 9.5 -27t33.5 -20l17 -8q2 -2 4 -9l2 -21 q0 -35 -23.5 -54.5t-68.5 -19.5q-57 0 -93 31.5t-36 82.5q0 48 31 79q-92 19 -143 80z" glyph-name="Uogonek" horiz-adv-x="664" unicode="Ų"/><glyph d="M447 -11q-6 -13 -6 -28q0 -20 10.5 -30.5t33.5 -19.5q19 -8 20 -18l2 -21q0 -35 -23.5 -54.5t-68.5 -19.5q-57 0 -93 31.5t-36 82.5q0 41 25 72h-12q-119 0 -183 52.5t-64 156.5v240q0 34 17 45.5t40 10.5l19 -1q51 0 72.5 -18t21.5 -62v-215q0 -76 78 -76q35 0 60 12 v304q0 34 17 45.5t40 10.5l19 -1q51 0 72.5 -18t21.5 -62v-304q0 -30 -15.5 -50.5t-48.5 -36.5q-13 -15 -19 -28z" glyph-name="uogonek" horiz-adv-x="582" unicode="ų"/><glyph d="M440 753q-44 -38 -53 -47l-11 -11q-22 -22 -45 -22q-9 0 -18 3q-49 16 -49 61q0 20 11 36t37 35l49 35q24 17 43.5 24.5t39.5 7.5q23 0 36.5 -5t33.5 -19l32 -28l43 -38q26 -25 28 -33q1 -1 1 -9q0 -31 -17 -50.5t-47 -19.5q-20 0 -34 8q-18 10 -46 40zM341 419 q8 34 29.5 45.5t60.5 11.5q43 0 70.5 -12.5t33.5 -36.5q13 -50 21 -76l18 -68q24 -88 34 -132h5q10 63 29 226l12 106l8 67q5 36 25 48t58 12q43 0 67 -17.5t24 -52.5q0 -48 -16 -156t-39 -207q-21 -86 -32 -123q-12 -35 -40 -46q-38 -16 -91 -16q-49 0 -80.5 12.5 t-38.5 35.5q-20 60 -60 216q-29 -128 -47 -199q-5 -21 -14 -32.5t-24 -18.5q-37 -14 -82 -14q-49 0 -83.5 12.5t-45.5 35.5q-15 31 -41 135.5t-43 203.5q-16 93 -26 157l-1 11q0 32 25.5 47.5t64.5 15.5q83 0 93 -72l44 -281l9 -68l6 -38h5l9 39l25 104z" glyph-name="Wcircumflex" horiz-adv-x="885" unicode="Ŵ"/><glyph d="M397 622q-44 -38 -53 -47l-11 -11q-22 -22 -45 -22q-9 0 -18 3q-49 16 -49 61q0 20 11 36t37 35l49 35q24 17 43.5 24.5t39.5 7.5q23 0 36.5 -5t33.5 -19l32 -28l43 -38q26 -25 28 -33q1 -1 1 -9q0 -31 -17 -50.5t-47 -19.5q-20 0 -34 8q-18 10 -46 40zM335 39 q-15 -51 -102 -51q-42 0 -71.5 11.5t-39.5 32.5q-18 37 -46.5 159.5t-47.5 230.5q-1 2 -1 15q0 29 24 44t60 15q38 0 59 -16.5t26 -52.5q11 -86 24 -170l5 -36l7 -48l4 -27h4q9 45 22 94l6 22l21 85l13 54q6 21 16 33t27 18q27 8 54 8q79 0 92 -45l43 -162l16 -63l10 -44h5 q25 175 37 290q5 44 40 55q28 5 42 5q81 0 81 -67q0 -30 -16 -111.5t-41 -177.5l-11 -50q-10 -41 -23.5 -63t-32.5 -28q-36 -11 -75 -11q-58 0 -85 30t-38 75l-10 43q-21 68 -34 137q-10 -51 -37 -145l-20 -65z" glyph-name="wcircumflex" horiz-adv-x="800" unicode="ŵ"/><glyph d="M289 753q-44 -38 -53 -47l-11 -11q-22 -22 -45 -22q-9 0 -18 3q-49 16 -49 61q0 20 11 36t37 35l49 35q24 17 43.5 24.5t39.5 7.5q23 0 36.5 -5t33.5 -19l32 -28l43 -38q26 -25 28 -33q1 -1 1 -9q0 -31 -17 -50.5t-47 -19.5q-20 0 -34 8q-18 10 -46 40zM383 50 q0 -23 -10 -37t-29 -16l-40 -2q-51 0 -71.5 17.5t-20.5 63.5v135q-126 185 -186 313q-7 13 -7 28q0 24 24 40.5t58 16.5q40 0 64.5 -17t45.5 -59l83 -167h6q21 46 45 108l21 53q10 26 15.5 38t14.5 22q22 22 77 22q39 0 61.5 -19.5t22.5 -54.5q0 -7 -5 -29q-5 -17 -23 -51 q-54 -101 -146 -248v-157z" glyph-name="Ycircumflex" horiz-adv-x="574" unicode="Ŷ"/><glyph d="M268 622q-44 -38 -53 -47l-11 -11q-22 -22 -45 -22q-9 0 -18 3q-49 16 -49 61q0 20 11 36t37 35l49 35q24 17 43.5 24.5t39.5 7.5q23 0 36.5 -5t33.5 -19l32 -28l43 -38q26 -25 28 -33q1 -1 1 -9q0 -31 -17 -50.5t-47 -19.5q-20 0 -34 8q-18 10 -46 40zM77.5 255.5 q-26.5 80.5 -47.5 164.5q-3 11 -3 21q0 26 23.5 40.5t58.5 14.5q39 0 60 -15.5t32 -53.5l79 -275h4q19 55 41.5 139.5t34.5 147.5q6 34 27.5 45.5t58.5 11.5q81 0 81 -67q0 -48 -23.5 -131t-61.5 -173q-41 -97 -84 -167.5t-84 -103.5q-37 -31 -90 -31q-30 0 -52.5 13.5 t-34.5 37.5q-6 12 -6 22q0 20 25 42q47 38 91 93q-16 5 -36 24q-21 21 -43 69q-24 51 -50.5 131.5z" glyph-name="ycircumflex" unicode="ŷ"/><glyph d="M115.5 816q25.5 25 61.5 25q39 0 64.5 -24.5t25.5 -61.5t-25.5 -61.5t-64.5 -24.5q-36 0 -61.5 25t-25.5 61t25.5 61zM338.5 817q24.5 24 64.5 24q37 0 62.5 -25.5t25.5 -60.5q0 -36 -25 -61t-63 -25q-39 0 -64 24.5t-25 61.5q0 38 24.5 62zM383 50q0 -23 -10 -37 t-29 -16l-40 -2q-51 0 -71.5 17.5t-20.5 63.5v135q-126 185 -186 313q-7 13 -7 28q0 24 24 40.5t58 16.5q40 0 64.5 -17t45.5 -59l83 -167h6q21 46 45 108l21 53q10 26 15.5 38t14.5 22q22 22 77 22q39 0 61.5 -19.5t22.5 -54.5q0 -7 -5 -29q-5 -17 -23 -51 q-54 -101 -146 -248v-157z" glyph-name="Ydieresis" horiz-adv-x="574" unicode="Ÿ"/><glyph d="M309 833q25 15 45 15q10 0 20 -3q56 -15 56 -63q0 -27 -15.5 -44.5t-52.5 -32.5l-105 -41q-23 -9 -36 -9q-15 0 -28.5 8.5t-22.5 23.5q-9 14 -9 28q0 32 31 48zM308 466h-205q-45 0 -55 34q-5 22 -5 36q0 36 16.5 54.5t46.5 18.5h337q22 0 36.5 -6t23.5 -20 q20 -32 20 -70q0 -46 -41 -96l-227 -274h215q45 0 55 -34q5 -22 5 -36q0 -36 -16.5 -54.5t-46.5 -18.5h-358q-22 0 -36 6.5t-23 21.5q-16 25 -16 65q0 23 11.5 49t32.5 50z" glyph-name="Zacute" horiz-adv-x="560" unicode="Ź"/><glyph d="M257 724q26 18 49 18q13 0 15 -1q30 -7 46.5 -24t16.5 -41q0 -26 -13.5 -43t-46.5 -35l-98 -52q-24 -12 -39 -12q-29 0 -53 33q-11 17 -11 32q0 28 26 46zM105 0q-36 0 -53.5 20.5t-17.5 55.5q0 36 33 76l172 202h-142q-47 0 -54 31q-5 22 -5 34q0 66 57 66h279 q36 0 53.5 -20.5t17.5 -55.5t-33 -76l-168 -202h154q47 0 54 -31q5 -22 5 -34q0 -66 -57 -66h-295z" glyph-name="zacute" horiz-adv-x="481" unicode="ź"/><glyph d="M219 816q25 25 64 25q41 0 66 -24t25 -63t-25 -63t-66 -24q-39 0 -64 25t-25 62t25 62zM308 466h-205q-45 0 -55 34q-5 22 -5 36q0 36 16.5 54.5t46.5 18.5h337q22 0 36.5 -6t23.5 -20q20 -32 20 -70q0 -46 -41 -96l-227 -274h215q45 0 55 -34q5 -22 5 -36 q0 -36 -16.5 -54.5t-46.5 -18.5h-358q-22 0 -36 6.5t-23 21.5q-16 25 -16 65q0 23 11.5 49t32.5 50z" glyph-name="Zdotaccent" horiz-adv-x="560" unicode="Ż"/><glyph d="M181 688q25 25 64 25q41 0 66 -24t25 -63t-25 -63t-66 -24q-39 0 -64 25t-25 62t25 62zM105 -1q-36 0 -53.5 20.5t-17.5 55.5q0 36 33 76l172 202h-142q-47 0 -54 31q-5 22 -5 34q0 66 57 66h279q36 0 53.5 -20.5t17.5 -55.5t-33 -76l-168 -202h154q47 0 54 -31 q5 -22 5 -34q0 -66 -57 -66h-295z" glyph-name="zdotaccent" horiz-adv-x="481" unicode="ż"/><glyph d="M289 778l67 54q22 19 44 19q12 0 19 -4q18 -7 28.5 -21t10.5 -33q0 -20 -9.5 -34t-36.5 -35l-55 -42q-29 -20 -64 -20q-27 0 -48.5 9t-47.5 32l-52 46q-26 23 -26 46q0 8 3 17q14 39 54 39q21 0 38 -9.5t49 -38.5zM308 466h-205q-45 0 -55 34q-5 22 -5 36q0 36 16.5 54.5 t46.5 18.5h337q22 0 36.5 -6t23.5 -20q20 -32 20 -70q0 -46 -41 -96l-227 -274h215q45 0 55 -34q5 -22 5 -36q0 -36 -16.5 -54.5t-46.5 -18.5h-358q-22 0 -36 6.5t-23 21.5q-16 25 -16 65q0 23 11.5 49t32.5 50z" glyph-name="Zcaron" horiz-adv-x="560" unicode="Ž"/><glyph d="M243 656q9 9 23 21l29 27l12 12q22 22 44 22q9 0 18 -3q49 -16 49 -61q0 -20 -10 -34.5t-38 -36.5l-45 -37q-37 -31 -79 -31q-28 0 -49 10t-57 41l-47 41q-27 23 -28 32q-1 1 -1 9q0 31 17 50.5t47 19.5q21 0 37 -9.5t44 -37.5zM105 0q-36 0 -53.5 20.5t-17.5 55.5 q0 36 33 76l172 202h-142q-47 0 -54 31q-5 22 -5 34q0 66 57 66h279q36 0 53.5 -20.5t17.5 -55.5t-33 -76l-168 -202h154q47 0 54 -31q5 -22 5 -34q0 -66 -57 -66h-295z" glyph-name="zcaron" horiz-adv-x="481" unicode="ž"/><glyph d="M127 341l324 49q-20 46 -62 70.5t-104 24.5q-51 0 -100 -18l-36 -15q-20 -11 -36 -11q-21 0 -34 19t-13 47q0 27 18 50t50 38q62 31 169 31q67 0 127.5 -22t105.5 -64q49 -46 75 -110t26 -142q0 -150 -85 -229q-39 -37 -94.5 -56t-121.5 -19q-59 0 -112.5 18.5 t-95.5 52.5q-90 75 -90 199q0 73 89 87zM435 159q34 36 34 104l-256 -40q5 -45 37.5 -72.5t82.5 -27.5q68 0 102 36z" glyph-name="uni018F" horiz-adv-x="676" unicode="Ə"/><glyph d="M58.5 440q23.5 61 68.5 103q42 40 99.5 61t124.5 21q84 0 152 -32.5t109 -92.5q11 20 17 43.5t10 60.5q4 46 34 54q14 3 33 3q38 0 59.5 -17.5t21.5 -50.5q0 -67 -35 -121.5t-94 -75.5q10 -37 10 -92q0 -74 -23.5 -135t-66.5 -104q-42 -41 -100 -62t-127 -21 q-68 0 -126 21.5t-100 62.5q-43 43 -66.5 104t-23.5 134q0 75 23.5 136zM250.5 169.5q35.5 -46.5 100.5 -46.5q66 0 101.5 47t35.5 134q0 86 -36 133t-100 47q-66 0 -101.5 -46.5t-35.5 -133.5q0 -88 35.5 -134.5z" glyph-name="Ohorn" horiz-adv-x="767" unicode="Ơ"/><glyph d="M484.5 52.5q-70.5 -68.5 -191.5 -68.5q-119 0 -189 70q-73 68 -73 189q0 58 19 106.5t54 82.5q72 69 189 69q119 0 193 -74q21 40 28 107q4 46 34 54q14 3 33 3q38 0 59.5 -17.5t21.5 -50.5q0 -62 -33 -116t-87 -77q13 -40 13 -87q0 -122 -70.5 -190.5zM228.5 150 q23.5 -33 65.5 -33t64.5 33t22.5 93t-23 92.5t-65 32.5t-65 -32.5t-23 -92.5t23.5 -93z" glyph-name="ohorn" horiz-adv-x="652" unicode="ơ"/><glyph d="M598 494q21 19 33.5 45.5t18.5 64.5q6 47 35 54q13 3 33 3q38 0 59.5 -17.5t21.5 -50.5q0 -88 -63 -154q-26 -29 -62 -48.5t-76 -28.5v-138q0 -72 -33 -126t-94 -84t-143 -30t-143 30t-94 84t-33 126v336q0 34 17 45t42 11l22 -1q52 0 73 -18t21 -65v-305q0 -47 26 -74.5 t69 -27.5t69 27.5t26 74.5v333q0 34 17 45t42 11l22 -1q52 0 73 -18t21 -65v-38z" glyph-name="Uhorn" horiz-adv-x="779" unicode="Ư"/><glyph d="M52 433q0 34 17 45.5t40 10.5l19 -1q51 0 72.5 -18t21.5 -62v-215q0 -76 78 -76q35 0 60 12v304q0 31 15.5 43.5t42.5 12.5q56 0 80 -12t30 -46q19 21 29.5 45t15.5 58q6 47 35 54q13 3 33 3q38 0 59.5 -17.5t21.5 -50.5q0 -85 -60 -150q-26 -29 -60.5 -49.5t-71.5 -29.5 v-190q0 -43 -31 -68t-94 -40q-49 -12 -106 -12q-119 0 -183 52.5t-64 156.5v240z" glyph-name="uhorn" horiz-adv-x="712" unicode="ư"/><glyph d="M310 778l67 54q22 19 44 19q12 0 19 -4q18 -7 28.5 -21t10.5 -33q0 -20 -9.5 -34t-36.5 -35l-55 -42q-29 -20 -64 -20q-27 0 -48.5 9t-47.5 32l-52 46q-26 23 -26 46q0 8 3 17q14 39 54 39q21 0 38 -9.5t49 -38.5zM181 555q24 61 134 61q55 0 91 -15.5t47 -44.5 q34 -97 81 -263l65 -232q3 -12 3 -22q0 -26 -22 -37.5t-63 -11.5q-45 0 -64.5 14t-31.5 53l-18 69h-181l-16 -62l-6 -24q-11 -41 -43 -47q-15 -3 -34 -3q-48 0 -74 17.5t-26 48.5q0 19 4 28q5 14 9 33q13 50 47 154l32 95l32 93zM314 459l-31 -93q-19 -53 -32 -105h124 q-33 126 -55 198h-6z" glyph-name="uni01CD" horiz-adv-x="627" unicode="Ǎ"/><glyph d="M273 656q9 9 23 21l29 27l12 12q22 22 44 22q9 0 18 -3q49 -16 49 -61q0 -20 -10 -34.5t-38 -36.5l-45 -37q-37 -31 -79 -31q-28 0 -49 10t-57 41l-47 41q-27 23 -28 32q-1 1 -1 9q0 31 17 50.5t47 19.5q21 0 37 -9.5t44 -37.5zM430 454.5q62 -46.5 62 -136.5v-224 q0 -23 -11.5 -39.5t-37.5 -31.5q-64 -39 -183 -39q-111 0 -171.5 41.5t-60.5 121.5q0 69 41 106t127 46l131 14v7q0 54 -99 54q-43 0 -99 -14q-20 -5 -29 -5q-20 0 -31 16.5t-11 40.5q0 26 11.5 41t39.5 27q53 21 143 21q116 0 178 -46.5zM299.5 111.5q19.5 3.5 28.5 9.5v80 l-72 -6q-64 -4 -64 -42q0 -45 68 -45q20 0 39.5 3.5z" glyph-name="uni01CE" horiz-adv-x="544" unicode="ǎ"/><glyph d="M145 778l67 54q22 19 44 19q12 0 19 -4q18 -7 28.5 -21t10.5 -33q0 -20 -9.5 -34t-36.5 -35l-55 -42q-29 -20 -64 -20q-27 0 -48.5 9t-47.5 32l-52 46q-26 23 -26 46q0 8 3 17q14 39 54 39q21 0 38 -9.5t49 -38.5zM240 50q0 -49 -40 -53l-41 -2q-52 0 -73 18t-21 65v482 q0 34 17 45t42 11l22 -1q52 0 73 -18t21 -65v-482z" glyph-name="uni01CF" horiz-adv-x="305" unicode="Ǐ"/><glyph d="M142 656q9 9 23 21l29 27l12 12q22 22 44 22q9 0 18 -3q49 -16 49 -61q0 -20 -10 -34.5t-38 -36.5l-45 -37q-37 -31 -79 -31q-28 0 -49 10t-57 41l-47 41q-27 23 -28 32q-1 1 -1 9q0 31 17 50.5t47 19.5q21 0 37 -9.5t44 -37.5zM226 47q0 -34 -15.5 -45t-38.5 -10h-22 q-51 0 -72.5 18t-21.5 62v361q0 34 15 45t39 11l22 -1q51 0 72.5 -18t21.5 -62v-361z" glyph-name="uni01D0" horiz-adv-x="282" unicode="ǐ"/><glyph d="M349 778l67 54q22 19 44 19q12 0 19 -4q18 -7 28.5 -21t10.5 -33q0 -20 -9.5 -34t-36.5 -35l-55 -42q-29 -20 -64 -20q-27 0 -48.5 9t-47.5 32l-52 46q-26 23 -26 46q0 8 3 17q13 39 54 39q21 0 38 -9.5t49 -38.5zM58.5 440q23.5 61 68.5 103q42 40 99.5 61t124.5 21 t125 -21t100 -61q45 -42 68.5 -103t23.5 -136q0 -74 -23.5 -135t-66.5 -104q-42 -41 -100 -62t-127 -21q-68 0 -126 21.5t-100 62.5q-43 43 -66.5 104t-23.5 134q0 75 23.5 136zM250.5 169.5q35.5 -46.5 100.5 -46.5q66 0 101.5 47t35.5 134q0 86 -36 133t-100 47 q-66 0 -101.5 -46.5t-35.5 -133.5q0 -88 35.5 -134.5z" glyph-name="uni01D1" horiz-adv-x="703" unicode="Ǒ"/><glyph d="M293 656q9 9 23 21l29 27l12 12q22 22 44 22q9 0 18 -3q49 -16 49 -61q0 -20 -10 -34.5t-38 -36.5l-45 -37q-37 -31 -79 -31q-28 0 -49 10t-57 41l-47 41q-27 23 -28 32q-1 1 -1 9q0 31 17 50.5t47 19.5q21 0 37 -9.5t44 -37.5zM484.5 52.5q-70.5 -68.5 -191.5 -68.5 q-119 0 -189 70q-73 68 -73 189q0 58 19 106.5t54 82.5q72 69 189 69q57 0 106 -18t84 -52t53.5 -82.5t18.5 -105.5q0 -122 -70.5 -190.5zM228.5 150q23.5 -33 65.5 -33t64.5 33t22.5 93t-23 92.5t-65 32.5t-65 -32.5t-23 -92.5t23.5 -93z" glyph-name="uni01D2" horiz-adv-x="586" unicode="ǒ"/><glyph d="M318 778l67 54q22 19 44 19q12 0 19 -4q18 -7 28.5 -21t10.5 -33q0 -20 -9.5 -34t-36.5 -35l-55 -42q-29 -20 -64 -20q-27 0 -48.5 9t-47.5 32l-52 46q-26 23 -26 46q0 8 3 17q14 39 54 39q21 0 38 -9.5t49 -38.5zM602 224q0 -72 -33 -126t-94 -84t-143 -30t-143 30 t-94 84t-33 126v336q0 34 17 45t42 11l22 -1q52 0 73 -18t21 -65v-305q0 -47 26 -74.5t69 -27.5t69 27.5t26 74.5v333q0 34 17 45t42 11l22 -1q52 0 73 -18t21 -65v-308z" glyph-name="uni01D3" horiz-adv-x="664" unicode="Ǔ"/><glyph d="M291 656q9 9 23 21l29 27l12 12q22 22 44 22q9 0 18 -3q49 -16 49 -61q0 -20 -10 -34.5t-38 -36.5l-45 -37q-37 -31 -79 -31q-28 0 -49 10t-57 41l-47 41q-27 23 -28 32q-1 1 -1 9q0 31 17 50.5t47 19.5q21 0 37 -9.5t44 -37.5zM52 433q0 34 17 45.5t40 10.5l19 -1 q51 0 72.5 -18t21.5 -62v-215q0 -76 78 -76q35 0 60 12v304q0 34 17 45.5t40 10.5l19 -1q51 0 72.5 -18t21.5 -62v-304q0 -43 -31 -68t-94 -40q-49 -12 -106 -12q-119 0 -183 52.5t-64 156.5v240z" glyph-name="uni01D4" horiz-adv-x="582" unicode="ǔ"/><glyph d="M217 892q-44 0 -53 30q-5 20 -5 32q0 66 55 66h224q47 0 54 -30q3 -15 3 -32q0 -66 -54 -66h-224zM150.5 816q25.5 25 61.5 25q39 0 64.5 -24.5t25.5 -61.5t-25.5 -61.5t-64.5 -24.5q-36 0 -61.5 25t-25.5 61t25.5 61zM373.5 817q24.5 24 64.5 24q37 0 62.5 -25.5 t25.5 -60.5q0 -36 -25 -61t-63 -25q-39 0 -64 24.5t-25 61.5q0 38 24.5 62zM602 224q0 -72 -33 -126t-94 -84t-143 -30t-143 30t-94 84t-33 126v336q0 34 17 45t42 11l22 -1q52 0 73 -18t21 -65v-305q0 -47 26 -74.5t69 -27.5t69 27.5t26 74.5v333q0 34 17 45t42 11l22 -1 q52 0 73 -18t21 -65v-308z" glyph-name="uni01D5" horiz-adv-x="664" unicode="Ǖ"/><glyph d="M184 774q-44 0 -53 30q-5 20 -5 32q0 66 55 66h224q47 0 54 -30q3 -15 3 -32q0 -66 -54 -66h-224zM118.5 698q25.5 25 61.5 25q39 0 64.5 -24.5t25.5 -61.5t-25.5 -61.5t-64.5 -24.5q-36 0 -61.5 25t-25.5 61t25.5 61zM341.5 699q24.5 24 64.5 24q37 0 62.5 -25.5 t25.5 -60.5q0 -36 -25 -61t-63 -25q-39 0 -64 24.5t-25 61.5q0 38 24.5 62zM52 433q0 34 17 45.5t40 10.5l19 -1q51 0 72.5 -18t21.5 -62v-215q0 -76 78 -76q35 0 60 12v304q0 34 17 45.5t40 10.5l19 -1q51 0 72.5 -18t21.5 -62v-304q0 -43 -31 -68t-94 -40 q-49 -12 -106 -12q-119 0 -183 52.5t-64 156.5v240z" glyph-name="uni01D6" horiz-adv-x="582" unicode="ǖ"/><glyph d="M337 825q13 16 22.5 23t20.5 8l22 2q33 0 53 -18.5t20 -48.5q0 -37 -40 -70l-63 -51q-25 -22 -33 -22h-8q-31 0 -53 18t-22 42q0 20 16 39zM86 786.5q24 24.5 59 24.5q38 0 62.5 -24t24.5 -58q0 -36 -24 -59t-63 -23q-35 0 -59 24t-24 58q0 33 24 57.5zM510 787.5 q24 23.5 61 23.5q36 0 60.5 -24t24.5 -58t-24.5 -58t-60.5 -24q-38 0 -61.5 23t-23.5 59q0 35 24 58.5zM633 224q0 -72 -33 -126t-94 -84t-143 -30t-143 30t-94 84t-33 126v336q0 34 17 45t42 11l22 -1q52 0 73 -18t21 -65v-305q0 -47 26 -74.5t69 -27.5t69 27.5t26 74.5 v333q0 34 17 45t42 11l22 -1q52 0 73 -18t21 -65v-308z" glyph-name="uni01D7" horiz-adv-x="718" unicode="Ǘ"/><glyph d="M318 906q26 20 50 20q12 0 14 -1q63 -12 63 -62q0 -26 -13.5 -43t-46.5 -35l-65 -37q-19 -13 -39 -13q-12 0 -27 9t-26 24q-11 17 -11 32q0 26 26 46zM113.5 698q25.5 25 61.5 25q39 0 64.5 -24.5t25.5 -61.5t-25.5 -61.5t-64.5 -24.5q-36 0 -61.5 25t-25.5 61t25.5 61z M336.5 699q24.5 24 64.5 24q37 0 62.5 -25.5t25.5 -60.5q0 -36 -25 -61t-63 -25q-39 0 -64 24.5t-25 61.5q0 38 24.5 62zM52 433q0 34 17 45.5t40 10.5l19 -1q51 0 72.5 -18t21.5 -62v-215q0 -76 78 -76q35 0 60 12v304q0 34 17 45.5t40 10.5l19 -1q51 0 72.5 -18t21.5 -62 v-304q0 -43 -31 -68t-94 -40q-49 -12 -106 -12q-119 0 -183 52.5t-64 156.5v240z" glyph-name="uni01D8" horiz-adv-x="582" unicode="ǘ"/><glyph d="M327 939l67 54q22 19 44 19q12 0 19 -4q18 -7 28.5 -21t10.5 -33q0 -20 -9.5 -34t-36.5 -35l-55 -42q-29 -20 -64 -20q-27 0 -48.5 9t-47.5 32l-52 46q-26 23 -26 46q0 8 3 17q14 39 54 39q21 0 38 -9.5t49 -38.5zM126 806.5q24 24.5 59 24.5q38 0 62.5 -24t24.5 -58 q0 -36 -24 -59t-63 -23q-35 0 -59 24t-24 58q0 33 24 57.5zM415 807.5q24 23.5 61 23.5q36 0 60.5 -24t24.5 -58t-24.5 -58t-60.5 -24q-38 0 -61.5 23t-23.5 59q0 35 24 58.5zM602 224q0 -72 -33 -126t-94 -84t-143 -30t-143 30t-94 84t-33 126v336q0 34 17 45t42 11l22 -1 q52 0 73 -18t21 -65v-305q0 -47 26 -74.5t69 -27.5t69 27.5t26 74.5v333q0 34 17 45t42 11l22 -1q52 0 73 -18t21 -65v-308z" glyph-name="uni01D9" horiz-adv-x="664" unicode="Ǚ"/><glyph d="M283 859l67 54q22 19 44 19q12 0 19 -4q18 -7 28.5 -21t10.5 -33q0 -20 -9.5 -34t-36.5 -35l-55 -42q-29 -20 -64 -20q-27 0 -48.5 9t-47.5 32l-52 46q-26 23 -26 46q0 8 3 17q14 39 54 39q21 0 38 -9.5t49 -38.5zM113.5 698q25.5 25 61.5 25q39 0 64.5 -24.5t25.5 -61.5 t-25.5 -61.5t-64.5 -24.5q-36 0 -61.5 25t-25.5 61t25.5 61zM336.5 699q24.5 24 64.5 24q37 0 62.5 -25.5t25.5 -60.5q0 -36 -25 -61t-63 -25q-39 0 -64 24.5t-25 61.5q0 38 24.5 62zM52 433q0 34 17 45.5t40 10.5l19 -1q51 0 72.5 -18t21.5 -62v-215q0 -76 78 -76 q35 0 60 12v304q0 34 17 45.5t40 10.5l19 -1q51 0 72.5 -18t21.5 -62v-304q0 -43 -31 -68t-94 -40q-49 -12 -106 -12q-119 0 -183 52.5t-64 156.5v240z" glyph-name="uni01DA" horiz-adv-x="582" unicode="ǚ"/><glyph d="M268 747q-21 24 -21 44q0 8 3 17q13 34 40 46q14 6 25 6q29 0 48 -13t41 -46l40 -58q15 -22 15 -39q0 -13 -9 -28q-19 -31 -54 -31q-18 0 -37 10.5t-35 28.5zM86 786.5q24 24.5 59 24.5q38 0 62.5 -24t24.5 -58q0 -36 -24 -59t-63 -23q-35 0 -59 24t-24 58q0 33 24 57.5z M510 787.5q24 23.5 61 23.5q36 0 60.5 -24t24.5 -58t-24.5 -58t-60.5 -24q-38 0 -61.5 23t-23.5 59q0 35 24 58.5zM633 224q0 -72 -33 -126t-94 -84t-143 -30t-143 30t-94 84t-33 126v336q0 34 17 45t42 11l22 -1q52 0 73 -18t21 -65v-305q0 -47 26 -74.5t69 -27.5t69 27.5 t26 74.5v333q0 34 17 45t42 11l22 -1q52 0 73 -18t21 -65v-308z" glyph-name="uni01DB" horiz-adv-x="718" unicode="Ǜ"/><glyph d="M154 801q-20 14 -26.5 21t-6.5 16q0 40 19 64t52 24q23 0 40.5 -8.5t39.5 -29.5l55 -50q25 -22 25 -45q0 -12 -4 -19q-9 -22 -24.5 -34t-33.5 -12q-30 0 -64 24zM113.5 698q25.5 25 61.5 25q39 0 64.5 -24.5t25.5 -61.5t-25.5 -61.5t-64.5 -24.5q-36 0 -61.5 25t-25.5 61 t25.5 61zM336.5 699q24.5 24 64.5 24q37 0 62.5 -25.5t25.5 -60.5q0 -36 -25 -61t-63 -25q-39 0 -64 24.5t-25 61.5q0 38 24.5 62zM52 433q0 34 17 45.5t40 10.5l19 -1q51 0 72.5 -18t21.5 -62v-215q0 -76 78 -76q35 0 60 12v304q0 34 17 45.5t40 10.5l19 -1q51 0 72.5 -18 t21.5 -62v-304q0 -43 -31 -68t-94 -40q-49 -12 -106 -12q-119 0 -183 52.5t-64 156.5v240z" glyph-name="uni01DC" horiz-adv-x="582" unicode="ǜ"/><glyph d="M342 778l67 54q22 19 44 19q12 0 19 -4q18 -7 28.5 -21t10.5 -33q0 -20 -9.5 -34t-36.5 -35l-55 -42q-29 -20 -64 -20q-27 0 -48.5 9t-47.5 32l-52 46q-26 23 -26 46q0 8 3 17q14 39 54 39q21 0 38 -9.5t49 -38.5zM614 99q0 -29 -9.5 -44.5t-36.5 -30.5q-30 -18 -81 -29 t-107 -11q-73 0 -136 20t-108 59q-49 40 -75 100t-26 135q0 77 28 139.5t80 105.5q47 39 108.5 59.5t130.5 20.5q93 0 149.5 -30.5t56.5 -79.5q0 -28 -12.5 -46t-33.5 -18q-12 0 -34 8q-50 25 -110 25q-84 0 -133.5 -48.5t-49.5 -132.5q0 -85 45 -131t122 -46q43 0 65 13v94 h-65q-46 0 -54 32q-5 22 -5 35q0 68 59 68h169q30 0 46.5 -16.5t16.5 -46.5v-204z" glyph-name="Gcaron" horiz-adv-x="664" unicode="Ǧ"/><glyph d="M283 656q9 9 23 21l29 27l12 12q22 22 44 22q9 0 18 -3q49 -16 49 -61q0 -20 -10 -34.5t-38 -36.5l-45 -37q-37 -31 -79 -31q-28 0 -49 10t-57 41l-47 41q-27 23 -28 32q-1 1 -1 9q0 31 17 50.5t47 19.5q21 0 37 -9.5t44 -37.5zM471 449q23 -16 33 -33t10 -42v-350 q0 -97 -68.5 -151t-186.5 -54q-195 0 -195 104q0 24 10 40t30 16q13 0 30 -7q55 -20 102 -20q118 0 118 76v16q-40 -18 -100 -18q-46 0 -86.5 14.5t-69.5 41.5q-68 63 -68 180q0 114 69 176.5t190 62.5q108 0 182 -52zM351 356q-22 12 -54 12q-48 0 -73 -27.5t-25 -78.5 q0 -53 22.5 -81t64.5 -28q43 0 65 19v184z" glyph-name="gcaron" horiz-adv-x="567" unicode="ǧ"/><glyph d="M237 241q-54 18 -86.5 33.5t-55.5 34.5q-55 46 -55 127q0 87 66.5 137t182.5 50q94 0 147 -26.5t53 -75.5q0 -27 -13 -46t-33 -19q-16 0 -33 7q-51 17 -102 17q-45 0 -66 -12q-21 -13 -21 -32q0 -14 12 -23.5t40 -18.5l53 -17q102 -33 148.5 -81t46.5 -122 q0 -88 -70 -139t-194 -51q-98 0 -157.5 31t-59.5 84q0 29 15.5 49.5t36.5 20.5q15 0 37 -12q58 -31 122 -31q50 0 69 15q20 15 20 35q0 18 -13 28.5t-48 22.5zM242 -256l-23 2q-28 7 -28 36q0 13 6 28q16 41 22 78q7 43 42 53q22 7 45 7q72 0 72 -52q0 -21 -19 -60.5 t-38 -58.5q-32 -33 -79 -33z" glyph-name="Scommaaccent" horiz-adv-x="551" unicode="Ș"/><glyph d="M404.5 25q-57.5 -42 -167.5 -42q-91 0 -142.5 26.5t-51.5 74.5q0 24 10.5 40.5t30.5 16.5q17 0 31 -7q60 -23 115 -23q30 0 47 9t17 24q0 14 -12 22t-40 13l-30 6q-90 18 -131 55t-41 103q0 37 16 67t45 50q62 42 159 42q83 0 130.5 -24t47.5 -68q0 -24 -10.5 -41 t-30.5 -17q-9 0 -18 3l-30 9q-39 10 -74 10q-37 0 -52 -7q-17 -8 -17 -24q0 -11 10 -18t38 -13l31 -7q93 -21 135 -59t42 -101q0 -78 -57.5 -120zM214 -256l-23 2q-28 7 -28 36q0 13 6 28q16 41 22 78q7 43 42 53q22 7 45 7q72 0 72 -52q0 -21 -19 -60.5t-38 -58.5 q-31 -33 -79 -33z" glyph-name="scommaaccent" horiz-adv-x="492" unicode="ș"/><glyph d="M78 466q-45 0 -55 34q-5 22 -5 36q0 36 16.5 54.5t46.5 18.5h395q45 0 55 -34q5 -22 5 -36q0 -36 -16.5 -54.5t-46.5 -18.5h-111v-416q0 -49 -40 -53l-41 -2q-52 0 -73 18t-21 65v388h-109zM220 -256l-23 2q-28 7 -28 36q0 13 6 28q16 41 22 78q7 43 42 53q22 7 45 7 q72 0 72 -52q0 -21 -19 -60.5t-38 -58.5q-32 -33 -79 -33z" glyph-name="uni021A" horiz-adv-x="556" unicode="Ț"/><glyph d="M222 167q0 -48 63 -48q14 0 16 1l18 1q27 0 37 -12.5t10 -37.5q0 -86 -129 -86q-91 0 -137 42t-46 128v382q0 23 9.5 37t27.5 16q18 3 38 3q51 0 72 -18t21 -63v-64h89q47 0 54 -31q5 -20 5 -33q0 -66 -57 -66h-91v-151zM164 -256l-23 2q-28 7 -28 36q0 13 6 28 q16 41 22 78q7 43 42 53q22 7 45 7q72 0 72 -52q0 -21 -19 -60.5t-38 -58.5q-32 -33 -79 -33z" glyph-name="uni021B" horiz-adv-x="394" unicode="ț"/><glyph d="M-5 -100q0 16 11 24l13 8q42 29 42 93v408q0 34 15 45t39 11l22 -1q51 0 72.5 -18t21.5 -62v-399q0 -84 -38.5 -135t-104.5 -51q-30 0 -53 14t-34 39q-6 13 -6 24z" glyph-name="uni0237" horiz-adv-x="287" unicode="ȷ"/><glyph d="M146 14.5q-54 30.5 -84 87.5q-31 56 -31 138q0 123 77 194q36 33 86.5 50t111.5 17q50 0 102 -13.5t82 -34.5q22 -16 32.5 -34.5t10.5 -42.5v-201q0 -44 18 -88q10 -23 10 -38t-11.5 -29.5t-31.5 -24.5q-24 -11 -45 -11q-59 0 -79 39q-20 -18 -53 -28.5t-69 -10.5 q-72 0 -126 30.5zM364 358q-21 10 -53 10q-52 0 -80 -32t-28 -94q0 -65 24 -94.5t73 -29.5q21 0 38 8t26 21v211z" glyph-name="uni0251" horiz-adv-x="587" unicode="ɑ"/><glyph d="M438 435q39 -34 59.5 -85t20.5 -115q0 -62 -20.5 -111t-57.5 -80q-33 -30 -77 -45t-95 -15q-103 0 -171 60q-32 28 -49.5 67.5t-17.5 84.5q0 65 72 75l247 37q-11 32 -43 49t-80 17q-47 0 -98 -17q-27 -8 -35 -8q-19 0 -30.5 17t-11.5 39q0 38 30 60.5t84 29.5q41 6 75 6 q123 0 198 -66zM334 132.5q25 24.5 27 63.5l-171 -28q3 -25 24.5 -42.5t53.5 -17.5q41 0 66 24.5z" glyph-name="uni0259" horiz-adv-x="549" unicode="ə"/><glyph d="M471 449q23 -16 33 -33t10 -42v-350q0 -97 -68.5 -151t-186.5 -54q-195 0 -195 104q0 24 10 40t30 16q13 0 30 -7q55 -20 102 -20q118 0 118 76v16q-40 -18 -100 -18q-46 0 -86.5 14.5t-69.5 41.5q-68 63 -68 180q0 114 69 176.5t190 62.5q108 0 182 -52zM351 356 q-22 12 -54 12q-48 0 -73 -27.5t-25 -78.5q0 -53 22.5 -81t64.5 -28q43 0 65 19v184z" glyph-name="uni0261" horiz-adv-x="567" unicode="ɡ"/><glyph d="M190.5 -9.5q-48.5 6.5 -77.5 18.5q-55 21 -55 73v467q0 20 10.5 32t32.5 19q72 23 177 23q165 0 255.5 -82t90.5 -237q0 -152 -89.5 -236t-246.5 -84q-49 0 -97.5 6.5zM232 130q32 -5 57 -5q74 0 114.5 44.5t40.5 131.5q0 86 -41 133.5t-113 47.5q-37 0 -58 -4v-348z M234.5 -80q25.5 25 63.5 25t63.5 -25t25.5 -61t-25.5 -61t-63.5 -25t-63.5 25t-25.5 61t25.5 61z" glyph-name="uni1E0C" horiz-adv-x="659" unicode="Ḍ"/><glyph d="M101 433q70 68 191 68q43 0 70 -12v116q0 34 15.5 45.5t39.5 11.5l22 -1q51 0 72 -17.5t21 -62.5v-474q0 -40 -28 -64t-91 -44q-46 -15 -106 -15q-129 0 -202.5 69t-73.5 190q0 122 70 190zM231.5 336.5q-28.5 -31.5 -28.5 -93.5t27 -93.5t78 -31.5q36 0 55 18v220 q-20 12 -48 12q-55 0 -83.5 -31.5zM252.5 -80q25.5 25 63.5 25t63.5 -25t25.5 -61t-25.5 -61t-63.5 -25t-63.5 25t-25.5 61t25.5 61z" glyph-name="uni1E0D" horiz-adv-x="586" unicode="ḍ"/><glyph d="M190.5 -9.5q-48.5 6.5 -77.5 18.5q-55 21 -55 73v467q0 20 10.5 32t32.5 19q72 23 177 23q165 0 255.5 -82t90.5 -237q0 -152 -89.5 -236t-246.5 -84q-49 0 -97.5 6.5zM232 130q32 -5 57 -5q74 0 114.5 44.5t40.5 131.5q0 86 -41 133.5t-113 47.5q-37 0 -58 -4v-348z M187 -214q-44 0 -53 30q-5 20 -5 32q0 66 55 66h234q47 0 54 -30q3 -15 3 -32q0 -66 -54 -66h-234z" glyph-name="uni1E0E" horiz-adv-x="659" unicode="Ḏ"/><glyph d="M101 433q70 68 191 68q43 0 70 -12v116q0 34 15.5 45.5t39.5 11.5l22 -1q51 0 72 -17.5t21 -62.5v-474q0 -40 -28 -64t-91 -44q-46 -15 -106 -15q-129 0 -202.5 69t-73.5 190q0 122 70 190zM231.5 336.5q-28.5 -31.5 -28.5 -93.5t27 -93.5t78 -31.5q36 0 55 18v220 q-20 12 -48 12q-55 0 -83.5 -31.5zM205 -214q-44 0 -53 30q-5 20 -5 32q0 66 55 66h234q47 0 54 -30q3 -15 3 -32q0 -66 -54 -66h-234z" glyph-name="uni1E0F" horiz-adv-x="586" unicode="ḏ"/><glyph d="M241 695q-44 0 -53 30q-5 20 -5 32q0 66 55 66h224q47 0 54 -30q3 -15 3 -32q0 -66 -54 -66h-224zM614 99q0 -29 -9.5 -44.5t-36.5 -30.5q-30 -18 -81 -29t-107 -11q-73 0 -136 20t-108 59q-49 40 -75 100t-26 135q0 77 28 139.5t80 105.5q47 39 108.5 59.5t130.5 20.5 q93 0 149.5 -30.5t56.5 -79.5q0 -28 -12.5 -46t-33.5 -18q-12 0 -34 8q-50 25 -110 25q-84 0 -133.5 -48.5t-49.5 -132.5q0 -85 45 -131t122 -46q43 0 65 13v94h-65q-46 0 -54 32q-5 22 -5 35q0 68 59 68h169q30 0 46.5 -16.5t16.5 -46.5v-204z" glyph-name="uni1E20" horiz-adv-x="664" unicode="Ḡ"/><glyph d="M168 564q-44 0 -53 30q-5 20 -5 32q0 66 55 66h224q47 0 54 -30q3 -15 3 -32q0 -66 -54 -66h-224zM471 449q23 -16 33 -33t10 -42v-350q0 -97 -68.5 -151t-186.5 -54q-195 0 -195 104q0 24 10 40t30 16q13 0 30 -7q55 -20 102 -20q118 0 118 76v16q-40 -18 -100 -18 q-46 0 -86.5 14.5t-69.5 41.5q-68 63 -68 180q0 114 69 176.5t190 62.5q108 0 182 -52zM351 356q-22 12 -54 12q-48 0 -73 -27.5t-25 -78.5q0 -53 22.5 -81t64.5 -28q43 0 65 19v184z" glyph-name="uni1E21" horiz-adv-x="567" unicode="ḡ"/><glyph d="M616 50q0 -49 -40 -53l-41 -2q-52 0 -73 18t-21 65v156h-192v-184q0 -49 -40 -53l-41 -2q-52 0 -73 18t-21 65v482q0 34 17 45t42 11l22 -1q52 0 73 -18t21 -65v-160h192v188q0 34 17 45t42 11l22 -1q52 0 73 -18t21 -65v-482zM291.5 -80q25.5 25 63.5 25t63.5 -25 t25.5 -61t-25.5 -61t-63.5 -25t-63.5 25t-25.5 61t25.5 61z" glyph-name="uni1E24" horiz-adv-x="643" unicode="Ḥ"/><glyph d="M532 47q0 -34 -17 -45.5t-39 -10.5l-20 1q-51 0 -72.5 18t-21.5 62v222q0 74 -71 74q-38 0 -67 -17v-304q0 -34 -17 -45.5t-39 -10.5l-20 1q-51 0 -72.5 18t-21.5 62v534q0 34 15 45t39 11l22 -1q51 0 72.5 -18t21.5 -62v-98q19 7 46 12.5t52 5.5q102 0 156 -50.5 t54 -146.5v-257zM244.5 -80q25.5 25 63.5 25t63.5 -25t25.5 -61t-25.5 -61t-63.5 -25t-63.5 25t-25.5 61t25.5 61z" glyph-name="uni1E25" horiz-adv-x="585" unicode="ḥ"/><glyph d="M616 50q0 -49 -40 -53l-41 -2q-52 0 -73 18t-21 65v156h-192v-184q0 -49 -40 -53l-41 -2q-52 0 -73 18t-21 65v482q0 34 17 45t42 11l22 -1q52 0 73 -18t21 -65v-160h192v188q0 34 17 45t42 11l22 -1q52 0 73 -18t21 -65v-482zM230 -197q-47 29 -47 77q0 32 21.5 52 t58.5 20h9q8 0 9 -1q5 -23 25.5 -37.5t50.5 -14.5q33 0 55 19q14 14 19 24q4 10 6 10h14q37 0 58.5 -20t21.5 -52q0 -48 -47 -77t-127 -29t-127 29z" glyph-name="uni1E2A" horiz-adv-x="643" unicode="Ḫ"/><glyph d="M532 47q0 -34 -17 -45.5t-39 -10.5l-20 1q-51 0 -72.5 18t-21.5 62v222q0 74 -71 74q-38 0 -67 -17v-304q0 -34 -17 -45.5t-39 -10.5l-20 1q-51 0 -72.5 18t-21.5 62v534q0 34 15 45t39 11l22 -1q51 0 72.5 -18t21.5 -62v-98q19 7 46 12.5t52 5.5q102 0 156 -50.5 t54 -146.5v-257zM186 -197q-47 29 -47 77q0 32 21.5 52t58.5 20h9q8 0 9 -1q5 -23 25.5 -37.5t50.5 -14.5q33 0 55 19q14 14 19 24q4 10 6 10h14q37 0 58.5 -20t21.5 -52q0 -48 -47 -77t-127 -29t-127 29z" glyph-name="uni1E2B" horiz-adv-x="585" unicode="ḫ"/><glyph d="M151 -3q-43 0 -68 25t-25 68v471q0 34 17 45t42 11l22 -1q52 0 73 -18t21 -65v-395h188q45 0 55 -33q5 -22 5 -35q0 -73 -62 -73h-268zM211.5 -80q25.5 25 63.5 25t63.5 -25t25.5 -61t-25.5 -61t-63.5 -25t-63.5 25t-25.5 61t25.5 61z" glyph-name="uni1E36" horiz-adv-x="506" unicode="Ḷ"/><glyph d="M225 47q0 -34 -15.5 -45t-38.5 -10h-22q-51 0 -72.5 18t-21.5 62v534q0 34 15 45t39 11l22 -1q51 0 72.5 -18t21.5 -62v-534zM83.5 -83q25.5 25 63.5 25t63.5 -25t25.5 -61t-25.5 -61t-63.5 -25t-63.5 25t-25.5 61t25.5 61z" glyph-name="uni1E37" horiz-adv-x="280" unicode="ḷ"/><glyph d="M56 695q-44 0 -53 30q-5 20 -5 32q0 66 55 66h224q47 0 54 -30q3 -15 3 -32q0 -66 -54 -66h-224zM158 -3q-43 0 -68 25t-25 68v471q0 34 17 45t42 11l22 -1q52 0 73 -18t21 -65v-395h188q45 0 55 -33q5 -22 5 -35q0 -73 -62 -73h-268zM208.5 -80q25.5 25 63.5 25 t63.5 -25t25.5 -61t-25.5 -61t-63.5 -25t-63.5 25t-25.5 61t25.5 61z" glyph-name="uni1E38" horiz-adv-x="513" unicode="Ḹ"/><glyph d="M22 714q-44 0 -53 30q-5 20 -5 32q0 66 55 66h224q47 0 54 -30q3 -15 3 -32q0 -66 -54 -66h-224zM225 47q0 -34 -15.5 -45t-38.5 -10h-22q-51 0 -72.5 18t-21.5 62v534q0 34 15 45t39 11l22 -1q51 0 72.5 -18t21.5 -62v-534zM83.5 -83q25.5 25 63.5 25t63.5 -25t25.5 -61 t-25.5 -61t-63.5 -25t-63.5 25t-25.5 61t25.5 61z" glyph-name="uni1E39" horiz-adv-x="280" unicode="ḹ"/><glyph d="M151 -3q-43 0 -68 25t-25 68v471q0 34 17 45t42 11l22 -1q52 0 73 -18t21 -65v-395h188q45 0 55 -33q5 -22 5 -35q0 -73 -62 -73h-268zM151 -214q-44 0 -53 30q-5 20 -5 32q0 66 55 66h234q47 0 54 -30q3 -15 3 -32q0 -66 -54 -66h-234z" glyph-name="uni1E3A" horiz-adv-x="506" unicode="Ḻ"/><glyph d="M225 47q0 -34 -15.5 -45t-38.5 -10h-22q-51 0 -72.5 18t-21.5 62v534q0 34 15 45t39 11l22 -1q51 0 72.5 -18t21.5 -62v-534zM37 -214q-44 0 -53 30q-5 20 -5 32q0 66 55 66h234q47 0 54 -30q3 -15 3 -32q0 -66 -54 -66h-234z" glyph-name="uni1E3B" horiz-adv-x="280" unicode="ḻ"/><glyph d="M493 183q-6 -21 -15.5 -33t-24.5 -18q-21 -7 -51 -7q-78 0 -90 40l-46 143q-18 56 -28 95h-5q-6 -118 -6 -202q-2 -104 -5 -153q-1 -26 -12.5 -39t-26.5 -15q-16 -2 -39 -2q-48 0 -70.5 15.5t-22.5 49.5l27 476q1 21 7 34.5t20 22.5q35 20 86 20q53 0 83 -16.5t44 -53.5 q19 -50 41 -119l38 -124h5q42 151 80 260q11 32 34 42.5t69 10.5q49 0 80 -14.5t36 -41.5q11 -63 38 -376l9 -125q2 -23 -7.5 -38t-29.5 -19q-13 -4 -44 -4q-45 0 -67.5 15t-24.5 49q-5 106 -7 196q-1 86 -5 146h-5q-10 -40 -29 -98q-16 -47 -24 -77zM338.5 -80 q25.5 25 63.5 25t63.5 -25t25.5 -61t-25.5 -61t-63.5 -25t-63.5 25t-25.5 61t25.5 61z" glyph-name="uni1E42" horiz-adv-x="806" unicode="Ṃ"/><glyph d="M434 455q36 24 73.5 35t84.5 11q40 0 76.5 -10.5t63.5 -30.5q62 -47 62 -144v-269q0 -34 -17 -45.5t-39 -10.5l-20 1q-51 0 -72.5 18t-21.5 62v239q0 57 -63 57q-11 0 -27 -6.5t-27 -13.5q1 -1 1 -7v-294q0 -34 -17 -45.5t-39 -10.5l-20 1q-51 0 -72.5 18t-21.5 62v239 q0 27 -16.5 42t-46.5 15q-28 0 -53 -16v-305q0 -34 -17 -45.5t-39 -10.5l-20 1q-51 0 -72.5 18t-21.5 62v302q0 24 10 40.5t33 32.5q34 24 85.5 39t104.5 15q91 0 149 -46zM366.5 -80q25.5 25 63.5 25t63.5 -25t25.5 -61t-25.5 -61t-63.5 -25t-63.5 25t-25.5 61t25.5 61z" glyph-name="uni1E43" horiz-adv-x="846" unicode="ṃ"/><glyph d="M267 819q25 25 64 25q41 0 66 -24t25 -63t-25 -63t-66 -24q-39 0 -64 25t-25 62t25 62zM607 59q0 -39 -24 -53t-80 -14q-48 0 -77 14.5t-47 49.5l-99 202q-14 26 -53 122l-6 -1q5 -88 5 -220v-109q0 -23 -10 -37t-29 -16l-39 -2q-49 0 -69.5 17.5t-20.5 62.5v464 q0 22 6 36t21 23q32 17 78 17q48 0 77.5 -14.5t46.5 -49.5l100 -202q14 -26 53 -122l5 1q-6 86 -6 216v116q0 23 10 37t29 16l39 2q49 0 69.5 -18t20.5 -62v-476z" glyph-name="uni1E44" horiz-adv-x="665" unicode="Ṅ"/><glyph d="M222 688q25 25 64 25q41 0 66 -24t25 -63t-25 -63t-66 -24q-39 0 -64 25t-25 62t25 62zM360 308q0 30 -17 45t-48 15q-44 0 -73 -20v-301q0 -34 -17 -45.5t-39 -10.5l-20 1q-51 0 -72.5 18t-21.5 62v300q0 25 10 42t33 33q37 25 89 39.5t111 14.5q113 0 174 -49.5 t61 -137.5v-267q0 -34 -17 -45.5t-39 -10.5l-20 1q-51 0 -72.5 18t-21.5 62v236z" glyph-name="uni1E45" horiz-adv-x="583" unicode="ṅ"/><glyph d="M607 59q0 -39 -24 -53t-80 -14q-48 0 -77 14.5t-47 49.5l-99 202q-14 26 -53 122l-6 -1q5 -88 5 -220v-109q0 -23 -10 -37t-29 -16l-39 -2q-49 0 -69.5 17.5t-20.5 62.5v464q0 22 6 36t21 23q32 17 78 17q48 0 77.5 -14.5t46.5 -49.5l100 -202q14 -26 53 -122l5 1 q-6 86 -6 216v116q0 23 10 37t29 16l39 2q49 0 69.5 -18t20.5 -62v-476zM273.5 -80q25.5 25 63.5 25t63.5 -25t25.5 -61t-25.5 -61t-63.5 -25t-63.5 25t-25.5 61t25.5 61z" glyph-name="uni1E46" horiz-adv-x="665" unicode="Ṇ"/><glyph d="M360 308q0 30 -17 45t-48 15q-44 0 -73 -20v-301q0 -34 -17 -45.5t-39 -10.5l-20 1q-51 0 -72.5 18t-21.5 62v300q0 25 10 42t33 33q37 25 89 39.5t111 14.5q113 0 174 -49.5t61 -137.5v-267q0 -34 -17 -45.5t-39 -10.5l-20 1q-51 0 -72.5 18t-21.5 62v236zM234.5 -80 q25.5 25 63.5 25t63.5 -25t25.5 -61t-25.5 -61t-63.5 -25t-63.5 25t-25.5 61t25.5 61z" glyph-name="uni1E47" horiz-adv-x="583" unicode="ṇ"/><glyph d="M607 59q0 -39 -24 -53t-80 -14q-48 0 -77 14.5t-47 49.5l-99 202q-14 26 -53 122l-6 -1q5 -88 5 -220v-109q0 -23 -10 -37t-29 -16l-39 -2q-49 0 -69.5 17.5t-20.5 62.5v464q0 22 6 36t21 23q32 17 78 17q48 0 77.5 -14.5t46.5 -49.5l100 -202q14 -26 53 -122l5 1 q-6 86 -6 216v116q0 23 10 37t29 16l39 2q49 0 69.5 -18t20.5 -62v-476zM225 -214q-44 0 -53 30q-5 20 -5 32q0 66 55 66h234q47 0 54 -30q3 -15 3 -32q0 -66 -54 -66h-234z" glyph-name="uni1E48" horiz-adv-x="665" unicode="Ṉ"/><glyph d="M360 308q0 30 -17 45t-48 15q-44 0 -73 -20v-301q0 -34 -17 -45.5t-39 -10.5l-20 1q-51 0 -72.5 18t-21.5 62v300q0 25 10 42t33 33q37 25 89 39.5t111 14.5q113 0 174 -49.5t61 -137.5v-267q0 -34 -17 -45.5t-39 -10.5l-20 1q-51 0 -72.5 18t-21.5 62v236zM187 -214 q-44 0 -53 30q-5 20 -5 32q0 66 55 66h234q47 0 54 -30q3 -15 3 -32q0 -66 -54 -66h-234z" glyph-name="uni1E49" horiz-adv-x="583" unicode="ṉ"/><glyph d="M232 196v-146q0 -49 -40 -53l-41 -2q-51 0 -72 18t-21 65v471q0 20 10.5 32t32.5 19q67 23 175 23q134 0 206 -56t72 -159q0 -56 -28.5 -101.5t-79.5 -72.5l71 -92q26 -32 37.5 -50.5t11.5 -33.5q0 -16 -12.5 -31.5t-32.5 -24.5q-19 -10 -45 -10q-39 0 -62 15t-45 54 l-84 135h-53zM295 329q39 0 60.5 19.5t21.5 57.5q0 39 -24.5 58t-77.5 19q-29 0 -44 -4v-150h64zM236.5 -80q25.5 25 63.5 25t63.5 -25t25.5 -61t-25.5 -61t-63.5 -25t-63.5 25t-25.5 61t25.5 61z" glyph-name="uni1E5A" horiz-adv-x="602" unicode="Ṛ"/><glyph d="M222 47q0 -34 -17 -45.5t-39 -10.5l-20 1q-51 0 -72.5 18t-21.5 62v300q0 40 29 65t94 46q59 17 114 17q104 0 104 -79q0 -12 -1 -14q-4 -35 -54 -40q-24 -1 -59.5 -8.5t-56.5 -16.5v-295zM159.5 -80q25.5 25 63.5 25t63.5 -25t25.5 -61t-25.5 -61t-63.5 -25t-63.5 25 t-25.5 61t25.5 61z" glyph-name="uni1E5B" horiz-adv-x="411" unicode="ṛ"/><glyph d="M174 695q-44 0 -53 30q-5 20 -5 32q0 66 55 66h224q47 0 54 -30q3 -15 3 -32q0 -66 -54 -66h-224zM232 196v-146q0 -49 -40 -53l-41 -2q-51 0 -72 18t-21 65v471q0 20 10.5 32t32.5 19q67 23 175 23q134 0 206 -56t72 -159q0 -56 -28.5 -101.5t-79.5 -72.5l71 -92 q26 -32 37.5 -50.5t11.5 -33.5q0 -16 -12.5 -31.5t-32.5 -24.5q-19 -10 -45 -10q-39 0 -62 15t-45 54l-84 135h-53zM295 329q39 0 60.5 19.5t21.5 57.5q0 39 -24.5 58t-77.5 19q-29 0 -44 -4v-150h64zM236.5 -80q25.5 25 63.5 25t63.5 -25t25.5 -61t-25.5 -61t-63.5 -25 t-63.5 25t-25.5 61t25.5 61z" glyph-name="uni1E5C" horiz-adv-x="602" unicode="Ṝ"/><glyph d="M115 564q-44 0 -53 30q-5 20 -5 32q0 66 55 66h224q47 0 54 -30q3 -15 3 -32q0 -66 -54 -66h-224zM230 47q0 -34 -17 -45.5t-39 -10.5l-20 1q-51 0 -72.5 18t-21.5 62v300q0 40 29 65t94 46q59 17 114 17q104 0 104 -79q0 -12 -1 -14q-4 -35 -54 -40q-24 -1 -59.5 -8.5 t-56.5 -16.5v-295zM167.5 -80q25.5 25 63.5 25t63.5 -25t25.5 -61t-25.5 -61t-63.5 -25t-63.5 25t-25.5 61t25.5 61z" glyph-name="uni1E5D" horiz-adv-x="419" unicode="ṝ"/><glyph d="M232 196v-146q0 -49 -40 -53l-41 -2q-51 0 -72 18t-21 65v471q0 20 10.5 32t32.5 19q67 23 175 23q134 0 206 -56t72 -159q0 -56 -28.5 -101.5t-79.5 -72.5l71 -92q26 -32 37.5 -50.5t11.5 -33.5q0 -16 -12.5 -31.5t-32.5 -24.5q-19 -10 -45 -10q-39 0 -62 15t-45 54 l-84 135h-53zM295 329q39 0 60.5 19.5t21.5 57.5q0 39 -24.5 58t-77.5 19q-29 0 -44 -4v-150h64zM197 -214q-44 0 -53 30q-5 20 -5 32q0 66 55 66h234q47 0 54 -30q3 -15 3 -32q0 -66 -54 -66h-234z" glyph-name="uni1E5E" horiz-adv-x="602" unicode="Ṟ"/><glyph d="M235 47q0 -34 -17 -45.5t-39 -10.5l-20 1q-51 0 -72.5 18t-21.5 62v300q0 40 29 65t94 46q59 17 114 17q104 0 104 -79q0 -12 -1 -14q-4 -35 -54 -40q-24 -1 -59.5 -8.5t-56.5 -16.5v-295zM110 -214q-44 0 -53 30q-5 20 -5 32q0 66 55 66h234q47 0 54 -30q3 -15 3 -32 q0 -66 -54 -66h-234z" glyph-name="uni1E5F" horiz-adv-x="424" unicode="ṟ"/><glyph d="M226 819q25 25 64 25q41 0 66 -24t25 -63t-25 -63t-66 -24q-39 0 -64 25t-25 62t25 62zM241 241q-54 18 -86.5 33.5t-55.5 34.5q-55 46 -55 127q0 87 66.5 137t182.5 50q94 0 147 -26t53 -76q0 -27 -13 -46t-33 -19q-16 0 -33 7q-51 17 -102 17q-45 0 -66 -12 q-21 -13 -21 -32q0 -14 12 -23.5t40 -18.5l53 -17q102 -33 148.5 -81t46.5 -122q0 -88 -70 -139t-194 -51q-98 0 -157.5 31t-59.5 84q0 29 15.5 49.5t36.5 20.5q15 0 37 -12q58 -31 122 -31q50 0 69 15q20 15 20 35q0 18 -13 28.5t-48 22.5z" glyph-name="uni1E60" horiz-adv-x="543" unicode="Ṡ"/><glyph d="M179 688q25 25 64 25q41 0 66 -24t25 -63t-25 -63t-66 -24q-39 0 -64 25t-25 62t25 62zM404.5 25q-57.5 -42 -167.5 -42q-91 0 -142.5 26.5t-51.5 74.5q0 24 10.5 40.5t30.5 16.5q17 0 31 -7q60 -23 115 -23q30 0 47 9t17 24q0 14 -12 22t-40 13l-30 6q-90 18 -131 55 t-41 103q0 37 16 67t45 50q62 42 159 42q83 0 130.5 -24t47.5 -68q0 -24 -10.5 -41t-30.5 -17q-9 0 -18 3l-30 9q-39 10 -74 10q-37 0 -52 -7q-17 -8 -17 -24q0 -11 10 -18t38 -13l31 -7q93 -21 135 -59t42 -101q0 -78 -57.5 -120z" glyph-name="uni1E61" horiz-adv-x="492" unicode="ṡ"/><glyph d="M241 241q-54 18 -86.5 33.5t-55.5 34.5q-55 46 -55 127q0 87 66.5 137t182.5 50q94 0 147 -26t53 -76q0 -27 -13 -46t-33 -19q-16 0 -33 7q-51 17 -102 17q-45 0 -66 -12q-21 -13 -21 -32q0 -14 12 -23.5t40 -18.5l53 -17q102 -33 148.5 -81t46.5 -122q0 -88 -70 -139 t-194 -51q-98 0 -157.5 31t-59.5 84q0 29 15.5 49.5t36.5 20.5q15 0 37 -12q58 -31 122 -31q50 0 69 15q20 15 20 35q0 18 -13 28.5t-48 22.5zM226.5 -80q25.5 25 63.5 25t63.5 -25t25.5 -61t-25.5 -61t-63.5 -25t-63.5 25t-25.5 61t25.5 61z" glyph-name="uni1E62" horiz-adv-x="543" unicode="Ṣ"/><glyph d="M404.5 25q-57.5 -42 -167.5 -42q-91 0 -142.5 26.5t-51.5 74.5q0 24 10.5 40.5t30.5 16.5q17 0 31 -7q60 -23 115 -23q30 0 47 9t17 24q0 14 -12 22t-40 13l-30 6q-90 18 -131 55t-41 103q0 37 16 67t45 50q62 42 159 42q83 0 130.5 -24t47.5 -68q0 -24 -10.5 -41 t-30.5 -17q-9 0 -18 3l-30 9q-39 10 -74 10q-37 0 -52 -7q-17 -8 -17 -24q0 -11 10 -18t38 -13l31 -7q93 -21 135 -59t42 -101q0 -78 -57.5 -120zM194.5 -80q25.5 25 63.5 25t63.5 -25t25.5 -61t-25.5 -61t-63.5 -25t-63.5 25t-25.5 61t25.5 61z" glyph-name="uni1E63" horiz-adv-x="492" unicode="ṣ"/><glyph d="M78 466q-45 0 -55 34q-5 22 -5 36q0 36 16.5 54.5t46.5 18.5h395q45 0 55 -34q5 -22 5 -36q0 -36 -16.5 -54.5t-46.5 -18.5h-111v-416q0 -49 -40 -53l-41 -2q-52 0 -73 18t-21 65v388h-109zM219.5 -80q25.5 25 63.5 25t63.5 -25t25.5 -61t-25.5 -61t-63.5 -25t-63.5 25 t-25.5 61t25.5 61z" glyph-name="uni1E6C" horiz-adv-x="556" unicode="Ṭ"/><glyph d="M15 398q0 20 13 33t32 13l42 1v92q0 23 9.5 37t27.5 16q18 3 38 3q51 0 72 -18t21 -63v-64h89q47 0 54 -31q5 -20 5 -33q0 -66 -57 -66h-91v-151q0 -48 63 -48q14 0 16 1l18 1q27 0 37 -12.5t10 -37.5q0 -86 -129 -86q-91 0 -137 42t-46 128v163h-41q-19 0 -32.5 13.5 t-13.5 32.5v34zM153.5 -80q25.5 25 63.5 25t63.5 -25t25.5 -61t-25.5 -61t-63.5 -25t-63.5 25t-25.5 61t25.5 61z" glyph-name="uni1E6D" horiz-adv-x="433" unicode="ṭ"/><glyph d="M78 466q-45 0 -55 34q-5 22 -5 36q0 36 16.5 54.5t46.5 18.5h395q45 0 55 -34q5 -22 5 -36q0 -36 -16.5 -54.5t-46.5 -18.5h-111v-416q0 -49 -40 -53l-41 -2q-52 0 -73 18t-21 65v388h-109zM164 -214q-44 0 -53 30q-5 20 -5 32q0 66 55 66h234q47 0 54 -30q3 -15 3 -32 q0 -66 -54 -66h-234z" glyph-name="uni1E6E" horiz-adv-x="556" unicode="Ṯ"/><glyph d="M15 398q0 20 13 33t32 13l42 1v92q0 23 9.5 37t27.5 16q18 3 38 3q51 0 72 -18t21 -63v-64h89q47 0 54 -31q5 -20 5 -33q0 -66 -57 -66h-91v-151q0 -48 63 -48q14 0 16 1l18 1q27 0 37 -12.5t10 -37.5q0 -86 -129 -86q-93 0 -138 41.5t-45 128.5v163h-41 q-19 0 -32.5 13.5t-13.5 32.5v34zM102 -214q-44 0 -53 30q-5 20 -5 32q0 66 55 66h234q47 0 54 -30q3 -15 3 -32q0 -66 -54 -66h-234z" glyph-name="uni1E6F" horiz-adv-x="433" unicode="ṯ"/><glyph d="M289 712q-38 14 -41 35q-2 14 -2 21q0 33 20 52.5t53 19.5q16 0 31 -5t39 -19l102 -52q35 -20 35 -22v-12q0 -35 -17 -56t-44 -21q-30 0 -57 13zM341 419q8 34 29.5 45.5t60.5 11.5q43 0 70.5 -12.5t33.5 -36.5q13 -50 21 -76l18 -68q24 -88 34 -132h5q10 63 29 226 l12 106l8 67q5 36 25 48t58 12q43 0 67 -17.5t24 -52.5q0 -48 -16 -156t-39 -207q-21 -86 -32 -123q-12 -35 -40 -46q-38 -16 -91 -16q-49 0 -80.5 12.5t-38.5 35.5q-20 60 -60 216q-29 -128 -47 -199q-5 -21 -14 -32.5t-24 -18.5q-37 -14 -82 -14q-49 0 -83.5 12.5 t-45.5 35.5q-15 31 -41 135.5t-43 203.5q-16 93 -26 157l-1 11q0 32 25.5 47.5t64.5 15.5q83 0 93 -72l44 -281l9 -68l6 -38h5l9 39l25 104z" glyph-name="Wgrave" horiz-adv-x="885" unicode="Ẁ"/><glyph d="M252 622q-32 21 -32 31q-1 1 -1 10q0 38 19 61t52 23q22 0 38.5 -8t41.5 -30l83 -70q25 -19 25 -44q0 -13 -4 -20q-8 -21 -23.5 -33t-33.5 -12q-29 0 -64 24zM335 39q-15 -51 -102 -51q-42 0 -71.5 11.5t-39.5 32.5q-18 37 -46.5 159.5t-47.5 230.5q-1 2 -1 15 q0 29 24 44t60 15q38 0 59 -16.5t26 -52.5q11 -86 24 -170l5 -36l7 -48l4 -27h4q9 45 22 94l6 22l21 85l13 54q6 21 16 33t27 18q27 8 54 8q79 0 92 -45l43 -162l16 -63l10 -44h5q25 175 37 290q5 44 40 55q28 5 42 5q81 0 81 -67q0 -30 -16 -111.5t-41 -177.5l-11 -50 q-10 -41 -23.5 -63t-32.5 -28q-36 -11 -75 -11q-58 0 -85 30t-38 75l-10 43q-21 68 -34 137q-10 -51 -37 -145l-20 -65z" glyph-name="wgrave" horiz-adv-x="800" unicode="ẁ"/><glyph d="M482 833q25 15 45 15q9 0 20 -3q56 -15 56 -63q0 -27 -15.5 -44.5t-52.5 -32.5l-105 -41q-22 -9 -36 -9t-28.5 9t-22.5 23q-9 14 -9 28q0 32 31 48zM341 419q8 34 29.5 45.5t60.5 11.5q43 0 70.5 -12.5t33.5 -36.5q13 -50 21 -76l18 -68q24 -88 34 -132h5q10 63 29 226 l12 106l8 67q5 36 25 48t58 12q43 0 67 -17.5t24 -52.5q0 -48 -16 -156t-39 -207q-21 -86 -32 -123q-12 -35 -40 -46q-38 -16 -91 -16q-49 0 -80.5 12.5t-38.5 35.5q-20 60 -60 216q-29 -128 -47 -199q-5 -21 -14 -32.5t-24 -18.5q-37 -14 -82 -14q-49 0 -83.5 12.5 t-45.5 35.5q-15 31 -41 135.5t-43 203.5q-16 93 -26 157l-1 11q0 32 25.5 47.5t64.5 15.5q83 0 93 -72l44 -281l9 -68l6 -38h5l9 39l25 104z" glyph-name="Wacute" horiz-adv-x="885" unicode="Ẃ"/><glyph d="M453 724q26 18 49 18q13 0 15 -1q30 -7 46.5 -24t16.5 -41q0 -26 -13.5 -43t-46.5 -35l-98 -52q-24 -12 -39 -12q-29 0 -53 33q-11 17 -11 32q0 28 26 46zM335 39q-15 -51 -102 -51q-42 0 -71.5 11.5t-39.5 32.5q-18 37 -46.5 159.5t-47.5 230.5q-1 2 -1 15q0 29 24 44 t60 15q38 0 59 -16.5t26 -52.5q11 -86 24 -170l5 -36l7 -48l4 -27h4q9 45 22 94l6 22l21 85l13 54q6 21 16 33t27 18q27 8 54 8q79 0 92 -45l43 -162l16 -63l10 -44h5q25 175 37 290q5 44 40 55q28 5 42 5q81 0 81 -67q0 -30 -16 -111.5t-41 -177.5l-11 -50 q-10 -41 -23.5 -63t-32.5 -28q-36 -11 -75 -11q-58 0 -85 30t-38 75l-10 43q-21 68 -34 137q-10 -51 -37 -145l-20 -65z" glyph-name="wacute" horiz-adv-x="800" unicode="ẃ"/><glyph d="M257.5 816q25.5 25 61.5 25q39 0 64.5 -24.5t25.5 -61.5t-25.5 -61.5t-64.5 -24.5q-36 0 -61.5 25t-25.5 61t25.5 61zM480.5 817q24.5 24 64.5 24q37 0 62.5 -25.5t25.5 -60.5q0 -36 -25 -61t-63 -25q-39 0 -64 24.5t-25 61.5q0 38 24.5 62zM341 419q8 34 29.5 45.5 t60.5 11.5q43 0 70.5 -12.5t33.5 -36.5q13 -50 21 -76l18 -68q24 -88 34 -132h5q10 63 29 226l12 106l8 67q5 36 25 48t58 12q43 0 67 -17.5t24 -52.5q0 -48 -16 -156t-39 -207q-21 -86 -32 -123q-12 -35 -40 -46q-38 -16 -91 -16q-49 0 -80.5 12.5t-38.5 35.5 q-20 60 -60 216q-29 -128 -47 -199q-5 -21 -14 -32.5t-24 -18.5q-37 -14 -82 -14q-49 0 -83.5 12.5t-45.5 35.5q-15 31 -41 135.5t-43 203.5q-16 93 -26 157l-1 11q0 32 25.5 47.5t64.5 15.5q83 0 93 -72l44 -281l9 -68l6 -38h5l9 39l25 104z" glyph-name="Wdieresis" horiz-adv-x="885" unicode="Ẅ"/><glyph d="M219.5 688q25.5 25 61.5 25q39 0 64.5 -24.5t25.5 -61.5t-25.5 -61.5t-64.5 -24.5q-36 0 -61.5 25t-25.5 61t25.5 61zM442.5 689q24.5 24 64.5 24q37 0 62.5 -25.5t25.5 -60.5q0 -36 -25 -61t-63 -25q-39 0 -64 24.5t-25 61.5q0 38 24.5 62zM335 39q-15 -51 -102 -51 q-42 0 -71.5 11.5t-39.5 32.5q-18 37 -46.5 159.5t-47.5 230.5q-1 2 -1 15q0 29 24 44t60 15q38 0 59 -16.5t26 -52.5q11 -86 24 -170l5 -36l7 -48l4 -27h4q9 45 22 94l6 22l21 85l13 54q6 21 16 33t27 18q27 8 54 8q79 0 92 -45l43 -162l16 -63l10 -44h5q25 175 37 290 q5 44 40 55q28 5 42 5q81 0 81 -67q0 -30 -16 -111.5t-41 -177.5l-11 -50q-10 -41 -23.5 -63t-32.5 -28q-36 -11 -75 -11q-58 0 -85 30t-38 75l-10 43q-21 68 -34 137q-10 -51 -37 -145l-20 -65z" glyph-name="wdieresis" horiz-adv-x="800" unicode="ẅ"/><glyph d="M224 819q25 25 64 25q41 0 66 -24t25 -63t-25 -63t-66 -24q-39 0 -64 25t-25 62t25 62zM383 50q0 -23 -10 -37t-29 -16l-40 -2q-51 0 -71.5 17.5t-20.5 63.5v135q-126 185 -186 313q-7 13 -7 28q0 24 24 40.5t58 16.5q40 0 64.5 -17t45.5 -59l83 -167h6q21 46 45 108 l21 53q10 26 15.5 38t14.5 22q22 22 77 22q39 0 61.5 -19.5t22.5 -54.5q0 -7 -5 -29q-5 -17 -23 -51q-54 -101 -146 -248v-157z" glyph-name="uni1E8E" horiz-adv-x="574" unicode="Ẏ"/><glyph d="M206 688q25 25 64 25q41 0 66 -24t25 -63t-25 -63t-66 -24q-39 0 -64 25t-25 62t25 62zM77.5 255.5q-26.5 80.5 -47.5 164.5q-3 11 -3 21q0 26 23.5 40.5t58.5 14.5q39 0 60 -15.5t32 -53.5l79 -275h4q19 55 41.5 139.5t34.5 147.5q6 34 27.5 45.5t58.5 11.5q81 0 81 -67 q0 -48 -23.5 -131t-61.5 -173q-41 -97 -84 -167.5t-84 -103.5q-37 -31 -90 -31q-30 0 -52.5 13.5t-34.5 37.5q-6 12 -6 22q0 20 25 42q47 38 91 93q-16 5 -36 24q-21 21 -43 69q-24 51 -50.5 131.5z" glyph-name="uni1E8F" unicode="ẏ"/><glyph d="M220 819q25 25 64 25q41 0 66 -24t25 -63t-25 -63t-66 -24q-39 0 -64 25t-25 62t25 62zM308 466h-205q-45 0 -55 34q-5 22 -5 36q0 36 16.5 54.5t46.5 18.5h337q22 0 36.5 -6t23.5 -20q20 -32 20 -70q0 -46 -41 -96l-227 -274h215q45 0 55 -34q5 -22 5 -36 q0 -36 -16.5 -54.5t-46.5 -18.5h-358q-22 0 -36 6.5t-23 21.5q-16 25 -16 65q0 23 11.5 49t32.5 50z" glyph-name="uni1E92" horiz-adv-x="560" unicode="Ẓ"/><glyph d="M174.5 689q25.5 25 63.5 25t63.5 -25t25.5 -61t-25.5 -61t-63.5 -25t-63.5 25t-25.5 61t25.5 61zM105 0q-36 0 -53.5 20.5t-17.5 55.5q0 36 33 76l172 202h-142q-47 0 -54 31q-5 22 -5 34q0 66 57 66h279q36 0 53.5 -20.5t17.5 -55.5t-33 -76l-168 -202h154q47 0 54 -31 q5 -22 5 -34q0 -66 -57 -66h-295z" glyph-name="uni1E93" horiz-adv-x="481" unicode="ẓ"/><glyph d="M17.5 788q25.5 25 61.5 25q39 0 64.5 -24.5t25.5 -61.5t-25.5 -61.5t-64.5 -24.5q-36 0 -61.5 25t-25.5 61t25.5 61zM240.5 789q24.5 24 64.5 24q37 0 62.5 -25.5t25.5 -60.5q0 -36 -25 -61t-63 -25q-39 0 -64 24.5t-25 61.5q0 38 24.5 62zM222 167q0 -48 63 -48 q14 0 16 1l18 1q27 0 37 -12.5t10 -37.5q0 -86 -129 -86q-91 0 -137 42t-46 128v382q0 23 9.5 37t27.5 16q18 3 38 3q51 0 72 -18t21 -63v-64h89q47 0 54 -31q5 -20 5 -33q0 -66 -57 -66h-91v-151z" glyph-name="uni1E97" horiz-adv-x="400" unicode="ẗ"/><glyph d="M54 436q0 101 67.5 158t182.5 57q54 0 100.5 -14.5t80.5 -41.5q71 -60 71 -157q0 -26 -8 -42t-27 -24l-44 -18q-28 -10 -28 -34q0 -19 27 -31q63 -28 90.5 -62.5t27.5 -87.5q0 -39 -15 -69t-42 -49t-61 -28.5t-70 -9.5q-63 0 -98 20t-35 56q0 23 10 39.5t30 16.5 q8 0 26 -5q15 -4 35 -4q21 0 33.5 7.5t12.5 21.5q0 12 -9 21.5t-31 21.5q-57 30 -81 63t-24 81q0 84 111 121q-3 33 -24.5 51.5t-55.5 18.5q-37 0 -59.5 -23t-22.5 -64v-379q0 -34 -17 -45.5t-39 -10.5l-20 1q-51 0 -72.5 18t-21.5 62v364z" glyph-name="uni1E9E" horiz-adv-x="614" unicode="ẞ"/><glyph d="M181 555q24 61 134 61q55 0 91 -15.5t47 -44.5q34 -97 81 -263l65 -232q3 -12 3 -22q0 -26 -22 -37.5t-63 -11.5q-45 0 -64.5 14t-31.5 53l-18 69h-181l-16 -62l-6 -24q-11 -41 -43 -47q-15 -3 -34 -3q-48 0 -74 17.5t-26 48.5q0 19 4 28q5 14 9 33q13 50 47 154l32 95 l32 93zM314 459l-31 -93q-19 -53 -32 -105h124q-33 126 -55 198h-6zM251.5 -75q25.5 25 63.5 25t63.5 -25t25.5 -61t-25.5 -61t-63.5 -25t-63.5 25t-25.5 61t25.5 61z" glyph-name="uni1EA0" horiz-adv-x="627" unicode="Ạ"/><glyph d="M430 454.5q62 -46.5 62 -136.5v-224q0 -23 -11.5 -39.5t-37.5 -31.5q-64 -39 -183 -39q-111 0 -171.5 41.5t-60.5 121.5q0 69 41 106t127 46l131 14v7q0 54 -99 54q-43 0 -99 -14q-20 -5 -29 -5q-20 0 -31 16.5t-11 40.5q0 26 11.5 41t39.5 27q53 21 143 21 q116 0 178 -46.5zM299.5 111.5q19.5 3.5 28.5 9.5v80l-72 -6q-64 -4 -64 -42q0 -45 68 -45q20 0 39.5 3.5zM196.5 -80q25.5 25 63.5 25t63.5 -25t25.5 -61t-25.5 -61t-63.5 -25t-63.5 25t-25.5 61t25.5 61z" glyph-name="uni1EA1" horiz-adv-x="544" unicode="ạ"/><glyph d="M390.5 829q28.5 -23 28.5 -60q0 -25 -10.5 -42.5t-34.5 -33.5q-13 -9 -18 -14t-9 -14l-6 -12q-5 -11 -10.5 -14.5t-15.5 -3.5q-25 0 -39.5 11t-14.5 32q0 27 32 48l20 14q11 9 14 13q3 5 3 9q0 13 -21 13l-15 -2l-20 -5q-20 -5 -25 -5q-10 0 -17 9.5t-7 24.5 q0 25 23.5 40t65.5 15q48 0 76.5 -23zM181 555q24 61 134 61q55 0 91 -15.5t47 -44.5q34 -97 81 -263l65 -232q3 -12 3 -22q0 -26 -22 -37.5t-63 -11.5q-45 0 -64.5 14t-31.5 53l-18 69h-181l-16 -62l-6 -24q-11 -41 -43 -47q-15 -3 -34 -3q-48 0 -74 17.5t-26 48.5 q0 19 4 28q5 14 9 33q13 50 47 154l32 95l32 93zM314 459l-31 -93q-19 -53 -32 -105h124q-33 126 -55 198h-6z" glyph-name="uni1EA2" horiz-adv-x="627" unicode="Ả"/><glyph d="M342.5 719q28.5 -23 28.5 -60q0 -25 -10.5 -42.5t-34.5 -33.5q-13 -9 -18 -14t-9 -14l-6 -12q-5 -11 -10.5 -14.5t-15.5 -3.5q-25 0 -39.5 11t-14.5 32q0 27 32 48l20 14q11 9 14 13q3 5 3 9q0 13 -21 13l-15 -2l-20 -5q-20 -5 -25 -5q-10 0 -17 9.5t-7 24.5 q0 25 23.5 40t65.5 15q48 0 76.5 -23zM430 454.5q62 -46.5 62 -136.5v-224q0 -23 -11.5 -39.5t-37.5 -31.5q-64 -39 -183 -39q-111 0 -171.5 41.5t-60.5 121.5q0 69 41 106t127 46l131 14v7q0 54 -99 54q-43 0 -99 -14q-20 -5 -29 -5q-20 0 -31 16.5t-11 40.5q0 26 11.5 41 t39.5 27q53 21 143 21q116 0 178 -46.5zM299.5 111.5q19.5 3.5 28.5 9.5v80l-72 -6q-64 -4 -64 -42q0 -45 68 -45q20 0 39.5 3.5z" glyph-name="uni1EA3" horiz-adv-x="544" unicode="ả"/><glyph d="M514 956q13 16 21 22.5t17 7.5q2 1 16 1q33 0 51.5 -15.5t18.5 -45.5q0 -35 -35 -64l-48 -39q-26 -20 -42 -20l-13 2q-11 4 -24 13q-25 19 -25 43q0 21 13 34zM324 734l-72 -51q-26 -18 -44 -18q-13 0 -25.5 7t-20.5 19q-10 13 -10 32q0 21 9.5 36t36.5 33l36 26 q52 36 88 36q27 0 45.5 -8.5t45.5 -32.5l52 -46q26 -23 26 -46q0 -8 -3 -17q-13 -39 -54 -39q-20 0 -39 10.5t-48 37.5zM181 555q24 61 134 61q55 0 91 -15.5t47 -44.5q34 -97 81 -263l65 -232q3 -12 3 -22q0 -26 -22 -37.5t-63 -11.5q-45 0 -64.5 14t-31.5 53l-18 69h-181 l-16 -62l-6 -24q-11 -41 -43 -47q-15 -3 -34 -3q-48 0 -74 17.5t-26 48.5q0 19 4 28q5 14 9 33q13 50 47 154l32 95l32 93zM314 459l-31 -93q-19 -53 -32 -105h124q-33 126 -55 198h-6z" glyph-name="uni1EA4" horiz-adv-x="627" unicode="Ấ"/><glyph d="M457 847q13 16 21 22.5t17 7.5q2 1 16 1q33 0 51.5 -15.5t18.5 -45.5q0 -35 -35 -64l-48 -39q-26 -20 -42 -20l-13 2q-11 4 -24 13q-25 19 -25 43q0 21 13 34zM270 622q-44 -38 -53 -47l-11 -11q-22 -22 -45 -22q-9 0 -18 3q-49 16 -49 61q0 20 11 36t37 35l49 35 q24 17 43.5 24.5t39.5 7.5q23 0 36.5 -5t33.5 -19l32 -28l43 -38q26 -25 28 -33q1 -1 1 -9q0 -31 -17 -50.5t-47 -19.5q-20 0 -34 8q-18 10 -46 40zM430 454.5q62 -46.5 62 -136.5v-224q0 -23 -11.5 -39.5t-37.5 -31.5q-64 -39 -183 -39q-111 0 -171.5 41.5t-60.5 121.5 q0 69 41 106t127 46l131 14v7q0 54 -99 54q-43 0 -99 -14q-20 -5 -29 -5q-20 0 -31 16.5t-11 40.5q0 26 11.5 41t39.5 27q53 21 143 21q116 0 178 -46.5zM299.5 111.5q19.5 3.5 28.5 9.5v80l-72 -6q-64 -4 -64 -42q0 -45 68 -45q20 0 39.5 3.5z" glyph-name="uni1EA5" horiz-adv-x="544" unicode="ấ"/><glyph d="M432 883q-23 21 -23 43q0 6 5 21q9 18 24.5 28.5t33.5 10.5q24 0 41 -10.5t36 -35.5l37 -47q18 -21 18 -40q0 -12 -9 -26q-18 -25 -46 -25q-31 0 -66 32zM324 734l-72 -51q-26 -18 -44 -18q-13 0 -25.5 7t-20.5 19q-10 13 -10 32q0 21 9.5 36t36.5 33l36 26q52 36 88 36 q27 0 45.5 -8.5t45.5 -32.5l52 -46q26 -23 26 -46q0 -8 -3 -17q-13 -39 -54 -39q-20 0 -39 10.5t-48 37.5zM181 555q24 61 134 61q55 0 91 -15.5t47 -44.5q34 -97 81 -263l65 -232q3 -12 3 -22q0 -26 -22 -37.5t-63 -11.5q-45 0 -64.5 14t-31.5 53l-18 69h-181l-16 -62 l-6 -24q-11 -41 -43 -47q-15 -3 -34 -3q-48 0 -74 17.5t-26 48.5q0 19 4 28q5 14 9 33q13 50 47 154l32 95l32 93zM314 459l-31 -93q-19 -53 -32 -105h124q-33 126 -55 198h-6z" glyph-name="uni1EA6" horiz-adv-x="627" unicode="Ầ"/><glyph d="M358 776q-23 21 -23 43q0 6 5 21q9 18 24.5 28.5t33.5 10.5q24 0 41 -10.5t36 -35.5l37 -47q18 -21 18 -40q0 -12 -9 -26q-18 -25 -46 -25q-31 0 -66 32zM256 622q-44 -38 -53 -47l-11 -11q-22 -22 -45 -22q-9 0 -18 3q-49 16 -49 61q0 20 11 36t37 35l49 35 q24 17 43.5 24.5t39.5 7.5q23 0 36.5 -5t33.5 -19l32 -28l43 -38q26 -25 28 -33q1 -1 1 -9q0 -31 -17 -50.5t-47 -19.5q-20 0 -34 8q-18 10 -46 40zM430 454.5q62 -46.5 62 -136.5v-224q0 -23 -11.5 -39.5t-37.5 -31.5q-64 -39 -183 -39q-111 0 -171.5 41.5t-60.5 121.5 q0 69 41 106t127 46l131 14v7q0 54 -99 54q-43 0 -99 -14q-20 -5 -29 -5q-20 0 -31 16.5t-11 40.5q0 26 11.5 41t39.5 27q53 21 143 21q116 0 178 -46.5zM299.5 111.5q19.5 3.5 28.5 9.5v80l-72 -6q-64 -4 -64 -42q0 -45 68 -45q20 0 39.5 3.5z" glyph-name="uni1EA7" horiz-adv-x="544" unicode="ầ"/><glyph d="M598.5 984q28.5 -23 28.5 -60q0 -25 -10.5 -42.5t-34.5 -33.5q-13 -9 -18 -14t-9 -14l-6 -12q-5 -11 -10.5 -14.5t-15.5 -3.5q-25 0 -39.5 11t-14.5 32q0 27 32 48l20 14q11 9 14 13q3 5 3 9q0 13 -21 13l-15 -2l-20 -5q-20 -5 -25 -5q-10 0 -17 9.5t-7 24.5 q0 25 23.5 40t65.5 15q48 0 76.5 -23zM324 734l-72 -51q-26 -18 -44 -18q-13 0 -25.5 7t-20.5 19q-10 13 -10 32q0 21 9.5 36t36.5 33l36 26q52 36 88 36q27 0 45.5 -8.5t45.5 -32.5l52 -46q26 -23 26 -46q0 -8 -3 -17q-13 -39 -54 -39q-20 0 -39 10.5t-48 37.5zM181 555 q24 61 134 61q55 0 91 -15.5t47 -44.5q34 -97 81 -263l65 -232q3 -12 3 -22q0 -26 -22 -37.5t-63 -11.5q-45 0 -64.5 14t-31.5 53l-18 69h-181l-16 -62l-6 -24q-11 -41 -43 -47q-15 -3 -34 -3q-48 0 -74 17.5t-26 48.5q0 19 4 28q5 14 9 33q13 50 47 154l32 95l32 93z M314 459l-31 -93q-19 -53 -32 -105h124q-33 126 -55 198h-6z" glyph-name="uni1EA8" horiz-adv-x="627" unicode="Ẩ"/><glyph d="M543.5 874q28.5 -23 28.5 -60q0 -25 -10.5 -42.5t-34.5 -33.5q-13 -9 -18 -14t-9 -14l-6 -12q-5 -11 -10.5 -14.5t-15.5 -3.5q-25 0 -39.5 11t-14.5 32q0 27 32 48l20 14q11 9 14 13q3 5 3 9q0 13 -21 13l-15 -2l-20 -5q-20 -5 -25 -5q-10 0 -17 9.5t-7 24.5 q0 25 23.5 40t65.5 15q48 0 76.5 -23zM270 622q-44 -38 -53 -47l-11 -11q-22 -22 -45 -22q-9 0 -18 3q-49 16 -49 61q0 20 11 36t37 35l49 35q24 17 43.5 24.5t39.5 7.5q23 0 36.5 -5t33.5 -19l32 -28l43 -38q26 -25 28 -33q1 -1 1 -9q0 -31 -17 -50.5t-47 -19.5 q-20 0 -34 8q-18 10 -46 40zM430 454.5q62 -46.5 62 -136.5v-224q0 -23 -11.5 -39.5t-37.5 -31.5q-64 -39 -183 -39q-111 0 -171.5 41.5t-60.5 121.5q0 69 41 106t127 46l131 14v7q0 54 -99 54q-43 0 -99 -14q-20 -5 -29 -5q-20 0 -31 16.5t-11 40.5q0 26 11.5 41t39.5 27 q53 21 143 21q116 0 178 -46.5zM299.5 111.5q19.5 3.5 28.5 9.5v80l-72 -6q-64 -4 -64 -42q0 -45 68 -45q20 0 39.5 3.5z" glyph-name="uni1EA9" horiz-adv-x="544" unicode="ẩ"/><glyph d="M332 1004q26 -10 45 -10q9 0 17 3t21 11l12 7q12 5 19 5q3 0 16 -5q35 -18 35 -62q0 -38 -23 -58t-65 -20q-37 0 -54 7l-36 11l-21 6l-17 2q-21 0 -40 -15q-19 -12 -30 -12q-3 0 -16 5q-16 9 -25 25t-9 37q0 37 29 60q12 9 28 14t32 5q6 0 28 -2l22 -5zM324 724l-72 -51 q-26 -18 -44 -18q-13 0 -25.5 7t-20.5 19q-10 13 -10 32q0 21 9.5 36t36.5 33l36 26q52 36 88 36q27 0 45.5 -8.5t45.5 -32.5l52 -46q26 -23 26 -46q0 -8 -3 -17q-13 -39 -54 -39q-20 0 -39 10.5t-48 37.5zM181 555q24 61 134 61q55 0 91 -15.5t47 -44.5q34 -97 81 -263 l65 -232q3 -12 3 -22q0 -26 -22 -37.5t-63 -11.5q-45 0 -64.5 14t-31.5 53l-18 69h-181l-16 -62l-6 -24q-11 -41 -43 -47q-15 -3 -34 -3q-48 0 -74 17.5t-26 48.5q0 19 4 28q5 14 9 33q13 50 47 154l32 95l32 93zM314 459l-31 -93q-19 -53 -32 -105h124q-33 126 -55 198h-6z" glyph-name="uni1EAA" horiz-adv-x="627" unicode="Ẫ"/><glyph d="M274 906q26 -10 45 -10q15 0 38 14l12 7q12 5 19 5q3 0 16 -5q35 -18 35 -62q0 -38 -23 -58t-65 -20q-37 0 -54 7l-36 11l-21 6l-17 2q-21 0 -40 -15q-19 -12 -30 -12q-3 0 -16 5q-16 9 -25 25t-9 37q0 37 29 60q12 9 28 14t32 5q6 0 28 -2l22 -5zM270 622 q-44 -38 -53 -47l-11 -11q-22 -22 -45 -22q-9 0 -18 3q-49 16 -49 61q0 20 11 36t37 35l49 35q24 17 43.5 24.5t39.5 7.5q23 0 36.5 -5t33.5 -19l32 -28l43 -38q26 -25 28 -33q1 -1 1 -9q0 -31 -17 -50.5t-47 -19.5q-20 0 -34 8q-18 10 -46 40zM430 454.5 q62 -46.5 62 -136.5v-224q0 -23 -11.5 -39.5t-37.5 -31.5q-64 -39 -183 -39q-111 0 -171.5 41.5t-60.5 121.5q0 69 41 106t127 46l131 14v7q0 54 -99 54q-43 0 -99 -14q-20 -5 -29 -5q-20 0 -31 16.5t-11 40.5q0 26 11.5 41t39.5 27q53 21 143 21q116 0 178 -46.5z M299.5 111.5q19.5 3.5 28.5 9.5v80l-72 -6q-64 -4 -64 -42q0 -45 68 -45q20 0 39.5 3.5z" glyph-name="uni1EAB" horiz-adv-x="544" unicode="ẫ"/><glyph d="M324 734l-72 -51q-26 -18 -44 -18q-13 0 -25.5 7t-20.5 19q-10 13 -10 32q0 21 9.5 36t36.5 33l36 26q52 36 88 36q27 0 45.5 -8.5t45.5 -32.5l52 -46q26 -23 26 -46q0 -8 -3 -17q-13 -39 -54 -39q-20 0 -39 10.5t-48 37.5zM181 555q24 61 134 61q55 0 91 -15.5t47 -44.5 q34 -97 81 -263l65 -232q3 -12 3 -22q0 -26 -22 -37.5t-63 -11.5q-45 0 -64.5 14t-31.5 53l-18 69h-181l-16 -62l-6 -24q-11 -41 -43 -47q-15 -3 -34 -3q-48 0 -74 17.5t-26 48.5q0 19 4 28q5 14 9 33q13 50 47 154l32 95l32 93zM314 459l-31 -93q-19 -53 -32 -105h124 q-33 126 -55 198h-6zM256.5 -80q25.5 25 63.5 25t63.5 -25t25.5 -61t-25.5 -61t-63.5 -25t-63.5 25t-25.5 61t25.5 61z" glyph-name="uni1EAC" horiz-adv-x="627" unicode="Ậ"/><glyph d="M270 622q-44 -38 -53 -47l-11 -11q-22 -22 -45 -22q-9 0 -18 3q-49 16 -49 61q0 20 11 36t37 35l49 35q24 17 43.5 24.5t39.5 7.5q23 0 36.5 -5t33.5 -19l32 -28l43 -38q26 -25 28 -33q1 -1 1 -9q0 -31 -17 -50.5t-47 -19.5q-20 0 -34 8q-18 10 -46 40zM430 454.5 q62 -46.5 62 -136.5v-224q0 -23 -11.5 -39.5t-37.5 -31.5q-64 -39 -183 -39q-111 0 -171.5 41.5t-60.5 121.5q0 69 41 106t127 46l131 14v7q0 54 -99 54q-43 0 -99 -14q-20 -5 -29 -5q-20 0 -31 16.5t-11 40.5q0 26 11.5 41t39.5 27q53 21 143 21q116 0 178 -46.5z M299.5 111.5q19.5 3.5 28.5 9.5v80l-72 -6q-64 -4 -64 -42q0 -45 68 -45q20 0 39.5 3.5zM194.5 -80q25.5 25 63.5 25t63.5 -25t25.5 -61t-25.5 -61t-63.5 -25t-63.5 25t-25.5 61t25.5 61z" glyph-name="uni1EAD" horiz-adv-x="544" unicode="ậ"/><glyph d="M322 992q13 16 21 22.5t17 7.5q2 1 16 1q33 0 51.5 -15.5t18.5 -45.5q0 -35 -35 -64l-48 -39q-26 -20 -42 -20l-13 2q-11 4 -24 13q-25 19 -25 43q0 21 13 34zM189 690q-47 29 -47 77q0 32 21.5 52t58.5 20h9q8 0 9 -1q5 -23 25.5 -37.5t50.5 -14.5q33 0 55 19 q14 14 19 24q4 10 6 10h14q37 0 58.5 -20t21.5 -52q0 -48 -47 -77t-127 -29t-127 29zM181 555q24 61 134 61q55 0 91 -15.5t47 -44.5q34 -97 81 -263l65 -232q3 -12 3 -22q0 -26 -22 -37.5t-63 -11.5q-45 0 -64.5 14t-31.5 53l-18 69h-181l-16 -62l-6 -24q-11 -41 -43 -47 q-15 -3 -34 -3q-48 0 -74 17.5t-26 48.5q0 19 4 28q5 14 9 33q13 50 47 154l32 95l32 93zM314 459l-31 -93q-19 -53 -32 -105h124q-33 126 -55 198h-6z" glyph-name="uni1EAE" horiz-adv-x="627" unicode="Ắ"/><glyph d="M275 884q13 16 21 22.5t17 7.5q2 1 16 1q33 0 51.5 -15.5t18.5 -45.5q0 -35 -35 -64l-48 -39q-26 -20 -42 -20l-13 2q-11 4 -24 13q-25 19 -25 43q0 21 13 34zM144 582q-47 29 -47 77q0 32 21.5 52t58.5 20h9q8 0 9 -1q5 -23 25.5 -37.5t50.5 -14.5q33 0 55 19 q14 14 19 24q4 10 6 10h14q37 0 58.5 -20t21.5 -52q0 -48 -47 -77t-127 -29t-127 29zM430 454.5q62 -46.5 62 -136.5v-224q0 -23 -11.5 -39.5t-37.5 -31.5q-64 -39 -183 -39q-111 0 -171.5 41.5t-60.5 121.5q0 69 41 106t127 46l131 14v7q0 54 -99 54q-43 0 -99 -14 q-20 -5 -29 -5q-20 0 -31 16.5t-11 40.5q0 26 11.5 41t39.5 27q53 21 143 21q116 0 178 -46.5zM299.5 111.5q19.5 3.5 28.5 9.5v80l-72 -6q-64 -4 -64 -42q0 -45 68 -45q20 0 39.5 3.5z" glyph-name="uni1EAF" horiz-adv-x="544" unicode="ắ"/><glyph d="M204 918q-23 21 -23 43q0 6 5 21q9 18 24.5 28.5t33.5 10.5q24 0 41 -10.5t36 -35.5l37 -47q18 -21 18 -40q0 -12 -9 -26q-18 -25 -46 -25q-31 0 -66 32zM189 690q-47 29 -47 77q0 32 21.5 52t58.5 20h9q8 0 9 -1q5 -23 25.5 -37.5t50.5 -14.5q33 0 55 19q14 14 19 24 q4 10 6 10h14q37 0 58.5 -20t21.5 -52q0 -48 -47 -77t-127 -29t-127 29zM181 555q24 61 134 61q55 0 91 -15.5t47 -44.5q34 -97 81 -263l65 -232q3 -12 3 -22q0 -26 -22 -37.5t-63 -11.5q-45 0 -64.5 14t-31.5 53l-18 69h-181l-16 -62l-6 -24q-11 -41 -43 -47q-15 -3 -34 -3 q-48 0 -74 17.5t-26 48.5q0 19 4 28q5 14 9 33q13 50 47 154l32 95l32 93zM314 459l-31 -93q-19 -53 -32 -105h124q-33 126 -55 198h-6z" glyph-name="uni1EB0" horiz-adv-x="627" unicode="Ằ"/><glyph d="M158 810q-23 21 -23 43q0 6 5 21q9 18 24.5 28.5t33.5 10.5q24 0 41 -10.5t36 -35.5l37 -47q18 -21 18 -40q0 -12 -9 -26q-18 -25 -46 -25q-31 0 -66 32zM144 582q-47 29 -47 77q0 32 21.5 52t58.5 20h9q8 0 9 -1q5 -23 25.5 -37.5t50.5 -14.5q33 0 55 19q14 14 19 24 q4 10 6 10h14q37 0 58.5 -20t21.5 -52q0 -48 -47 -77t-127 -29t-127 29zM430 454.5q62 -46.5 62 -136.5v-224q0 -23 -11.5 -39.5t-37.5 -31.5q-64 -39 -183 -39q-111 0 -171.5 41.5t-60.5 121.5q0 69 41 106t127 46l131 14v7q0 54 -99 54q-43 0 -99 -14q-20 -5 -29 -5 q-20 0 -31 16.5t-11 40.5q0 26 11.5 41t39.5 27q53 21 143 21q116 0 178 -46.5zM299.5 111.5q19.5 3.5 28.5 9.5v80l-72 -6q-64 -4 -64 -42q0 -45 68 -45q20 0 39.5 3.5z" glyph-name="uni1EB1" horiz-adv-x="544" unicode="ằ"/><glyph d="M394.5 1027q28.5 -23 28.5 -60q0 -25 -10.5 -42.5t-34.5 -33.5q-13 -9 -18 -14t-9 -14l-6 -12q-5 -11 -10.5 -14.5t-15.5 -3.5q-25 0 -39.5 11t-14.5 32q0 27 32 48l20 14q11 9 14 13q3 5 3 9q0 13 -21 13l-15 -2l-20 -5q-20 -5 -25 -5q-10 0 -17 9.5t-7 24.5 q0 25 23.5 40t65.5 15q48 0 76.5 -23zM189 690q-47 29 -47 77q0 32 21.5 52t58.5 20h9q8 0 9 -1q5 -23 25.5 -37.5t50.5 -14.5q33 0 55 19q14 14 19 24q4 10 6 10h14q37 0 58.5 -20t21.5 -52q0 -48 -47 -77t-127 -29t-127 29zM181 555q24 61 134 61q55 0 91 -15.5t47 -44.5 q34 -97 81 -263l65 -232q3 -12 3 -22q0 -26 -22 -37.5t-63 -11.5q-45 0 -64.5 14t-31.5 53l-18 69h-181l-16 -62l-6 -24q-11 -41 -43 -47q-15 -3 -34 -3q-48 0 -74 17.5t-26 48.5q0 19 4 28q5 14 9 33q13 50 47 154l32 95l32 93zM314 459l-31 -93q-19 -53 -32 -105h124 q-33 126 -55 198h-6z" glyph-name="uni1EB2" horiz-adv-x="627" unicode="Ẳ"/><glyph d="M354.5 900q28.5 -23 28.5 -60q0 -25 -10.5 -42.5t-34.5 -33.5q-13 -9 -18 -14t-9 -14l-6 -12q-5 -11 -10.5 -14.5t-15.5 -3.5q-25 0 -39.5 11t-14.5 32q0 27 32 48l20 14q11 9 14 13q3 5 3 9q0 13 -21 13l-15 -2l-20 -5q-20 -5 -25 -5q-10 0 -17 9.5t-7 24.5 q0 25 23.5 40t65.5 15q48 0 76.5 -23zM144 582q-47 29 -47 77q0 32 21.5 52t58.5 20h9q8 0 9 -1q5 -23 25.5 -37.5t50.5 -14.5q33 0 55 19q14 14 19 24q4 10 6 10h14q37 0 58.5 -20t21.5 -52q0 -48 -47 -77t-127 -29t-127 29zM430 454.5q62 -46.5 62 -136.5v-224 q0 -23 -11.5 -39.5t-37.5 -31.5q-64 -39 -183 -39q-111 0 -171.5 41.5t-60.5 121.5q0 69 41 106t127 46l131 14v7q0 54 -99 54q-43 0 -99 -14q-20 -5 -29 -5q-20 0 -31 16.5t-11 40.5q0 26 11.5 41t39.5 27q53 21 143 21q116 0 178 -46.5zM299.5 111.5q19.5 3.5 28.5 9.5v80 l-72 -6q-64 -4 -64 -42q0 -45 68 -45q20 0 39.5 3.5z" glyph-name="uni1EB3" horiz-adv-x="544" unicode="ẳ"/><glyph d="M315 1004q26 -10 45 -10q15 0 38 14l12 7q12 5 19 5q3 0 16 -5q35 -18 35 -62q0 -38 -23 -58t-65 -20q-37 0 -54 7l-36 11l-21 6l-17 2q-11 0 -20 -3.5t-20 -11.5q-20 -12 -30 -12q-3 0 -16 5q-16 9 -25 25t-9 37q0 37 29 60q12 9 28 14t32 5q6 0 28 -2l22 -5zM189 685 q-47 29 -47 77q0 32 21.5 52t58.5 20h9q8 0 9 -1q5 -23 25.5 -37.5t50.5 -14.5q33 0 55 19q14 14 19 24q4 10 6 10h14q37 0 58.5 -20t21.5 -52q0 -48 -47 -77t-127 -29t-127 29zM181 555q24 61 134 61q55 0 91 -15.5t47 -44.5q34 -97 81 -263l65 -232q3 -12 3 -22 q0 -26 -22 -37.5t-63 -11.5q-45 0 -64.5 14t-31.5 53l-18 69h-181l-16 -62l-6 -24q-11 -41 -43 -47q-15 -3 -34 -3q-48 0 -74 17.5t-26 48.5q0 19 4 28q5 14 9 33q13 50 47 154l32 95l32 93zM314 459l-31 -93q-19 -53 -32 -105h124q-33 126 -55 198h-6z" glyph-name="uni1EB4" horiz-adv-x="627" unicode="Ẵ"/><glyph d="M271 906q26 -10 45 -10q9 0 17 3t21 11l12 7q12 5 19 5q3 0 16 -5q35 -18 35 -62q0 -38 -23 -58t-65 -20q-37 0 -54 7l-36 11l-21 6l-17 2q-11 0 -20 -3.5t-20 -11.5q-20 -12 -30 -12q-3 0 -16 5q-16 9 -25 25t-9 37q0 37 29 60q12 9 28 14t32 5q6 0 28 -2l22 -5z M144 582q-47 29 -47 77q0 32 21.5 52t58.5 20h9q8 0 9 -1q5 -23 25.5 -37.5t50.5 -14.5q33 0 55 19q14 14 19 24q4 10 6 10h14q37 0 58.5 -20t21.5 -52q0 -48 -47 -77t-127 -29t-127 29zM430 454.5q62 -46.5 62 -136.5v-224q0 -23 -11.5 -39.5t-37.5 -31.5q-64 -39 -183 -39 q-111 0 -171.5 41.5t-60.5 121.5q0 69 41 106t127 46l131 14v7q0 54 -99 54q-43 0 -99 -14q-20 -5 -29 -5q-20 0 -31 16.5t-11 40.5q0 26 11.5 41t39.5 27q53 21 143 21q116 0 178 -46.5zM299.5 111.5q19.5 3.5 28.5 9.5v80l-72 -6q-64 -4 -64 -42q0 -45 68 -45 q20 0 39.5 3.5z" glyph-name="uni1EB5" horiz-adv-x="544" unicode="ẵ"/><glyph d="M189 690q-47 29 -47 77q0 32 21.5 52t58.5 20h9q8 0 9 -1q5 -23 25.5 -37.5t50.5 -14.5q33 0 55 19q14 14 19 24q4 10 6 10h14q37 0 58.5 -20t21.5 -52q0 -48 -47 -77t-127 -29t-127 29zM181 555q24 61 134 61q55 0 91 -15.5t47 -44.5q34 -97 81 -263l65 -232 q3 -12 3 -22q0 -26 -22 -37.5t-63 -11.5q-45 0 -64.5 14t-31.5 53l-18 69h-181l-16 -62l-6 -24q-11 -41 -43 -47q-15 -3 -34 -3q-48 0 -74 17.5t-26 48.5q0 19 4 28q5 14 9 33q13 50 47 154l32 95l32 93zM314 459l-31 -93q-19 -53 -32 -105h124q-33 126 -55 198h-6z M256.5 -80q25.5 25 63.5 25t63.5 -25t25.5 -61t-25.5 -61t-63.5 -25t-63.5 25t-25.5 61t25.5 61z" glyph-name="uni1EB6" horiz-adv-x="627" unicode="Ặ"/><glyph d="M148 582q-47 29 -47 77q0 32 21.5 52t58.5 20h9q8 0 9 -1q5 -23 25.5 -37.5t50.5 -14.5q33 0 55 19q14 14 19 24q4 10 6 10h14q37 0 58.5 -20t21.5 -52q0 -48 -47 -77t-127 -29t-127 29zM430 454.5q62 -46.5 62 -136.5v-224q0 -23 -11.5 -39.5t-37.5 -31.5 q-64 -39 -183 -39q-111 0 -171.5 41.5t-60.5 121.5q0 69 41 106t127 46l131 14v7q0 54 -99 54q-43 0 -99 -14q-20 -5 -29 -5q-20 0 -31 16.5t-11 40.5q0 26 11.5 41t39.5 27q53 21 143 21q116 0 178 -46.5zM299.5 111.5q19.5 3.5 28.5 9.5v80l-72 -6q-64 -4 -64 -42 q0 -45 68 -45q20 0 39.5 3.5zM198.5 -80q25.5 25 63.5 25t63.5 -25t25.5 -61t-25.5 -61t-63.5 -25t-63.5 25t-25.5 61t25.5 61z" glyph-name="uni1EB7" horiz-adv-x="544" unicode="ặ"/><glyph d="M58 513q0 43 25 68t68 25h289q46 0 54 -32q5 -22 5 -35q0 -70 -60 -70h-211v-93h184q46 0 54 -32q5 -20 5 -34q0 -70 -59 -70h-184v-105h216q46 0 54 -32q5 -22 5 -35q0 -71 -60 -71h-292q-43 0 -68 25t-25 68v423zM221.5 -80q25.5 25 63.5 25t63.5 -25t25.5 -61 t-25.5 -61t-63.5 -25t-63.5 25t-25.5 61t25.5 61z" glyph-name="uni1EB8" horiz-adv-x="541" unicode="Ẹ"/><glyph d="M112 50q-39 34 -60 84.5t-21 115.5q0 125 78 192q32 29 77 44t95 15q52 0 96 -15.5t76 -44.5q32 -28 49 -67t17 -85q0 -64 -72 -75l-247 -37q11 -32 43 -49t80 -17q47 0 98 17q27 8 35 8q19 0 30.5 -17t11.5 -39q0 -38 -30 -60.5t-84 -29.5q-40 -6 -75 -6q-122 0 -197 66 zM215 352.5q-25 -24.5 -27 -63.5l171 28q-3 25 -24.5 42.5t-53.5 17.5q-41 0 -66 -24.5zM212.5 -80q25.5 25 63.5 25t63.5 -25t25.5 -61t-25.5 -61t-63.5 -25t-63.5 25t-25.5 61t25.5 61z" glyph-name="uni1EB9" unicode="ẹ"/><glyph d="M364.5 849q28.5 -23 28.5 -60q0 -25 -10.5 -42.5t-34.5 -33.5q-13 -9 -18 -14t-9 -14l-6 -12q-5 -11 -10.5 -14.5t-15.5 -3.5q-25 0 -39.5 11t-14.5 32q0 27 32 48l20 14q11 9 14 13q3 5 3 9q0 13 -21 13l-15 -2l-20 -5q-20 -5 -25 -5q-10 0 -17 9.5t-7 24.5 q0 25 23.5 40t65.5 15q48 0 76.5 -23zM58 513q0 43 25 68t68 25h289q46 0 54 -32q5 -22 5 -35q0 -70 -60 -70h-211v-93h184q46 0 54 -32q5 -20 5 -34q0 -70 -59 -70h-184v-105h216q46 0 54 -32q5 -22 5 -35q0 -71 -60 -71h-292q-43 0 -68 25t-25 68v423z" glyph-name="uni1EBA" horiz-adv-x="541" unicode="Ẻ"/><glyph d="M342.5 729q28.5 -23 28.5 -60q0 -25 -10.5 -42.5t-34.5 -33.5q-13 -9 -18 -14t-9 -14l-6 -12q-5 -11 -10.5 -14.5t-15.5 -3.5q-25 0 -39.5 11t-14.5 32q0 27 32 48l20 14q11 9 14 13q3 5 3 9q0 13 -21 13l-15 -2l-20 -5q-20 -5 -25 -5q-10 0 -17 9.5t-7 24.5 q0 25 23.5 40t65.5 15q48 0 76.5 -23zM112 50q-39 34 -60 84.5t-21 115.5q0 125 78 192q32 29 77 44t95 15q52 0 96 -15.5t76 -44.5q32 -28 49 -67t17 -85q0 -64 -72 -75l-247 -37q11 -32 43 -49t80 -17q47 0 98 17q27 8 35 8q19 0 30.5 -17t11.5 -39q0 -38 -30 -60.5 t-84 -29.5q-40 -6 -75 -6q-122 0 -197 66zM215 352.5q-25 -24.5 -27 -63.5l171 28q-3 25 -24.5 42.5t-53.5 17.5q-41 0 -66 -24.5z" glyph-name="uni1EBB" unicode="ẻ"/><glyph d="M317 817q14 0 23 6l36 21q7 3 15 3q10 0 17 -4q19 -10 30.5 -28.5t11.5 -42.5q0 -42 -26 -64.5t-72 -22.5q-30 0 -59 8l-40 12q-25 9 -42 9q-14 0 -23 -6q-23 -15 -35 -20q-7 -4 -16 -4q-10 0 -17 4q-19 10 -30.5 28.5t-11.5 42.5q0 39 27.5 63t70.5 24q13 0 32 -3 q18 -3 59 -15q41 -11 50 -11zM58 513q0 43 25 68t68 25h289q46 0 54 -32q5 -22 5 -35q0 -70 -60 -70h-211v-93h184q46 0 54 -32q5 -20 5 -34q0 -70 -59 -70h-184v-105h216q46 0 54 -32q5 -22 5 -35q0 -71 -60 -71h-292q-43 0 -68 25t-25 68v423z" glyph-name="uni1EBC" horiz-adv-x="541" unicode="Ẽ"/><glyph d="M318 686q14 0 23 6l36 21q7 3 15 3q10 0 17 -4q19 -10 30.5 -28.5t11.5 -42.5q0 -42 -26 -64.5t-72 -22.5q-30 0 -59 8l-40 12q-25 9 -42 9q-14 0 -23 -6q-23 -15 -35 -20q-7 -4 -16 -4q-10 0 -17 4q-19 10 -30.5 28.5t-11.5 42.5q0 39 27.5 63t70.5 24q13 0 32 -3 q18 -3 59 -15q41 -11 50 -11zM112 50q-39 34 -60 84.5t-21 115.5q0 125 78 192q32 29 77 44t95 15q52 0 96 -15.5t76 -44.5q32 -28 49 -67t17 -85q0 -64 -72 -75l-247 -37q11 -32 43 -49t80 -17q47 0 98 17q27 8 35 8q19 0 30.5 -17t11.5 -39q0 -38 -30 -60.5t-84 -29.5 q-40 -6 -75 -6q-122 0 -197 66zM215 352.5q-25 -24.5 -27 -63.5l171 28q-3 25 -24.5 42.5t-53.5 17.5q-41 0 -66 -24.5z" glyph-name="uni1EBD" unicode="ẽ"/><glyph d="M463 956q13 16 21 22.5t17 7.5q2 1 16 1q33 0 51.5 -15.5t18.5 -45.5q0 -35 -35 -64l-48 -39q-26 -20 -42 -20l-13 2q-11 4 -24 13q-25 19 -25 43q0 21 13 34zM272 734l-72 -51q-25 -18 -44 -18q-13 0 -25.5 7t-20.5 19q-10 13 -10 32q0 21 9.5 36t36.5 33l36 26 q52 36 88 36q27 0 45.5 -8.5t45.5 -32.5l52 -46q26 -23 26 -46q0 -8 -3 -17q-14 -39 -54 -39q-20 0 -39 10.5t-48 37.5zM65 513q0 43 25 68t68 25h289q46 0 54 -32q5 -22 5 -35q0 -70 -60 -70h-211v-93h184q46 0 54 -32q5 -20 5 -34q0 -70 -59 -70h-184v-105h216 q46 0 54 -32q5 -22 5 -35q0 -71 -60 -71h-292q-43 0 -68 25t-25 68v423z" glyph-name="uni1EBE" horiz-adv-x="548" unicode="Ế"/><glyph d="M433 847q13 16 21 22.5t17 7.5q2 1 16 1q33 0 51.5 -15.5t18.5 -45.5q0 -35 -35 -64l-48 -39q-26 -20 -42 -20l-13 2q-11 4 -24 13q-25 19 -25 43q0 21 13 34zM268 622q-44 -38 -53 -47l-11 -11q-22 -22 -45 -22q-9 0 -18 3q-49 16 -49 61q0 20 11 36t37 35l49 35 q24 17 43.5 24.5t39.5 7.5q23 0 36.5 -5t33.5 -19l32 -28l43 -38q26 -25 28 -33q1 -1 1 -9q0 -31 -17 -50.5t-47 -19.5q-20 0 -34 8q-18 10 -46 40zM112 50q-39 34 -60 84.5t-21 115.5q0 125 78 192q32 29 77 44t95 15q52 0 96 -15.5t76 -44.5q32 -28 49 -67t17 -85 q0 -64 -72 -75l-247 -37q11 -32 43 -49t80 -17q47 0 98 17q27 8 35 8q19 0 30.5 -17t11.5 -39q0 -38 -30 -60.5t-84 -29.5q-40 -6 -75 -6q-122 0 -197 66zM215 352.5q-25 -24.5 -27 -63.5l171 28q-3 25 -24.5 42.5t-53.5 17.5q-41 0 -66 -24.5z" glyph-name="uni1EBF" unicode="ế"/><glyph d="M381 883q-23 21 -23 43q0 6 5 21q9 18 24.5 28.5t33.5 10.5q24 0 41 -10.5t36 -35.5l37 -47q18 -21 18 -40q0 -12 -9 -26q-18 -25 -46 -25q-31 0 -66 32zM272 734l-72 -51q-25 -18 -44 -18q-13 0 -25.5 7t-20.5 19q-10 13 -10 32q0 21 9.5 36t36.5 33l36 26q52 36 88 36 q27 0 45.5 -8.5t45.5 -32.5l52 -46q26 -23 26 -46q0 -8 -3 -17q-14 -39 -54 -39q-20 0 -39 10.5t-48 37.5zM65 513q0 43 25 68t68 25h289q46 0 54 -32q5 -22 5 -35q0 -70 -60 -70h-211v-93h184q46 0 54 -32q5 -20 5 -34q0 -70 -59 -70h-184v-105h216q46 0 54 -32 q5 -22 5 -35q0 -71 -60 -71h-292q-43 0 -68 25t-25 68v423z" glyph-name="uni1EC0" horiz-adv-x="548" unicode="Ề"/><glyph d="M338 776q-23 21 -23 43q0 6 5 21q9 18 24.5 28.5t33.5 10.5q24 0 41 -10.5t36 -35.5l37 -47q18 -21 18 -40q0 -12 -9 -26q-18 -25 -46 -25q-31 0 -66 32zM268 622q-44 -38 -53 -47l-11 -11q-22 -22 -45 -22q-9 0 -18 3q-49 16 -49 61q0 20 11 36t37 35l49 35 q24 17 43.5 24.5t39.5 7.5q23 0 36.5 -5t33.5 -19l32 -28l43 -38q26 -25 28 -33q1 -1 1 -9q0 -31 -17 -50.5t-47 -19.5q-20 0 -34 8q-18 10 -46 40zM112 50q-39 34 -60 84.5t-21 115.5q0 125 78 192q32 29 77 44t95 15q52 0 96 -15.5t76 -44.5q32 -28 49 -67t17 -85 q0 -64 -72 -75l-247 -37q11 -32 43 -49t80 -17q47 0 98 17q27 8 35 8q19 0 30.5 -17t11.5 -39q0 -38 -30 -60.5t-84 -29.5q-40 -6 -75 -6q-122 0 -197 66zM215 352.5q-25 -24.5 -27 -63.5l171 28q-3 25 -24.5 42.5t-53.5 17.5q-41 0 -66 -24.5z" glyph-name="uni1EC1" unicode="ề"/><glyph d="M547.5 984q28.5 -23 28.5 -60q0 -25 -10.5 -42.5t-34.5 -33.5q-13 -9 -18 -14t-9 -14l-6 -12q-5 -11 -10.5 -14.5t-15.5 -3.5q-25 0 -39.5 11t-14.5 32q0 27 32 48l20 14q11 9 14 13q3 5 3 9q0 13 -21 13l-15 -2l-20 -5q-20 -5 -25 -5q-10 0 -17 9.5t-7 24.5 q0 25 23.5 40t65.5 15q48 0 76.5 -23zM272 734l-72 -51q-25 -18 -44 -18q-13 0 -25.5 7t-20.5 19q-10 13 -10 32q0 21 9.5 36t36.5 33l36 26q52 36 88 36q27 0 45.5 -8.5t45.5 -32.5l52 -46q26 -23 26 -46q0 -8 -3 -17q-14 -39 -54 -39q-20 0 -39 10.5t-48 37.5zM65 513 q0 43 25 68t68 25h289q46 0 54 -32q5 -22 5 -35q0 -70 -60 -70h-211v-93h184q46 0 54 -32q5 -20 5 -34q0 -70 -59 -70h-184v-105h216q46 0 54 -32q5 -22 5 -35q0 -71 -60 -71h-292q-43 0 -68 25t-25 68v423z" glyph-name="uni1EC2" horiz-adv-x="548" unicode="Ể"/><glyph d="M539.5 874q28.5 -23 28.5 -60q0 -25 -10.5 -42.5t-34.5 -33.5q-13 -9 -18 -14t-9 -14l-6 -12q-5 -11 -10.5 -14.5t-15.5 -3.5q-25 0 -39.5 11t-14.5 32q0 27 32 48l20 14q11 9 14 13q3 5 3 9q0 13 -21 13l-15 -2l-20 -5q-20 -5 -25 -5q-10 0 -17 9.5t-7 24.5 q0 25 23.5 40t65.5 15q48 0 76.5 -23zM268 622q-44 -38 -53 -47l-11 -11q-22 -22 -45 -22q-9 0 -18 3q-49 16 -49 61q0 20 11 36t37 35l49 35q24 17 43.5 24.5t39.5 7.5q23 0 36.5 -5t33.5 -19l32 -28l43 -38q26 -25 28 -33q1 -1 1 -9q0 -31 -17 -50.5t-47 -19.5 q-20 0 -34 8q-18 10 -46 40zM112 50q-39 34 -60 84.5t-21 115.5q0 125 78 192q32 29 77 44t95 15q52 0 96 -15.5t76 -44.5q32 -28 49 -67t17 -85q0 -64 -72 -75l-247 -37q11 -32 43 -49t80 -17q47 0 98 17q27 8 35 8q19 0 30.5 -17t11.5 -39q0 -38 -30 -60.5t-84 -29.5 q-40 -6 -75 -6q-122 0 -197 66zM215 352.5q-25 -24.5 -27 -63.5l171 28q-3 25 -24.5 42.5t-53.5 17.5q-41 0 -66 -24.5z" glyph-name="uni1EC3" unicode="ể"/><glyph d="M272 1004q26 -10 45 -10q9 0 17 3t21 11l12 7q12 5 19 5q3 0 16 -5q35 -18 35 -62q0 -38 -23 -58t-65 -20q-37 0 -54 7l-36 11l-21 6l-17 2q-20 0 -40 -15q-20 -12 -30 -12q-3 0 -16 5q-16 9 -25 25t-9 37q0 37 29 60q12 9 28 14t32 5q6 0 28 -2l22 -5zM272 724l-72 -51 q-25 -18 -44 -18q-13 0 -25.5 7t-20.5 19q-10 13 -10 32q0 21 9.5 36t36.5 33l36 26q52 36 88 36q27 0 45.5 -8.5t45.5 -32.5l52 -46q26 -23 26 -46q0 -8 -3 -17q-14 -39 -54 -39q-20 0 -39 10.5t-48 37.5zM58 513q0 43 25 68t68 25h289q46 0 54 -32q5 -22 5 -35 q0 -70 -60 -70h-211v-93h184q46 0 54 -32q5 -20 5 -34q0 -70 -59 -70h-184v-105h216q46 0 54 -32q5 -22 5 -35q0 -71 -60 -71h-292q-43 0 -68 25t-25 68v423z" glyph-name="uni1EC4" horiz-adv-x="541" unicode="Ễ"/><glyph d="M274 906q26 -10 45 -10q15 0 38 14l12 7q12 5 19 5q3 0 16 -5q35 -18 35 -62q0 -38 -23 -58t-65 -20q-37 0 -54 7l-36 11l-21 6l-17 2q-21 0 -40 -15q-19 -12 -30 -12q-3 0 -16 5q-16 9 -25 25t-9 37q0 37 29 60q12 9 28 14t32 5q6 0 28 -2l22 -5zM268 622 q-44 -38 -53 -47l-11 -11q-22 -22 -45 -22q-9 0 -18 3q-49 16 -49 61q0 20 11 36t37 35l49 35q24 17 43.5 24.5t39.5 7.5q23 0 36.5 -5t33.5 -19l32 -28l43 -38q26 -25 28 -33q1 -1 1 -9q0 -31 -17 -50.5t-47 -19.5q-20 0 -34 8q-18 10 -46 40zM112 50q-39 34 -60 84.5 t-21 115.5q0 125 78 192q32 29 77 44t95 15q52 0 96 -15.5t76 -44.5q32 -28 49 -67t17 -85q0 -64 -72 -75l-247 -37q11 -32 43 -49t80 -17q47 0 98 17q27 8 35 8q19 0 30.5 -17t11.5 -39q0 -38 -30 -60.5t-84 -29.5q-40 -6 -75 -6q-122 0 -197 66zM215 352.5 q-25 -24.5 -27 -63.5l171 28q-3 25 -24.5 42.5t-53.5 17.5q-41 0 -66 -24.5z" glyph-name="uni1EC5" unicode="ễ"/><glyph d="M272 734l-72 -51q-25 -18 -44 -18q-13 0 -25.5 7t-20.5 19q-10 13 -10 32q0 21 9.5 36t36.5 33l36 26q52 36 88 36q27 0 45.5 -8.5t45.5 -32.5l52 -46q26 -23 26 -46q0 -8 -3 -17q-14 -39 -54 -39q-20 0 -39 10.5t-48 37.5zM58 513q0 43 25 68t68 25h289q46 0 54 -32 q5 -22 5 -35q0 -70 -60 -70h-211v-93h184q46 0 54 -32q5 -20 5 -34q0 -70 -59 -70h-184v-105h216q46 0 54 -32q5 -22 5 -35q0 -71 -60 -71h-292q-43 0 -68 25t-25 68v423zM223.5 -80q25.5 25 63.5 25t63.5 -25t25.5 -61t-25.5 -61t-63.5 -25t-63.5 25t-25.5 61t25.5 61z" glyph-name="uni1EC6" horiz-adv-x="541" unicode="Ệ"/><glyph d="M276 622q-44 -38 -53 -47l-11 -11q-22 -22 -45 -22q-9 0 -18 3q-49 16 -49 61q0 20 11 36t37 35l49 35q24 17 43.5 24.5t39.5 7.5q23 0 36.5 -5t33.5 -19l32 -28l43 -38q26 -25 28 -33q1 -1 1 -9q0 -31 -17 -50.5t-47 -19.5q-20 0 -34 8q-18 10 -46 40zM112 50 q-39 34 -60 84.5t-21 115.5q0 125 78 192q32 29 77 44t95 15q52 0 96 -15.5t76 -44.5q32 -28 49 -67t17 -85q0 -64 -72 -75l-247 -37q11 -32 43 -49t80 -17q47 0 98 17q27 8 35 8q19 0 30.5 -17t11.5 -39q0 -38 -30 -60.5t-84 -29.5q-40 -6 -75 -6q-122 0 -197 66z M215 352.5q-25 -24.5 -27 -63.5l171 28q-3 25 -24.5 42.5t-53.5 17.5q-41 0 -66 -24.5zM221.5 -80q25.5 25 63.5 25t63.5 -25t25.5 -61t-25.5 -61t-63.5 -25t-63.5 25t-25.5 61t25.5 61z" glyph-name="uni1EC7" unicode="ệ"/><glyph d="M212.5 849q28.5 -23 28.5 -60q0 -25 -10.5 -42.5t-34.5 -33.5q-13 -9 -18 -14t-9 -14l-6 -12q-5 -11 -10.5 -14.5t-15.5 -3.5q-25 0 -39.5 11t-14.5 32q0 27 32 48l20 14q11 9 14 13q3 5 3 9q0 13 -21 13l-15 -2l-20 -5q-20 -5 -25 -5q-10 0 -17 9.5t-7 24.5 q0 25 23.5 40t65.5 15q48 0 76.5 -23zM240 50q0 -49 -40 -53l-41 -2q-52 0 -73 18t-21 65v482q0 34 17 45t42 11l22 -1q52 0 73 -18t21 -65v-482z" glyph-name="uni1EC8" horiz-adv-x="305" unicode="Ỉ"/><glyph d="M202.5 729q28.5 -23 28.5 -60q0 -25 -10.5 -42.5t-34.5 -33.5q-13 -9 -18 -14t-9 -14l-6 -12q-5 -11 -10.5 -14.5t-15.5 -3.5q-25 0 -39.5 11t-14.5 32q0 27 32 48l20 14q11 9 14 13q3 5 3 9q0 13 -21 13l-15 -2l-20 -5q-20 -5 -25 -5q-10 0 -17 9.5t-7 24.5 q0 25 23.5 40t65.5 15q48 0 76.5 -23zM226 47q0 -34 -15.5 -45t-38.5 -10h-22q-51 0 -72.5 18t-21.5 62v361q0 34 15 45t39 11l22 -1q51 0 72.5 -18t21.5 -62v-361z" glyph-name="uni1EC9" horiz-adv-x="282" unicode="ỉ"/><glyph d="M240 50q0 -49 -40 -53l-41 -2q-52 0 -73 18t-21 65v482q0 34 17 45t42 11l22 -1q52 0 73 -18t21 -65v-482zM95.5 -80q25.5 25 63.5 25t63.5 -25t25.5 -61t-25.5 -61t-63.5 -25t-63.5 25t-25.5 61t25.5 61z" glyph-name="uni1ECA" horiz-adv-x="305" unicode="Ị"/><glyph d="M74 685.5q26 25.5 67 25.5t67 -25.5t26 -64.5t-26 -64.5t-67 -25.5t-67 25.5t-26 64.5t26 64.5zM226 47q0 -34 -15.5 -45t-38.5 -10h-22q-51 0 -72.5 18t-21.5 62v361q0 34 15 45t39 11l22 -1q51 0 72.5 -18t21.5 -62v-361zM82.5 -80q25.5 25 63.5 25t63.5 -25t25.5 -61 t-25.5 -61t-63.5 -25t-63.5 25t-25.5 61t25.5 61z" glyph-name="uni1ECB" horiz-adv-x="282" unicode="ị"/><glyph d="M58.5 440q23.5 61 68.5 103q42 40 99.5 61t124.5 21t125 -21t100 -61q45 -42 68.5 -103t23.5 -136q0 -74 -23.5 -135t-66.5 -104q-42 -41 -100 -62t-127 -21q-68 0 -126 21.5t-100 62.5q-43 43 -66.5 104t-23.5 134q0 75 23.5 136zM250.5 169.5q35.5 -46.5 100.5 -46.5 q66 0 101.5 47t35.5 134q0 86 -36 133t-100 47q-66 0 -101.5 -46.5t-35.5 -133.5q0 -88 35.5 -134.5zM287.5 -80q25.5 25 63.5 25t63.5 -25t25.5 -61t-25.5 -61t-63.5 -25t-63.5 25t-25.5 61t25.5 61z" glyph-name="uni1ECC" horiz-adv-x="703" unicode="Ọ"/><glyph d="M484.5 52.5q-70.5 -68.5 -191.5 -68.5q-119 0 -189 70q-73 68 -73 189q0 58 19 106.5t54 82.5q72 69 189 69q57 0 106 -18t84 -52t53.5 -82.5t18.5 -105.5q0 -122 -70.5 -190.5zM228.5 150q23.5 -33 65.5 -33t64.5 33t22.5 93t-23 92.5t-65 32.5t-65 -32.5t-23 -92.5 t23.5 -93zM229.5 -80q25.5 25 63.5 25t63.5 -25t25.5 -61t-25.5 -61t-63.5 -25t-63.5 25t-25.5 61t25.5 61z" glyph-name="uni1ECD" horiz-adv-x="586" unicode="ọ"/><glyph d="M420.5 849q28.5 -23 28.5 -60q0 -25 -10.5 -42.5t-34.5 -33.5q-13 -9 -18 -14t-9 -14l-6 -12q-5 -11 -10.5 -14.5t-15.5 -3.5q-25 0 -39.5 11t-14.5 32q0 27 32 48l20 14q11 9 14 13q3 5 3 9q0 13 -21 13l-15 -2l-20 -5q-20 -5 -25 -5q-10 0 -17 9.5t-7 24.5 q0 25 23.5 40t65.5 15q48 0 76.5 -23zM58.5 440q23.5 61 68.5 103q42 40 99.5 61t124.5 21t125 -21t100 -61q45 -42 68.5 -103t23.5 -136q0 -74 -23.5 -135t-66.5 -104q-42 -41 -100 -62t-127 -21q-68 0 -126 21.5t-100 62.5q-43 43 -66.5 104t-23.5 134q0 75 23.5 136z M250.5 169.5q35.5 -46.5 100.5 -46.5q66 0 101.5 47t35.5 134q0 86 -36 133t-100 47q-66 0 -101.5 -46.5t-35.5 -133.5q0 -88 35.5 -134.5z" glyph-name="uni1ECE" horiz-adv-x="703" unicode="Ỏ"/><glyph d="M372.5 729q28.5 -23 28.5 -60q0 -25 -10.5 -42.5t-34.5 -33.5q-13 -9 -18 -14t-9 -14l-6 -12q-5 -11 -10.5 -14.5t-15.5 -3.5q-25 0 -39.5 11t-14.5 32q0 27 32 48l20 14q11 9 14 13q3 5 3 9q0 13 -21 13l-15 -2l-20 -5q-20 -5 -25 -5q-10 0 -17 9.5t-7 24.5 q0 25 23.5 40t65.5 15q48 0 76.5 -23zM484.5 52.5q-70.5 -68.5 -191.5 -68.5q-119 0 -189 70q-73 68 -73 189q0 58 19 106.5t54 82.5q72 69 189 69q57 0 106 -18t84 -52t53.5 -82.5t18.5 -105.5q0 -122 -70.5 -190.5zM228.5 150q23.5 -33 65.5 -33t64.5 33t22.5 93t-23 92.5 t-65 32.5t-65 -32.5t-23 -92.5t23.5 -93z" glyph-name="uni1ECF" horiz-adv-x="586" unicode="ỏ"/><glyph d="M536 956q13 16 21 22.5t17 7.5q2 1 16 1q33 0 51.5 -15.5t18.5 -45.5q0 -35 -35 -64l-48 -39q-26 -20 -42 -20l-13 2q-11 4 -24 13q-25 19 -25 43q0 21 13 34zM356 734l-72 -51q-25 -18 -44 -18q-13 0 -25.5 7t-20.5 19q-10 13 -10 32q0 21 9.5 36t36.5 33l36 26 q52 36 88 36q27 0 45.5 -8.5t45.5 -32.5l52 -46q26 -23 26 -46q0 -8 -3 -17q-13 -39 -54 -39q-20 0 -39 10.5t-48 37.5zM58.5 440q23.5 61 68.5 103q42 40 99.5 61t124.5 21t125 -21t100 -61q45 -42 68.5 -103t23.5 -136q0 -74 -23.5 -135t-66.5 -104q-42 -41 -100 -62 t-127 -21q-68 0 -126 21.5t-100 62.5q-43 43 -66.5 104t-23.5 134q0 75 23.5 136zM250.5 169.5q35.5 -46.5 100.5 -46.5q66 0 101.5 47t35.5 134q0 86 -36 133t-100 47q-66 0 -101.5 -46.5t-35.5 -133.5q0 -88 35.5 -134.5z" glyph-name="uni1ED0" horiz-adv-x="703" unicode="Ố"/><glyph d="M477 847q13 16 21 22.5t17 7.5q2 1 16 1q33 0 51.5 -15.5t18.5 -45.5q0 -35 -35 -64l-48 -39q-26 -20 -42 -20l-13 2q-11 4 -24 13q-25 19 -25 43q0 21 13 34zM290 622q-44 -38 -53 -47l-11 -11q-22 -22 -45 -22q-9 0 -18 3q-49 16 -49 61q0 20 11 36t37 35l49 35 q24 17 43.5 24.5t39.5 7.5q23 0 36.5 -5t33.5 -19l32 -28l43 -38q26 -25 28 -33q1 -1 1 -9q0 -31 -17 -50.5t-47 -19.5q-20 0 -34 8q-18 10 -46 40zM484.5 52.5q-70.5 -68.5 -191.5 -68.5q-119 0 -189 70q-73 68 -73 189q0 58 19 106.5t54 82.5q72 69 189 69q57 0 106 -18 t84 -52t53.5 -82.5t18.5 -105.5q0 -122 -70.5 -190.5zM228.5 150q23.5 -33 65.5 -33t64.5 33t22.5 93t-23 92.5t-65 32.5t-65 -32.5t-23 -92.5t23.5 -93z" glyph-name="uni1ED1" horiz-adv-x="587" unicode="ố"/><glyph d="M454 883q-23 21 -23 43q0 6 5 21q9 18 24.5 28.5t33.5 10.5q24 0 41 -10.5t36 -35.5l37 -47q18 -21 18 -40q0 -12 -9 -26q-18 -25 -46 -25q-31 0 -66 32zM356 734l-72 -51q-25 -18 -44 -18q-13 0 -25.5 7t-20.5 19q-10 13 -10 32q0 21 9.5 36t36.5 33l36 26q52 36 88 36 q27 0 45.5 -8.5t45.5 -32.5l52 -46q26 -23 26 -46q0 -8 -3 -17q-13 -39 -54 -39q-20 0 -39 10.5t-48 37.5zM58.5 440q23.5 61 68.5 103q42 40 99.5 61t124.5 21t125 -21t100 -61q45 -42 68.5 -103t23.5 -136q0 -74 -23.5 -135t-66.5 -104q-42 -41 -100 -62t-127 -21 q-68 0 -126 21.5t-100 62.5q-43 43 -66.5 104t-23.5 134q0 75 23.5 136zM250.5 169.5q35.5 -46.5 100.5 -46.5q66 0 101.5 47t35.5 134q0 86 -36 133t-100 47q-66 0 -101.5 -46.5t-35.5 -133.5q0 -88 35.5 -134.5z" glyph-name="uni1ED2" horiz-adv-x="703" unicode="Ồ"/><glyph d="M392 776q-23 21 -23 43q0 6 5 21q9 18 24.5 28.5t33.5 10.5q24 0 41 -10.5t36 -35.5l37 -47q18 -21 18 -40q0 -12 -9 -26q-18 -25 -46 -25q-31 0 -66 32zM290 622q-44 -38 -53 -47l-11 -11q-22 -22 -45 -22q-9 0 -18 3q-49 16 -49 61q0 20 11 36t37 35l49 35 q24 17 43.5 24.5t39.5 7.5q23 0 36.5 -5t33.5 -19l32 -28l43 -38q26 -25 28 -33q1 -1 1 -9q0 -31 -17 -50.5t-47 -19.5q-20 0 -34 8q-18 10 -46 40zM484.5 52.5q-70.5 -68.5 -191.5 -68.5q-119 0 -189 70q-73 68 -73 189q0 58 19 106.5t54 82.5q72 69 189 69q57 0 106 -18 t84 -52t53.5 -82.5t18.5 -105.5q0 -122 -70.5 -190.5zM228.5 150q23.5 -33 65.5 -33t64.5 33t22.5 93t-23 92.5t-65 32.5t-65 -32.5t-23 -92.5t23.5 -93z" glyph-name="uni1ED3" horiz-adv-x="587" unicode="ồ"/><glyph d="M620.5 984q28.5 -23 28.5 -60q0 -25 -10.5 -42.5t-34.5 -33.5q-13 -9 -18 -14t-9 -14l-6 -12q-5 -11 -10.5 -14.5t-15.5 -3.5q-25 0 -39.5 11t-14.5 32q0 27 32 48l20 14q11 9 14 13q3 5 3 9q0 13 -21 13l-15 -2l-20 -5q-20 -5 -25 -5q-10 0 -17 9.5t-7 24.5 q0 25 23.5 40t65.5 15q48 0 76.5 -23zM356 734l-72 -51q-25 -18 -44 -18q-13 0 -25.5 7t-20.5 19q-10 13 -10 32q0 21 9.5 36t36.5 33l36 26q52 36 88 36q27 0 45.5 -8.5t45.5 -32.5l52 -46q26 -23 26 -46q0 -8 -3 -17q-13 -39 -54 -39q-20 0 -39 10.5t-48 37.5zM58.5 440 q23.5 61 68.5 103q42 40 99.5 61t124.5 21t125 -21t100 -61q45 -42 68.5 -103t23.5 -136q0 -74 -23.5 -135t-66.5 -104q-42 -41 -100 -62t-127 -21q-68 0 -126 21.5t-100 62.5q-43 43 -66.5 104t-23.5 134q0 75 23.5 136zM250.5 169.5q35.5 -46.5 100.5 -46.5q66 0 101.5 47 t35.5 134q0 86 -36 133t-100 47q-66 0 -101.5 -46.5t-35.5 -133.5q0 -88 35.5 -134.5z" glyph-name="uni1ED4" horiz-adv-x="703" unicode="Ổ"/><glyph d="M563.5 874q28.5 -23 28.5 -60q0 -25 -10.5 -42.5t-34.5 -33.5q-13 -9 -18 -14t-9 -14l-6 -12q-5 -11 -10.5 -14.5t-15.5 -3.5q-25 0 -39.5 11t-14.5 32q0 27 32 48l20 14q11 9 14 13q3 5 3 9q0 13 -21 13l-15 -2l-20 -5q-20 -5 -25 -5q-10 0 -17 9.5t-7 24.5 q0 25 23.5 40t65.5 15q48 0 76.5 -23zM290 622q-44 -38 -53 -47l-11 -11q-22 -22 -45 -22q-9 0 -18 3q-49 16 -49 61q0 20 11 36t37 35l49 35q24 17 43.5 24.5t39.5 7.5q23 0 36.5 -5t33.5 -19l32 -28l43 -38q26 -25 28 -33q1 -1 1 -9q0 -31 -17 -50.5t-47 -19.5 q-20 0 -34 8q-18 10 -46 40zM484.5 52.5q-70.5 -68.5 -191.5 -68.5q-119 0 -189 70q-73 68 -73 189q0 58 19 106.5t54 82.5q72 69 189 69q57 0 106 -18t84 -52t53.5 -82.5t18.5 -105.5q0 -122 -70.5 -190.5zM228.5 150q23.5 -33 65.5 -33t64.5 33t22.5 93t-23 92.5t-65 32.5 t-65 -32.5t-23 -92.5t23.5 -93z" glyph-name="uni1ED5" horiz-adv-x="587" unicode="ổ"/><glyph d="M357 1004q26 -10 45 -10q9 0 17 3t21 11l12 7q12 5 19 5q3 0 16 -5q35 -18 35 -62q0 -38 -23 -58t-65 -20q-37 0 -54 7l-36 11l-21 6l-17 2q-20 0 -40 -15q-19 -12 -30 -12q-3 0 -16 5q-16 9 -25 25t-9 37q0 37 29 60q12 9 28 14t32 5q6 0 28 -2l22 -5zM356 724l-72 -51 q-25 -18 -44 -18q-13 0 -25.5 7t-20.5 19q-10 13 -10 32q0 21 9.5 36t36.5 33l36 26q52 36 88 36q27 0 45.5 -8.5t45.5 -32.5l52 -46q26 -23 26 -46q0 -8 -3 -17q-13 -39 -54 -39q-20 0 -39 10.5t-48 37.5zM58.5 440q23.5 61 68.5 103q42 40 99.5 61t124.5 21t125 -21 t100 -61q45 -42 68.5 -103t23.5 -136q0 -74 -23.5 -135t-66.5 -104q-42 -41 -100 -62t-127 -21q-68 0 -126 21.5t-100 62.5q-43 43 -66.5 104t-23.5 134q0 75 23.5 136zM250.5 169.5q35.5 -46.5 100.5 -46.5q66 0 101.5 47t35.5 134q0 86 -36 133t-100 47 q-66 0 -101.5 -46.5t-35.5 -133.5q0 -88 35.5 -134.5z" glyph-name="uni1ED6" horiz-adv-x="703" unicode="Ỗ"/><glyph d="M287 906q26 -10 45 -10q9 0 17 3t21 11l12 7q12 5 19 5q3 0 16 -5q35 -18 35 -62q0 -38 -23 -58t-65 -20q-37 0 -54 7l-36 11l-21 6l-17 2q-21 0 -40 -15q-19 -12 -30 -12q-3 0 -16 5q-16 9 -25 25t-9 37q0 37 29 60q12 9 28 14t32 5q6 0 28 -2l22 -5zM290 622 q-44 -38 -53 -47l-11 -11q-22 -22 -45 -22q-9 0 -18 3q-49 16 -49 61q0 20 11 36t37 35l49 35q24 17 43.5 24.5t39.5 7.5q23 0 36.5 -5t33.5 -19l32 -28l43 -38q26 -25 28 -33q1 -1 1 -9q0 -31 -17 -50.5t-47 -19.5q-20 0 -34 8q-18 10 -46 40zM484.5 52.5 q-70.5 -68.5 -191.5 -68.5q-119 0 -189 70q-73 68 -73 189q0 58 19 106.5t54 82.5q72 69 189 69q57 0 106 -18t84 -52t53.5 -82.5t18.5 -105.5q0 -122 -70.5 -190.5zM228.5 150q23.5 -33 65.5 -33t64.5 33t22.5 93t-23 92.5t-65 32.5t-65 -32.5t-23 -92.5t23.5 -93z" glyph-name="uni1ED7" horiz-adv-x="586" unicode="ỗ"/></font>
</defs>
</svg>
